{
.appVersion = "3097";
.formatVersion = 3;
DisplayStrings = (
"TUESDAYG ALT
THURSDAY
SATURDAY
SUNDAY",
"ABCDEFGHIJKLMN
OPQRSTUVWXYZ/O.ss01/O.ss02/O.ss03 
HOONLH MORNING
WEDNESDAY
WHO KNOWS
gLOVE THOU
WOW QUEN",
"ABCDEFGHIJKLM
NOPQRSTUVWXYZ/O.ss01/O.ss02/O.ss03 
cabcdefghijklm
nopqrstnuvwxyz
adhesion hendai
que jajajaja yay
Thx",

glyphs = (
{
glyphname = A;
lastChange = "2021-08-24 15:07:39 +0000";
layers = (
{
anchors = (
{
name = bottom;
pos = (268,0);
},
{
name = ogonek;
pos = (506,10);
},
{
name = top;
pos = (298,730);
}
);
layerId = m004;
shapes = (
{
closed = 1;
nodes = (
(195,-7,o),
(218,38,o),
(245,126,cs),
(255,177,o),
(265,241,o),
(264,307,c),
(166,241,l),
(226,219,o),
(309,218,o),
(353,234,c),
(280,309,l),
(275,249,o),
(274,183,o),
(280,123,cs),
(289,29,o),
(328,-7,o),
(394,-7,cs),
(474,-7,o),
(520,45,o),
(520,163,cs),
(520,312,o),
(488,473,o),
(450,575,cs),
(405,694,o),
(354,739,o),
(286,739,cs),
(220,739,o),
(171,700,o),
(114,570,cs),
(56,438,o),
(15,245,o),
(15,147,cs),
(15,31,o),
(51,-7,o),
(117,-7,cs)
);
},
{
closed = 1;
nodes = (
(249,359,o),
(229,387,o),
(229,440,cs),
(229,502,o),
(250,557,o),
(282,557,cs),
(314,557,o),
(333,505,o),
(333,447,cs),
(333,389,o),
(313,359,o),
(280,359,cs)
);
}
);
width = 535;
},
{
anchors = (
{
name = bottom;
pos = (313,0);
},
{
name = ogonek;
pos = (551,10);
},
{
name = top;
pos = (343,730);
}
);
layerId = "4BA625B0-8927-4B2E-B2D8-0167ED5E0445";
shapes = (
{
closed = 1;
nodes = (
(219,-7,o),
(263,38,o),
(275,126,cs),
(285,177,o),
(295,241,o),
(294,307,c),
(196,241,l),
(265,219,o),
(362,218,o),
(413,234,c),
(340,309,l),
(335,249,o),
(334,183,o),
(340,123,cs),
(349,29,o),
(394,-7,o),
(469,-7,cs),
(558,-7,o),
(610,45,o),
(610,163,cs),
(610,312,o),
(578,473,o),
(540,575,cs),
(494,697,o),
(417,739,o),
(331,739,cs),
(247,739,o),
(173,705,o),
(114,570,cs),
(56,438,o),
(15,245,o),
(15,147,cs),
(15,31,o),
(56,-7,o),
(132,-7,cs)
);
},
{
closed = 1;
nodes = (
(273,379,o),
(239,407,o),
(239,444,cs),
(239,487,o),
(274,537,o),
(327,537,cs),
(380,537,o),
(413,490,o),
(413,452,cs),
(413,409,o),
(379,379,o),
(325,379,cs)
);
}
);
width = 625;
},
{
anchors = (
{
name = bottom;
pos = (246,0);
},
{
name = ogonek;
pos = (484,10);
},
{
name = top;
pos = (276,730);
}
);
layerId = "D96CDDDD-AAEE-4FD8-A377-74226937908C";
shapes = (
{
closed = 1;
nodes = (
(142,-7,o),
(159,37,o),
(178,119,cs),
(188,172,o),
(198,238,o),
(197,307,c),
(144,249,l),
(208,219,o),
(298,218,o),
(346,242,c),
(318,309,l),
(313,247,o),
(312,178,o),
(318,116,cs),
(326,28,o),
(350,-7,o),
(394,-7,cs),
(440,-7,o),
(468,29,o),
(468,111,cs),
(468,256,o),
(444,449,o),
(405,575,cs),
(368,693,o),
(320,739,o),
(265,739,cs),
(213,739,o),
(167,697,o),
(120,570,cs),
(66,424,o),
(30,205,o),
(30,95,cs),
(30,18,o),
(50,-7,o),
(87,-7,cs)
);
},
{
closed = 1;
nodes = (
(210,329,o),
(188,351,o),
(188,395,cs),
(188,469,o),
(222,617,o),
(260,617,cs),
(298,617,o),
(329,471,o),
(329,402,cs),
(329,353,o),
(307,329,o),
(258,329,cs)
);
}
);
width = 497.5;
},
{
anchors = (
{
name = bottom;
pos = (324,0);
},
{
name = ogonek;
pos = (562,10);
},
{
name = top;
pos = (354,730);
}
);
layerId = "1C59D977-65E2-41C6-912A-276E7E987498";
shapes = (
{
closed = 1;
nodes = (
(148,-7,o),
(169,41,o),
(185,130,cs),
(195,180,o),
(205,243,o),
(204,307,c),
(151,249,l),
(254,219,o),
(397,218,o),
(473,242,c),
(456,309,l),
(451,251,o),
(450,186,o),
(456,127,cs),
(466,31,o),
(490,-7,o),
(537,-7,cs),
(585,-7,o),
(614,29,o),
(614,111,cs),
(614,256,o),
(572,442,o),
(518,575,cs),
(469,693,o),
(410,739,o),
(342,739,cs),
(273,739,o),
(217,700,o),
(156,570,cs),
(84,417,o),
(30,205,o),
(30,95,cs),
(30,18,o),
(52,-7,o),
(91,-7,cs)
);
},
{
closed = 1;
nodes = (
(257,334,o),
(219,356,o),
(219,396,cs),
(219,465,o),
(275,612,o),
(338,612,cs),
(403,612,o),
(457,468,o),
(457,403,cs),
(457,358,o),
(420,334,o),
(336,334,cs)
);
}
);
width = 643.75;
}
);
metricRight = "=|";
unicode = 65;
},
{
glyphname = B;
lastChange = "2021-08-24 20:06:36 +0000";
layers = (
{
anchors = (
{
name = bottom;
pos = (242,0);
},
{
name = center;
pos = (242,365);
},
{
name = top;
pos = (242,730);
}
);
background = {
shapes = (
{
closed = 1;
nodes = (
(336,-5,o),
(464,99,o),
(464,245,cs),
(464,356,o),
(404,407,o),
(305,407,c),
(233,384,l),
(361,409,o),
(459,464,o),
(459,583,cs),
(459,672,o),
(407,739,o),
(272,739,cs),
(168,739,o),
(117,703,o),
(83,652,cs),
(47,597,o),
(25,503,o),
(25,285,cs),
(25,197,o),
(32,130,o),
(52,83,cs),
(77,22,o),
(129,-5,o),
(211,-5,cs)
);
},
{
closed = 1;
nodes = (
(223,143,o),
(213,168,o),
(213,215,cs),
(213,283,o),
(237,320,o),
(265,320,cs),
(291,320,o),
(303,288,o),
(303,246,cs),
(303,184,o),
(279,143,o),
(245,143,cs)
);
},
{
closed = 1;
nodes = (
(231,443,o),
(220,466,o),
(220,511,cs),
(220,573,o),
(239,607,o),
(268,607,cs),
(289,607,o),
(300,581,o),
(300,544,cs),
(300,482,o),
(279,443,o),
(251,443,cs)
);
}
);
};
layerId = m004;
shapes = (
{
closed = 1;
nodes = (
(336,-5,o),
(464,99,o),
(464,245,cs),
(464,349,o),
(411,400,o),
(323,406,c),
(323,410,l),
(404,441,o),
(459,494,o),
(459,583,cs),
(459,672,o),
(407,739,o),
(272,739,cs),
(168,739,o),
(117,703,o),
(83,652,cs),
(47,597,o),
(25,503,o),
(25,285,cs),
(25,197,o),
(32,130,o),
(52,83,cs),
(77,22,o),
(129,-5,o),
(211,-5,cs)
);
},
{
closed = 1;
nodes = (
(223,143,o),
(213,168,o),
(213,215,cs),
(213,283,o),
(237,320,o),
(265,320,cs),
(291,320,o),
(303,288,o),
(303,246,cs),
(303,184,o),
(279,143,o),
(245,143,cs)
);
},
{
closed = 1;
nodes = (
(231,443,o),
(220,466,o),
(220,511,cs),
(220,573,o),
(239,607,o),
(268,607,cs),
(289,607,o),
(300,581,o),
(300,544,cs),
(300,482,o),
(279,443,o),
(251,443,cs)
);
}
);
width = 484;
},
{
anchors = (
{
name = bottom;
pos = (317,0);
},
{
name = center;
pos = (317,365);
},
{
name = top;
pos = (317,730);
}
);
background = {
shapes = (
{
closed = 1;
nodes = (
(426,-5,o),
(614,99,o),
(614,245,cs),
(614,356,o),
(542,407,o),
(425,407,c),
(353,384,l),
(498,409,o),
(609,464,o),
(609,583,cs),
(609,672,o),
(545,739,o),
(377,739,cs),
(215,739,o),
(122,711,o),
(83,652,cs),
(47,597,o),
(25,503,o),
(25,285,cs),
(25,197,o),
(32,130,o),
(52,83,cs),
(77,21,o),
(144,-5,o),
(241,-5,cs)
);
},
{
closed = 1;
nodes = (
(266,173,o),
(241,192,o),
(241,233,cs),
(241,279,o),
(280,305,o),
(329,305,cs),
(392,305,o),
(421,278,o),
(421,244,cs),
(421,201,o),
(378,173,o),
(318,173,cs)
);
},
{
closed = 1;
nodes = (
(275,458,o),
(248,476,o),
(248,514,cs),
(248,555,o),
(283,577,o),
(332,577,cs),
(387,577,o),
(418,556,o),
(418,525,cs),
(418,484,o),
(377,458,o),
(318,458,cs)
);
}
);
};
layerId = "4BA625B0-8927-4B2E-B2D8-0167ED5E0445";
shapes = (
{
closed = 1;
nodes = (
(426,-5,o),
(614,99,o),
(614,245,cs),
(614,345,o),
(555,397,o),
(457,406,c),
(457,410,l),
(548,442,o),
(609,495,o),
(609,583,cs),
(609,672,o),
(542,739,o),
(367,739,cs),
(211,739,o),
(132,702,o),
(93,644,cs),
(49,578,o),
(25,473,o),
(25,285,cs),
(25,201,o),
(33,138,o),
(52,93,cs),
(81,25,o),
(139,-5,o),
(241,-5,cs)
);
},
{
closed = 1;
nodes = (
(266,173,o),
(241,192,o),
(241,233,cs),
(241,279,o),
(280,305,o),
(329,305,cs),
(392,305,o),
(421,278,o),
(421,244,cs),
(421,201,o),
(378,173,o),
(318,173,cs)
);
},
{
closed = 1;
nodes = (
(275,458,o),
(248,476,o),
(248,514,cs),
(248,555,o),
(283,577,o),
(332,577,cs),
(387,577,o),
(418,556,o),
(418,525,cs),
(418,484,o),
(377,458,o),
(318,458,cs)
);
}
);
width = 634;
},
{
anchors = (
{
name = bottom;
pos = (250,0);
},
{
name = center;
pos = (250,365);
},
{
name = top;
pos = (250,730);
}
);
layerId = "D96CDDDD-AAEE-4FD8-A377-74226937908C";
shapes = (
{
closed = 1;
nodes = (
(321,-5,o),
(442,99,o),
(442,245,cs),
(442,342,o),
(396,390,o),
(321,398,c),
(321,402,l),
(390,437,o),
(437,493,o),
(437,583,cs),
(437,668,o),
(391,739,o),
(272,739,cs),
(192,739,o),
(149,714,o),
(113,660,cs),
(76,604,o),
(55,508,o),
(55,285,cs),
(55,190,o),
(61,118,o),
(82,68,cs),
(103,18,o),
(141,-5,o),
(204,-5,cs)
);
},
{
closed = 1;
nodes = (
(189,108,o),
(172,137,o),
(172,214,cs),
(172,297,o),
(200,330,o),
(242,330,cs),
(297,330,o),
(322,290,o),
(322,237,cs),
(322,162,o),
(281,108,o),
(223,108,cs)
);
},
{
closed = 1;
nodes = (
(198,428,o),
(179,450,o),
(179,515,cs),
(179,597,o),
(209,630,o),
(252,630,cs),
(296,630,o),
(319,596,o),
(319,547,cs),
(319,477,o),
(281,428,o),
(229,428,cs)
);
}
);
width = 484;
},
{
anchors = (
{
name = bottom;
pos = (313,0);
},
{
name = center;
pos = (313,365);
},
{
name = top;
pos = (313,730);
}
);
layerId = "1C59D977-65E2-41C6-912A-276E7E987498";
shapes = (
{
closed = 1;
nodes = (
(417,-5,o),
(580,99,o),
(580,245,cs),
(580,337,o),
(524,386,o),
(430,397,c),
(430,401,l),
(517,436,o),
(575,492,o),
(575,583,cs),
(575,668,o),
(520,739,o),
(377,739,cs),
(233,739,o),
(160,702,o),
(124,648,cs),
(89,594,o),
(66,501,o),
(66,285,cs),
(66,201,o),
(74,136,o),
(93,91,cs),
(120,26,o),
(173,-5,o),
(256,-5,cs)
);
},
{
closed = 1;
nodes = (
(222,115,o),
(190,143,o),
(190,218,cs),
(190,296,o),
(234,326,o),
(303,326,cs),
(406,326,o),
(453,287,o),
(453,237,cs),
(453,167,o),
(383,115,o),
(287,115,cs)
);
},
{
closed = 1;
nodes = (
(234,432,o),
(197,453,o),
(197,516,cs),
(197,593,o),
(255,622,o),
(336,622,cs),
(410,622,o),
(450,590,o),
(450,542,cs),
(450,477,o),
(382,432,o),
(291,432,cs)
);
}
);
width = 634;
}
);
metricLeft = H;
unicode = 66;
},
{
glyphname = C;
lastChange = "2021-08-24 15:07:39 +0000";
layers = (
{
anchors = (
{
name = bottom;
pos = (249,0);
},
{
name = top;
pos = (259,730);
}
);
layerId = m004;
shapes = (
{
closed = 1;
nodes = (
(405,-11,o),
(457,45,o),
(457,133,cs),
(457,211,o),
(412,251,o),
(341,251,cs),
(330,251,o),
(309,247,o),
(297,247,cs),
(252,247,o),
(223,275,o),
(223,349,cs),
(223,430,o),
(258,458,o),
(299,458,cs),
(323,458,o),
(336,453,o),
(361,453,cs),
(434,453,o),
(473,496,o),
(473,566,cs),
(473,656,o),
(414,710,o),
(306,710,cs),
(122,710,o),
(15,559,o),
(15,331,cs),
(15,124,o),
(104,-11,o),
(291,-11,cs)
);
}
);
width = 478;
},
{
anchors = (
{
name = bottom;
pos = (324,0);
},
{
name = top;
pos = (319,730);
}
);
layerId = "4BA625B0-8927-4B2E-B2D8-0167ED5E0445";
shapes = (
{
closed = 1;
nodes = (
(561,-11,o),
(637,54,o),
(637,157,cs),
(637,235,o),
(592,275,o),
(521,275,cs),
(479,275,o),
(404,262,o),
(357,262,cs),
(294,262,o),
(253,286,o),
(253,349,cs),
(253,420,o),
(302,443,o),
(359,443,cs),
(425,443,o),
(458,408,o),
(526,408,cs),
(608,408,o),
(653,457,o),
(653,536,cs),
(653,644,o),
(567,710,o),
(411,710,cs),
(161,710,o),
(15,559,o),
(15,331,cs),
(15,124,o),
(139,-11,o),
(396,-11,cs)
);
}
);
width = 658;
},
{
anchors = (
{
name = bottom;
pos = (249,0);
},
{
name = top;
pos = (252,730);
}
);
layerId = "D96CDDDD-AAEE-4FD8-A377-74226937908C";
shapes = (
{
closed = 1;
nodes = (
(374,-11,o),
(420,27,o),
(420,78,cs),
(420,121,o),
(395,143,o),
(356,143,cs),
(343,143,o),
(312,135,o),
(290,135,cs),
(217,135,o),
(171,193,o),
(171,349,cs),
(171,504,o),
(226,556,o),
(292,556,cs),
(326,556,o),
(345,543,o),
(369,543,cs),
(412,543,o),
(436,569,o),
(436,611,cs),
(436,668,o),
(385,710,o),
(306,710,cs),
(136,710,o),
(38,559,o),
(38,331,cs),
(38,124,o),
(120,-11,o),
(291,-11,cs)
);
}
);
width = 455.5;
},
{
anchors = (
{
name = bottom;
pos = (324,0);
},
{
name = top;
pos = (323,730);
}
);
layerId = "1C59D977-65E2-41C6-912A-276E7E987498";
shapes = (
{
closed = 1;
nodes = (
(550,-11,o),
(633,34,o),
(633,95,cs),
(633,138,o),
(604,160,o),
(559,160,cs),
(523,160,o),
(443,138,o),
(383,138,cs),
(266,138,o),
(189,195,o),
(189,349,cs),
(189,501,o),
(280,552,o),
(385,552,cs),
(466,552,o),
(512,509,o),
(567,509,cs),
(620,509,o),
(649,537,o),
(649,581,cs),
(649,655,o),
(556,710,o),
(411,710,cs),
(182,710,o),
(49,559,o),
(49,331,cs),
(49,124,o),
(162,-11,o),
(396,-11,cs)
);
}
);
width = 669.25;
}
);
metricLeft = O;
unicode = 67;
},
{
glyphname = D;
lastChange = "2021-08-24 15:56:34 +0000";
layers = (
{
anchors = (
{
name = bottom;
pos = (291,0);
},
{
name = center;
pos = (291,365);
},
{
name = top;
pos = (291,730);
}
);
layerId = m004;
shapes = (
{
closed = 1;
nodes = (
(375,-23,o),
(526,151,o),
(526,390,cs),
(526,595,o),
(408,735,o),
(190,735,cs),
(67,735,o),
(10,690,o),
(10,616,cs),
(10,558,o),
(38,525,o),
(101,525,cs),
(145,525,o),
(192,535,o),
(220,547,c),
(96,567,l),
(73,458,o),
(70,238,o),
(92,122,c),
(130,163,l),
(50,153,o),
(25,114,o),
(26,59,cs),
(27,10,o),
(51,-23,o),
(147,-23,cs)
);
},
{
closed = 1;
nodes = (
(242,206,o),
(235,260,o),
(235,385,cs),
(235,505,o),
(240,536,o),
(257,536,cs),
(287,536,o),
(315,465,o),
(315,363,cs),
(315,267,o),
(293,206,o),
(268,206,cs)
);
}
);
width = 541;
},
{
anchors = (
{
name = bottom;
pos = (336,0);
},
{
name = center;
pos = (336,365);
},
{
name = top;
pos = (336,730);
}
);
layerId = "4BA625B0-8927-4B2E-B2D8-0167ED5E0445";
shapes = (
{
closed = 1;
nodes = (
(483,-23,o),
(676,151,o),
(676,390,cs),
(676,595,o),
(521,735,o),
(235,735,cs),
(82,735,o),
(10,684,o),
(10,601,cs),
(10,543,o),
(52,510,o),
(146,510,cs),
(190,510,o),
(237,520,o),
(265,532,c),
(141,537,l),
(118,443,o),
(115,253,o),
(137,152,c),
(175,193,l),
(61,182,o),
(25,137,o),
(26,74,cs),
(27,16,o),
(60,-23,o),
(192,-23,cs)
);
},
{
closed = 1;
nodes = (
(320,236,o),
(310,281,o),
(310,385,cs),
(310,481,o),
(318,506,o),
(347,506,cs),
(394,506,o),
(435,447,o),
(435,363,cs),
(435,285,o),
(400,236,o),
(358,236,cs)
);
}
);
width = 691;
},
{
anchors = (
{
name = bottom;
pos = (272,0);
},
{
name = center;
pos = (272,365);
},
{
name = top;
pos = (272,730);
}
);
layerId = "D96CDDDD-AAEE-4FD8-A377-74226937908C";
shapes = (
{
closed = 1;
nodes = (
(343,-23,o),
(485,151,o),
(485,390,cs),
(485,595,o),
(374,735,o),
(171,735,cs),
(69,735,o),
(21,701,o),
(21,646,cs),
(21,612,o),
(43,593,o),
(90,593,cs),
(131,593,o),
(175,603,o),
(201,615,c),
(115,612,l),
(84,484,o),
(81,223,o),
(111,85,c),
(126,103,l),
(58,97,o),
(37,71,o),
(37,37,cs),
(38,1,o),
(56,-23,o),
(128,-23,cs)
);
},
{
closed = 1;
nodes = (
(214,124,o),
(205,211,o),
(205,373,cs),
(205,531,o),
(214,611,o),
(244,611,cs),
(286,611,o),
(349,531,o),
(349,372,cs),
(349,209,o),
(289,124,o),
(248,124,cs)
);
}
);
width = 523;
},
{
anchors = (
{
name = bottom;
pos = (345,0);
},
{
name = center;
pos = (345,365);
},
{
name = top;
pos = (345,730);
}
);
layerId = "1C59D977-65E2-41C6-912A-276E7E987498";
shapes = (
{
closed = 1;
nodes = (
(472,-23,o),
(651,151,o),
(651,390,cs),
(651,595,o),
(507,735,o),
(244,735,cs),
(96,735,o),
(26,700,o),
(26,642,cs),
(26,608,o),
(65,589,o),
(151,589,cs),
(197,589,o),
(245,599,o),
(274,611,c),
(187,605,l),
(157,480,o),
(154,227,o),
(183,92,c),
(199,111,l),
(79,104,o),
(42,77,o),
(42,40,cs),
(43,3,o),
(75,-23,o),
(201,-23,cs)
);
},
{
closed = 1;
nodes = (
(297,131,o),
(285,216,o),
(285,373,cs),
(285,525,o),
(297,604,o),
(339,604,cs),
(408,604,o),
(508,527,o),
(508,372,cs),
(508,214,o),
(411,131,o),
(343,131,cs)
);
}
);
width = 700;
}
);
metricLeft = "=|E";
metricRight = O;
unicode = 68;
},
{
glyphname = E;
lastChange = "2021-08-24 15:23:59 +0000";
layers = (
{
anchors = (
{
name = bottom;
pos = (244,0);
},
{
name = ogonek;
pos = (455,10);
},
{
name = top;
pos = (244,730);
},
{
name = topleft;
pos = (0,730);
}
);
layerId = m004;
shapes = (
{
closed = 1;
nodes = (
(210,736,o),
(127,707,o),
(82,645,cs),
(48,599,o),
(25,514,o),
(25,323,cs),
(25,188,o),
(36,118,o),
(64,70,cs),
(92,21,o),
(149,-6,o),
(239,-6,cs),
(281,-6,o),
(328,5,o),
(356,19,cs),
(397,39,o),
(416,74,o),
(416,117,cs),
(416,189,o),
(385,219,o),
(320,219,cs),
(278,219,o),
(223,209,o),
(188,194,c),
(203,169,l),
(225,208,o),
(225,274,o),
(208,313,c),
(192,301,l),
(230,291,o),
(268,286,o),
(299,286,cs),
(368,286,o),
(393,325,o),
(393,374,cs),
(393,419,o),
(373,454,o),
(316,454,cs),
(278,454,o),
(224,444,o),
(195,433,c),
(211,426,l),
(222,466,o),
(222,513,o),
(209,551,c),
(189,528,l),
(223,523,o),
(256,521,o),
(281,521,cs),
(375,521,o),
(418,559,o),
(418,636,cs),
(418,701,o),
(389,736,o),
(308,736,cs)
);
}
);
width = 428;
},
{
anchors = (
{
name = bottom;
pos = (274,0);
},
{
name = ogonek;
pos = (485,10);
},
{
name = top;
pos = (274,730);
},
{
name = topleft;
pos = (30,730);
}
);
layerId = "4BA625B0-8927-4B2E-B2D8-0167ED5E0445";
shapes = (
{
closed = 1;
nodes = (
(261,736,o),
(133,715,o),
(82,645,cs),
(48,599,o),
(25,514,o),
(25,323,cs),
(25,188,o),
(36,118,o),
(64,70,cs),
(94,20,o),
(164,-6,o),
(269,-6,cs),
(355,-6,o),
(453,8,o),
(506,34,cs),
(550,56,o),
(566,85,o),
(566,132,cs),
(566,204,o),
(520,234,o),
(425,234,cs),
(364,234,o),
(285,224,o),
(233,209,c),
(233,199,l),
(255,231,o),
(255,282,o),
(238,313,c),
(222,301,l),
(281,291,o),
(340,286,o),
(389,286,cs),
(502,286,o),
(543,325,o),
(543,374,cs),
(543,419,o),
(507,454,o),
(406,454,cs),
(349,454,o),
(269,444,o),
(225,433,c),
(241,426,l),
(252,457,o),
(252,492,o),
(239,521,c),
(234,513,l),
(291,508,o),
(345,506,o),
(386,506,cs),
(510,506,o),
(568,544,o),
(568,621,cs),
(568,695,o),
(523,736,o),
(398,736,cs)
);
}
);
width = 578;
},
{
anchors = (
{
name = bottom;
pos = (244,0);
},
{
name = ogonek;
pos = (455,10);
},
{
name = top;
pos = (244,730);
},
{
name = topleft;
pos = (0,730);
}
);
layerId = "D96CDDDD-AAEE-4FD8-A377-74226937908C";
shapes = (
{
closed = 1;
nodes = (
(227,736,o),
(154,706,o),
(110,646,cs),
(78,599,o),
(55,514,o),
(55,323,cs),
(55,184,o),
(68,111,o),
(94,62,cs),
(118,17,o),
(172,-6,o),
(254,-6,cs),
(289,-6,o),
(325,1,o),
(349,12,cs),
(381,26,o),
(394,51,o),
(394,80,cs),
(394,125,o),
(372,144,o),
(328,144,cs),
(274,144,o),
(204,128,o),
(158,104,c),
(173,94,l),
(188,160,o),
(182,270,o),
(159,336,c),
(147,324,l),
(190,314,o),
(237,309,o),
(284,309,cs),
(347,309,o),
(371,338,o),
(371,374,cs),
(371,406,o),
(352,432,o),
(301,432,cs),
(256,432,o),
(193,422,o),
(158,411,c),
(162,404,l),
(186,471,o),
(191,548,o),
(179,611,c),
(159,596,l),
(204,591,o),
(248,589,o),
(281,589,cs),
(359,589,o),
(396,615,o),
(396,666,cs),
(396,712,o),
(367,736,o),
(316,736,cs)
);
}
);
width = 416.75;
},
{
anchors = (
{
name = bottom;
pos = (263,0);
},
{
name = ogonek;
pos = (474,10);
},
{
name = top;
pos = (263,730);
},
{
name = topleft;
pos = (19,730);
}
);
layerId = "1C59D977-65E2-41C6-912A-276E7E987498";
shapes = (
{
closed = 1;
nodes = (
(278,736,o),
(171,713,o),
(121,646,cs),
(89,599,o),
(66,514,o),
(66,323,cs),
(66,184,o),
(80,111,o),
(105,62,cs),
(130,16,o),
(187,-6,o),
(273,-6,cs),
(347,-6,o),
(428,9,o),
(476,26,cs),
(525,44,o),
(544,65,o),
(544,95,cs),
(544,133,o),
(507,148,o),
(433,148,cs),
(355,148,o),
(252,132,o),
(186,108,c),
(197,102,l),
(212,166,o),
(205,272,o),
(183,336,c),
(171,324,l),
(237,314,o),
(311,309,o),
(385,309,cs),
(484,309,o),
(521,338,o),
(521,374,cs),
(521,406,o),
(489,432,o),
(402,432,cs),
(333,432,o),
(236,422,o),
(181,411,c),
(186,404,l),
(210,468,o),
(215,543,o),
(203,604,c),
(187,592,l),
(260,587,o),
(331,585,o),
(386,585,cs),
(496,585,o),
(546,611,o),
(546,662,cs),
(546,710,o),
(509,736,o),
(394,736,cs)
);
}
);
width = 572.375;
}
);
metricLeft = H;
unicode = 69;
},
{
glyphname = F;
lastChange = "2021-08-24 15:56:35 +0000";
layers = (
{
anchors = (
{
name = bottom;
pos = (222,0);
},
{
name = top;
pos = (222,730);
}
);
background = {
shapes = (
{
closed = 1;
nodes = (
(208,736,o),
(110,711,o),
(62,645,cs),
(28,599,o),
(5,514,o),
(5,323,cs),
(5,177,o),
(18,102,o),
(44,50,cs),
(66,7,o),
(98,-6,o),
(139,-6,cs),
(205,-6,o),
(246,21,o),
(246,107,cs),
(246,164,o),
(228,226,o),
(211,253,c),
(172,251,l),
(224,241,o),
(276,236,o),
(319,236,cs),
(417,236,o),
(453,279,o),
(453,334,cs),
(453,385,o),
(422,424,o),
(336,424,cs),
(291,424,o),
(229,414,o),
(195,403,c),
(211,396,l),
(218,446,o),
(218,496,o),
(209,531,c),
(199,508,l),
(241,503,o),
(280,501,o),
(311,501,cs),
(425,501,o),
(478,539,o),
(478,624,cs),
(478,693,o),
(446,736,o),
(328,736,cs)
);
}
);
};
layerId = m004;
shapes = (
{
closed = 1;
nodes = (
(212,716,o),
(126,685,o),
(82,625,cs),
(48,579,o),
(25,475,o),
(25,293,cs),
(25,157,o),
(34,79,o),
(51,39,cs),
(68,-4,o),
(102,-26,o),
(149,-26,cs),
(215,-26,o),
(256,16,o),
(256,107,cs),
(256,175,o),
(238,251,o),
(221,283,c),
(192,291,l),
(231,248,o),
(270,226,o),
(309,226,cs),
(366,226,o),
(393,264,o),
(393,314,cs),
(393,394,o),
(344,424,o),
(195,433,c),
(211,426,l),
(218,458,o),
(218,489,o),
(209,511,c),
(199,505,l),
(218,502,o),
(237,501,o),
(251,501,cs),
(358,501,o),
(408,536,o),
(408,614,cs),
(408,677,o),
(374,716,o),
(288,716,cs)
);
}
);
width = 413;
},
{
anchors = (
{
name = bottom;
pos = (252,0);
},
{
name = top;
pos = (252,730);
}
);
layerId = "4BA625B0-8927-4B2E-B2D8-0167ED5E0445";
shapes = (
{
closed = 1;
nodes = (
(250,716,o),
(131,691,o),
(82,625,cs),
(48,579,o),
(25,475,o),
(25,293,cs),
(25,157,o),
(34,79,o),
(51,39,cs),
(68,-6,o),
(110,-26,o),
(164,-26,cs),
(239,-26,o),
(286,16,o),
(286,107,cs),
(286,175,o),
(268,251,o),
(251,283,c),
(192,281,l),
(257,238,o),
(320,216,o),
(384,216,cs),
(461,216,o),
(498,254,o),
(498,304,cs),
(498,395,o),
(431,428,o),
(225,438,c),
(241,426,l),
(248,458,o),
(248,489,o),
(239,511,c),
(229,475,l),
(254,472,o),
(278,471,o),
(296,471,cs),
(444,471,o),
(513,511,o),
(513,599,cs),
(513,671,o),
(467,716,o),
(348,716,cs)
);
}
);
width = 518;
},
{
anchors = (
{
name = bottom;
pos = (230,0);
},
{
name = top;
pos = (230,730);
}
);
layerId = "D96CDDDD-AAEE-4FD8-A377-74226937908C";
shapes = (
{
closed = 1;
nodes = (
(217,716,o),
(147,688,o),
(112,640,cs),
(77,593,o),
(55,483,o),
(55,293,cs),
(55,164,o),
(66,69,o),
(81,24,cs),
(93,-9,o),
(112,-26,o),
(142,-26,cs),
(184,-26,o),
(211,6,o),
(211,77,cs),
(211,159,o),
(192,275,o),
(174,328,c),
(160,329,l),
(212,280,o),
(264,256,o),
(302,256,cs),
(343,256,o),
(363,281,o),
(363,314,cs),
(363,366,o),
(315,404,o),
(165,418,c),
(175,404,l),
(187,465,o),
(188,539,o),
(179,586,c),
(169,575,l),
(202,570,o),
(234,569,o),
(259,569,cs),
(339,569,o),
(378,592,o),
(378,644,cs),
(378,688,o),
(353,716,o),
(288,716,cs)
);
}
);
width = 394;
},
{
anchors = (
{
name = bottom;
pos = (248,0);
},
{
name = top;
pos = (248,730);
}
);
layerId = "1C59D977-65E2-41C6-912A-276E7E987498";
shapes = (
{
closed = 1;
nodes = (
(278,716,o),
(164,696,o),
(123,640,cs),
(89,593,o),
(66,483,o),
(66,293,cs),
(66,164,o),
(77,69,o),
(92,24,cs),
(104,-9,o),
(125,-26,o),
(157,-26,cs),
(202,-26,o),
(230,6,o),
(230,77,cs),
(230,159,o),
(210,275,o),
(193,328,c),
(171,326,l),
(264,264,o),
(355,231,o),
(422,231,cs),
(468,231,o),
(491,256,o),
(491,289,cs),
(491,352,o),
(415,402,o),
(184,419,c),
(194,404,l),
(206,465,o),
(207,539,o),
(198,586,c),
(188,567,l),
(247,563,o),
(305,561,o),
(349,561,cs),
(455,561,o),
(506,585,o),
(506,640,cs),
(506,687,o),
(471,716,o),
(382,716,cs)
);
}
);
width = 528;
}
);
metricLeft = H;
metricRight = T;
unicode = 70;
},
{
glyphname = G;
lastChange = "2021-08-24 15:07:39 +0000";
layers = (
{
anchors = (
{
name = bottom;
pos = (284,0);
},
{
name = top;
pos = (284,730);
}
);
background = {
shapes = (
{
closed = 1;
nodes = (
(431,280,l),
(491,289,o),
(516,318,o),
(516,359,cs),
(516,392,o),
(497,418,o),
(458,428,cs),
(438,433,o),
(414,437,o),
(385,437,cs),
(340,437,o),
(306,426,o),
(280,413,cs),
(246,397,o),
(231,367,o),
(231,336,cs),
(231,291,o),
(250,268,o),
(314,268,cs),
(325,268,o),
(339,268,o),
(353,270,c)
);
},
{
closed = 1;
nodes = (
(319,284,l),
(321,272,o),
(322,261,o),
(322,249,cs),
(322,187,o),
(315,157,o),
(282,157,cs),
(235,157,o),
(203,208,o),
(203,329,cs),
(203,460,o),
(256,508,o),
(319,508,cs),
(341,508,o),
(368,503,o),
(391,503,cs),
(457,503,o),
(493,538,o),
(493,596,cs),
(493,684,o),
(437,730,o),
(336,730,cs),
(141,730,o),
(15,565,o),
(15,331,cs),
(15,124,o),
(101,-11,o),
(281,-11,cs),
(426,-11,o),
(487,87,o),
(487,185,cs),
(487,233,o),
(471,269,o),
(431,294,c)
);
}
);
};
layerId = m004;
shapes = (
{
closed = 1;
nodes = (
(431,280,l),
(491,289,o),
(516,318,o),
(516,359,cs),
(516,419,o),
(464,437,o),
(395,437,cs),
(356,437,o),
(312,428,o),
(280,413,cs),
(246,397,o),
(231,367,o),
(231,336,cs),
(231,291,o),
(250,268,o),
(314,268,cs),
(325,268,o),
(339,268,o),
(353,270,c)
);
},
{
closed = 1;
nodes = (
(319,284,l),
(321,272,o),
(322,261,o),
(322,249,cs),
(322,187,o),
(315,157,o),
(282,157,cs),
(235,157,o),
(203,208,o),
(203,329,cs),
(203,460,o),
(256,508,o),
(319,508,cs),
(341,508,o),
(368,503,o),
(391,503,cs),
(457,503,o),
(493,538,o),
(493,596,cs),
(493,684,o),
(437,730,o),
(336,730,cs),
(141,730,o),
(15,565,o),
(15,331,cs),
(15,124,o),
(101,-11,o),
(281,-11,cs),
(426,-11,o),
(487,87,o),
(487,185,cs),
(487,233,o),
(471,269,o),
(431,294,c)
);
}
);
width = 518;
},
{
anchors = (
{
name = bottom;
pos = (344,0);
},
{
name = top;
pos = (344,730);
}
);
layerId = "4BA625B0-8927-4B2E-B2D8-0167ED5E0445";
shapes = (
{
closed = 1;
nodes = (
(611,265,l),
(682,274,o),
(711,303,o),
(711,344,cs),
(711,391,o),
(659,422,o),
(545,422,cs),
(466,422,o),
(408,410,o),
(370,391,cs),
(329,370,o),
(306,345,o),
(306,314,cs),
(306,269,o),
(339,253,o),
(449,253,cs),
(474,253,o),
(501,253,o),
(533,255,c)
);
},
{
closed = 1;
nodes = (
(499,329,l),
(501,317,o),
(502,306,o),
(502,294,cs),
(502,222,o),
(483,187,o),
(387,187,cs),
(297,187,o),
(233,229,o),
(233,329,cs),
(233,438,o),
(307,478,o),
(394,478,cs),
(434,478,o),
(484,473,o),
(526,473,cs),
(612,473,o),
(658,514,o),
(658,581,cs),
(658,680,o),
(581,730,o),
(441,730,cs),
(183,730,o),
(15,565,o),
(15,331,cs),
(15,124,o),
(130,-11,o),
(371,-11,cs),
(590,-11,o),
(682,87,o),
(682,185,cs),
(682,227,o),
(666,257,o),
(626,279,c)
);
}
);
width = 713;
},
{
anchors = (
{
name = bottom;
pos = (217,0);
},
{
name = top;
pos = (217,730);
}
);
layerId = "D96CDDDD-AAEE-4FD8-A377-74226937908C";
shapes = (
{
closed = 1;
nodes = (
(409,288,l),
(458,295,o),
(479,317,o),
(479,350,cs),
(479,392,o),
(445,406,o),
(385,406,cs),
(341,406,o),
(293,397,o),
(258,380,cs),
(230,367,o),
(216,347,o),
(216,325,cs),
(216,292,o),
(231,276,o),
(269,276,cs),
(289,276,o),
(312,277,o),
(338,282,c)
);
},
{
closed = 1;
nodes = (
(321,292,l),
(333,259,o),
(339,223,o),
(339,200,cs),
(339,141,o),
(324,112,o),
(282,112,cs),
(209,112,o),
(158,177,o),
(158,329,cs),
(158,520,o),
(225,591,o),
(304,591,cs),
(336,591,o),
(356,586,o),
(376,586,cs),
(418,586,o),
(441,606,o),
(441,641,cs),
(441,689,o),
(398,730,o),
(321,730,cs),
(149,730,o),
(38,565,o),
(38,331,cs),
(38,124,o),
(114,-11,o),
(274,-11,cs),
(403,-11,o),
(457,80,o),
(457,170,cs),
(457,208,o),
(443,257,o),
(409,302,c)
);
}
);
width = 495.5;
},
{
anchors = (
{
name = bottom;
pos = (378,0);
},
{
name = top;
pos = (378,730);
}
);
layerId = "1C59D977-65E2-41C6-912A-276E7E987498";
shapes = (
{
closed = 1;
nodes = (
(611,284,l),
(679,291,o),
(707,315,o),
(707,349,cs),
(707,391,o),
(649,404,o),
(550,404,cs),
(474,404,o),
(395,390,o),
(359,374,cs),
(329,360,o),
(314,341,o),
(314,319,cs),
(314,284,o),
(338,272,o),
(427,272,cs),
(461,272,o),
(497,273,o),
(541,278,c)
);
},
{
closed = 1;
nodes = (
(524,303,l),
(536,270,o),
(542,234,o),
(542,211,cs),
(542,149,o),
(508,120,o),
(410,120,cs),
(273,120,o),
(177,182,o),
(177,329,cs),
(177,515,o),
(291,583,o),
(424,583,cs),
(499,583,o),
(545,556,o),
(590,556,cs),
(637,556,o),
(662,578,o),
(662,615,cs),
(662,676,o),
(586,730,o),
(449,730,cs),
(206,730,o),
(49,565,o),
(49,331,cs),
(49,124,o),
(162,-11,o),
(397,-11,cs),
(585,-11,o),
(663,80,o),
(663,170,cs),
(663,206,o),
(650,254,o),
(615,298,c)
);
}
);
width = 724.25;
}
);
metricLeft = O;
unicode = 71;
},
{
glyphname = H;
lastChange = "2021-08-24 19:56:06 +0000";
layers = (
{
anchors = (
{
name = bottom;
pos = (292,0);
},
{
name = center;
pos = (292,365);
},
{
name = top;
pos = (292,730);
},
{
name = topleft;
pos = (0,730);
}
);
layerId = m004;
shapes = (
{
closed = 1;
nodes = (
(102,735,o),
(69,689,o),
(52,614,cs),
(35,541,o),
(25,435,o),
(25,327,cs),
(25,239,o),
(30,155,o),
(40,102,cs),
(56,20,o),
(90,-8,o),
(149,-8,cs),
(214,-8,o),
(256,32,o),
(256,122,cs),
(256,193,o),
(237,264,o),
(208,331,c),
(191,305,l),
(245,285,o),
(303,284,o),
(355,305,c),
(319,328,l),
(301,263,o),
(290,195,o),
(290,134,cs),
(290,36,o),
(318,-5,o),
(389,-5,cs),
(463,-5,o),
(494,34,o),
(509,123,cs),
(522,201,o),
(528,295,o),
(528,383,cs),
(528,471,o),
(520,565,o),
(507,625,cs),
(491,702,o),
(459,741,o),
(393,741,cs),
(331,741,o),
(299,701,o),
(299,624,cs),
(299,573,o),
(305,503,o),
(318,436,c),
(351,438,l),
(303,463,o),
(240,465,o),
(184,442,c),
(215,429,l),
(240,492,o),
(254,567,o),
(254,622,cs),
(254,697,o),
(223,735,o),
(168,735,cs)
);
}
);
width = 553;
},
{
anchors = (
{
name = bottom;
pos = (332,0);
},
{
name = center;
pos = (332,365);
},
{
name = top;
pos = (332,730);
},
{
name = topleft;
pos = (40,730);
}
);
layerId = "4BA625B0-8927-4B2E-B2D8-0167ED5E0445";
shapes = (
{
closed = 1;
nodes = (
(108,735,o),
(69,689,o),
(52,614,cs),
(35,541,o),
(25,435,o),
(25,327,cs),
(25,239,o),
(30,155,o),
(40,102,cs),
(56,20,o),
(98,-8,o),
(164,-8,cs),
(244,-8,o),
(295,32,o),
(295,122,cs),
(295,193,o),
(273,264,o),
(238,331,c),
(221,305,l),
(297,285,o),
(379,284,o),
(450,305,c),
(414,328,l),
(390,263,o),
(376,195,o),
(376,134,cs),
(376,36,o),
(412,-5,o),
(499,-5,cs),
(582,-5,o),
(619,34,o),
(634,123,cs),
(647,201,o),
(653,295,o),
(653,383,cs),
(653,471,o),
(645,565,o),
(632,625,cs),
(616,702,o),
(578,741,o),
(503,741,cs),
(425,741,o),
(385,701,o),
(385,624,cs),
(385,573,o),
(394,503,o),
(413,436,c),
(446,438,l),
(379,463,o),
(292,465,o),
(214,442,c),
(245,429,l),
(276,492,o),
(293,567,o),
(293,622,cs),
(293,697,o),
(253,735,o),
(183,735,cs)
);
}
);
width = 678;
},
{
anchors = (
{
name = bottom;
pos = (271,0);
},
{
name = center;
pos = (271,365);
},
{
name = top;
pos = (271,730);
},
{
name = topleft;
pos = (-21,730);
}
);
layerId = "D96CDDDD-AAEE-4FD8-A377-74226937908C";
shapes = (
{
closed = 1;
nodes = (
(119,735,o),
(97,707,o),
(84,644,cs),
(67,564,o),
(55,446,o),
(55,327,cs),
(55,227,o),
(62,132,o),
(72,72,cs),
(84,11,o),
(104,-8,o),
(143,-8,cs),
(186,-8,o),
(210,19,o),
(210,92,cs),
(210,184,o),
(182,277,o),
(157,364,c),
(155,330,l),
(226,310,o),
(302,309,o),
(370,330,c),
(349,361,l),
(328,275,o),
(316,185,o),
(316,104,cs),
(316,20,o),
(333,-5,o),
(376,-5,cs),
(421,-5,o),
(445,23,o),
(457,93,cs),
(472,180,o),
(476,285,o),
(476,383,cs),
(476,482,o),
(466,581,o),
(452,648,cs),
(438,712,o),
(417,741,o),
(378,741,cs),
(341,741,o),
(325,716,o),
(325,654,cs),
(325,586,o),
(332,493,o),
(348,404,c),
(366,413,l),
(302,438,o),
(222,440,o),
(148,417,c),
(164,397,l),
(195,480,o),
(212,579,o),
(212,652,cs),
(212,710,o),
(193,735,o),
(159,735,cs)
);
}
);
width = 530.5;
},
{
anchors = (
{
name = bottom;
pos = (336,0);
},
{
name = center;
pos = (336,365);
},
{
name = top;
pos = (336,730);
},
{
name = topleft;
pos = (44,730);
}
);
layerId = "1C59D977-65E2-41C6-912A-276E7E987498";
shapes = (
{
closed = 1;
nodes = (
(132,735,o),
(108,707,o),
(95,644,cs),
(78,564,o),
(66,446,o),
(66,327,cs),
(66,227,o),
(73,132,o),
(84,72,cs),
(95,11,o),
(118,-8,o),
(158,-8,cs),
(205,-8,o),
(231,19,o),
(231,92,cs),
(231,184,o),
(202,277,o),
(176,364,c),
(174,330,l),
(278,310,o),
(391,309,o),
(493,330,c),
(472,361,l),
(449,275,o),
(436,185,o),
(436,104,cs),
(436,20,o),
(455,-5,o),
(503,-5,cs),
(550,-5,o),
(575,23,o),
(587,93,cs),
(602,180,o),
(606,285,o),
(606,383,cs),
(606,482,o),
(596,581,o),
(582,648,cs),
(568,712,o),
(546,741,o),
(504,741,cs),
(463,741,o),
(445,716,o),
(445,654,cs),
(445,586,o),
(453,493,o),
(471,404,c),
(489,413,l),
(395,438,o),
(274,440,o),
(167,417,c),
(183,397,l),
(215,480,o),
(233,579,o),
(233,652,cs),
(233,710,o),
(212,735,o),
(174,735,cs)
);
}
);
width = 672;
}
);
metricRight = "=|";
unicode = 72;
},
{
glyphname = I;
lastChange = "2021-08-24 15:07:39 +0000";
layers = (
{
anchors = (
{
name = bottom;
pos = (149,0);
},
{
name = ogonek;
pos = (276,10);
},
{
name = top;
pos = (149,716);
},
{
name = topleft;
pos = (10,730);
}
);
layerId = m004;
shapes = (
{
closed = 1;
nodes = (
(97,725,o),
(64,689,o),
(46,600,cs),
(33,537,o),
(25,435,o),
(25,327,cs),
(25,247,o),
(30,174,o),
(36,136,cs),
(52,44,o),
(90,12,o),
(144,12,cs),
(202,12,o),
(240,53,o),
(258,161,cs),
(268,223,o),
(273,296,o),
(273,377,cs),
(273,465,o),
(267,555,o),
(258,605,cs),
(241,695,o),
(208,725,o),
(153,725,cs)
);
}
);
width = 298;
},
{
anchors = (
{
name = bottom;
pos = (164,0);
},
{
name = ogonek;
pos = (291,10);
},
{
name = top;
pos = (164,716);
},
{
name = topleft;
pos = (25,730);
}
);
layerId = "4BA625B0-8927-4B2E-B2D8-0167ED5E0445";
shapes = (
{
closed = 1;
nodes = (
(105,725,o),
(64,689,o),
(46,600,cs),
(33,537,o),
(25,435,o),
(25,327,cs),
(25,247,o),
(30,174,o),
(36,136,cs),
(52,44,o),
(98,12,o),
(159,12,cs),
(225,12,o),
(270,53,o),
(288,161,cs),
(298,223,o),
(303,296,o),
(303,377,cs),
(303,465,o),
(297,555,o),
(288,605,cs),
(271,695,o),
(231,725,o),
(168,725,cs)
);
}
);
width = 328;
},
{
anchors = (
{
name = bottom;
pos = (134,0);
},
{
name = ogonek;
pos = (261,10);
},
{
name = top;
pos = (134,716);
},
{
name = topleft;
pos = (-5,730);
}
);
layerId = "D96CDDDD-AAEE-4FD8-A377-74226937908C";
shapes = (
{
closed = 1;
nodes = (
(104,725,o),
(89,698,o),
(77,638,cs),
(63,567,o),
(55,458,o),
(55,327,cs),
(55,232,o),
(60,143,o),
(68,91,cs),
(76,34,o),
(92,12,o),
(129,12,cs),
(165,12,o),
(185,38,o),
(197,116,cs),
(207,192,o),
(213,281,o),
(213,377,cs),
(213,488,o),
(207,586,o),
(197,643,cs),
(187,699,o),
(171,725,o),
(138,725,cs)
);
}
);
width = 268;
},
{
anchors = (
{
name = bottom;
pos = (149,0);
},
{
name = ogonek;
pos = (276,10);
},
{
name = top;
pos = (149,716);
},
{
name = topleft;
pos = (10,730);
}
);
layerId = "1C59D977-65E2-41C6-912A-276E7E987498";
shapes = (
{
closed = 1;
nodes = (
(117,725,o),
(100,698,o),
(88,638,cs),
(74,567,o),
(66,458,o),
(66,327,cs),
(66,232,o),
(71,143,o),
(79,91,cs),
(87,34,o),
(106,12,o),
(144,12,cs),
(182,12,o),
(204,38,o),
(215,116,cs),
(226,192,o),
(232,281,o),
(232,377,cs),
(232,488,o),
(226,586,o),
(216,643,cs),
(206,699,o),
(188,725,o),
(153,725,cs)
);
}
);
width = 298;
}
);
metricLeft = H;
metricRight = "=|H";
unicode = 73;
},
{
glyphname = J;
lastChange = "2021-08-24 15:56:37 +0000";
layers = (
{
anchors = (
{
name = bottom;
pos = (206,0);
},
{
name = top;
pos = (206,730);
}
);
layerId = m004;
shapes = (
{
closed = 1;
nodes = (
(350,543,l),
(361,542,o),
(371,541,o),
(380,541,cs),
(447,541,o),
(476,572,o),
(476,623,cs),
(476,663,o),
(457,690,o),
(421,710,cs),
(391,727,o),
(347,737,o),
(290,737,cs),
(219,737,o),
(163,720,o),
(122,697,cs),
(78,672,o),
(55,633,o),
(55,591,cs),
(55,539,o),
(85,513,o),
(138,513,cs),
(165,513,o),
(199,519,o),
(236,531,c)
);
},
{
closed = 1;
nodes = (
(221,530,l),
(249,447,o),
(261,369,o),
(261,286,cs),
(261,224,o),
(252,187,o),
(230,187,cs),
(217,187,o),
(209,204,o),
(209,243,cs),
(209,267,o),
(215,297,o),
(215,321,cs),
(215,375,o),
(187,411,o),
(136,411,cs),
(65,411,o),
(5,344,o),
(5,221,cs),
(5,72,o),
(77,-11,o),
(221,-11,cs),
(377,-11,o),
(447,115,o),
(447,255,cs),
(447,372,o),
(415,487,o),
(361,569,c)
);
}
);
width = 481;
},
{
anchors = (
{
name = bottom;
pos = (326,0);
},
{
name = top;
pos = (326,730);
}
);
layerId = "4BA625B0-8927-4B2E-B2D8-0167ED5E0445";
shapes = (
{
closed = 1;
nodes = (
(470,513,l),
(481,512,o),
(491,511,o),
(500,511,cs),
(578,511,o),
(611,548,o),
(611,608,cs),
(611,650,o),
(594,684,o),
(556,706,cs),
(523,727,o),
(473,737,o),
(410,737,cs),
(320,737,o),
(247,720,o),
(197,693,cs),
(144,662,o),
(115,620,o),
(115,576,cs),
(115,514,o),
(156,483,o),
(228,483,cs),
(260,483,o),
(298,489,o),
(341,501,c)
);
},
{
closed = 1;
nodes = (
(311,515,l),
(339,447,o),
(351,384,o),
(351,316,cs),
(351,236,o),
(335,187,o),
(290,187,cs),
(258,187,o),
(239,209,o),
(239,258,cs),
(239,278,o),
(245,302,o),
(245,321,cs),
(245,375,o),
(213,411,o),
(151,411,cs),
(73,411,o),
(5,344,o),
(5,221,cs),
(5,72,o),
(92,-11,o),
(266,-11,cs),
(473,-11,o),
(567,129,o),
(567,285,cs),
(567,386,o),
(535,484,o),
(481,554,c)
);
}
);
width = 616;
},
{
anchors = (
{
name = bottom;
pos = (180,0);
},
{
name = top;
pos = (180,730);
}
);
layerId = "D96CDDDD-AAEE-4FD8-A377-74226937908C";
shapes = (
{
closed = 1;
nodes = (
(286,614,l),
(303,611,o),
(319,610,o),
(333,610,cs),
(383,610,o),
(405,631,o),
(405,664,cs),
(405,689,o),
(391,708,o),
(360,721,cs),
(336,732,o),
(305,737,o),
(264,737,cs),
(198,737,o),
(149,725,o),
(116,708,cs),
(76,688,o),
(59,661,o),
(59,632,cs),
(59,601,o),
(81,584,o),
(119,584,cs),
(145,584,o),
(175,590,o),
(210,602,c)
);
},
{
closed = 1;
nodes = (
(195,613,l),
(239,498,o),
(257,393,o),
(257,279,cs),
(257,180,o),
(240,120,o),
(196,120,cs),
(165,120,o),
(151,147,o),
(151,211,cs),
(151,257,o),
(166,309,o),
(166,352,cs),
(166,389,o),
(149,411,o),
(117,411,cs),
(63,411,o),
(16,339,o),
(16,214,cs),
(16,74,o),
(76,-11,o),
(195,-11,cs),
(331,-11,o),
(383,109,o),
(383,270,cs),
(383,413,o),
(343,552,o),
(275,652,c)
);
}
);
width = 421;
},
{
anchors = (
{
name = bottom;
pos = (340,0);
},
{
name = top;
pos = (340,730);
}
);
layerId = "1C59D977-65E2-41C6-912A-276E7E987498";
shapes = (
{
closed = 1;
nodes = (
(446,606,l),
(483,599,o),
(517,595,o),
(549,595,cs),
(602,595,o),
(625,618,o),
(625,652,cs),
(625,679,o),
(611,699,o),
(573,715,cs),
(543,727,o),
(492,737,o),
(424,737,cs),
(322,737,o),
(246,719,o),
(197,695,cs),
(155,673,o),
(136,646,o),
(136,617,cs),
(136,582,o),
(161,565,o),
(204,565,cs),
(250,565,o),
(303,575,o),
(366,594,c)
);
},
{
closed = 1;
nodes = (
(347,609,l),
(391,514,o),
(410,426,o),
(410,331,cs),
(410,200,o),
(373,120,o),
(274,120,cs),
(197,120,o),
(165,159,o),
(165,248,cs),
(165,283,o),
(180,321,o),
(180,352,cs),
(180,389,o),
(161,411,o),
(127,411,cs),
(71,411,o),
(22,347,o),
(22,236,cs),
(22,83,o),
(104,-11,o),
(268,-11,cs),
(466,-11,o),
(543,131,o),
(543,323,cs),
(543,445,o),
(503,563,o),
(435,648,c)
);
}
);
width = 647;
}
);
metricLeft = T;
metricRight = T;
unicode = 74;
},
{
glyphname = K;
lastChange = "2021-08-24 15:44:48 +0000";
layers = (
{
anchors = (
{
name = bottom;
pos = (269,0);
},
{
name = top;
pos = (269,730);
}
);
background = {
shapes = (
{
closed = 1;
nodes = (
(84,718,o),
(60,683,o),
(46,608,cs),
(30,525,o),
(25,411,o),
(25,297,cs),
(25,190,o),
(34,90,o),
(46,50,cs),
(58,10,o),
(78,-10,o),
(117,-10,cs),
(171,-10,o),
(199,23,o),
(212,77,cs),
(221,114,o),
(230,209,o),
(212,291,c),
(205,294,l),
(262,71,o),
(314,1,o),
(386,1,cs),
(441,1,o),
(474,38,o),
(474,94,cs),
(474,198,o),
(411,288,o),
(287,395,c),
(279,369,l),
(426,465,o),
(494,542,o),
(494,636,cs),
(494,690,o),
(464,732,o),
(411,732,cs),
(351,732,o),
(288,672,o),
(213,453,c),
(223,464,l),
(253,655,o),
(219,718,o),
(140,718,cs)
);
}
);
};
layerId = m004;
shapes = (
{
closed = 1;
nodes = (
(171,-10,o),
(199,23,o),
(212,77,cs),
(217,98,o),
(222,138,o),
(222,184,cs),
(222,203,o),
(221,223,o),
(220,244,c),
(223,244,l),
(266,61,o),
(322,1,o),
(386,1,cs),
(441,1,o),
(474,38,o),
(474,94,cs),
(474,198,o),
(411,288,o),
(287,395,c),
(279,369,l),
(426,465,o),
(494,542,o),
(494,636,cs),
(494,690,o),
(464,732,o),
(411,732,cs),
(356,732,o),
(289,677,o),
(232,485,c),
(229,485,l),
(232,521,o),
(234,553,o),
(234,581,cs),
(234,682,o),
(200,718,o),
(140,718,cs),
(84,718,o),
(60,683,o),
(46,608,cs),
(30,525,o),
(25,411,o),
(25,297,cs),
(25,190,o),
(34,90,o),
(46,50,cs),
(58,10,o),
(78,-10,o),
(117,-10,cs)
);
}
);
width = 499;
},
{
anchors = (
{
name = bottom;
pos = (299,0);
},
{
name = top;
pos = (299,730);
}
);
background = {
shapes = (
{
closed = 1;
nodes = (
(90,718,o),
(60,683,o),
(46,608,cs),
(30,525,o),
(25,411,o),
(25,297,cs),
(25,190,o),
(34,90,o),
(46,50,cs),
(58,10,o),
(86,-10,o),
(132,-10,cs),
(195,-10,o),
(229,23,o),
(242,77,cs),
(251,114,o),
(260,209,o),
(257,291,c),
(250,294,l),
(325,71,o),
(395,1,o),
(491,1,cs),
(566,1,o),
(609,44,o),
(609,109,cs),
(609,209,o),
(542,294,o),
(392,395,c),
(384,369,l),
(557,459,o),
(629,533,o),
(629,621,cs),
(629,684,o),
(593,732,o),
(531,732,cs),
(449,732,o),
(363,672,o),
(243,453,c),
(268,479,l),
(283,655,o),
(245,718,o),
(155,718,cs)
);
}
);
};
layerId = "4BA625B0-8927-4B2E-B2D8-0167ED5E0445";
shapes = (
{
closed = 1;
nodes = (
(195,-10,o),
(229,23,o),
(242,77,cs),
(249,106,o),
(258,181,o),
(258,238,cs),
(259,255,o),
(258,273,o),
(257,291,c),
(261,291,l),
(317,77,o),
(395,1,o),
(491,1,cs),
(566,1,o),
(609,44,o),
(609,109,cs),
(609,209,o),
(542,294,o),
(392,395,c),
(384,369,l),
(557,459,o),
(629,533,o),
(629,621,cs),
(629,684,o),
(593,732,o),
(531,732,cs),
(455,732,o),
(362,676,o),
(272,479,c),
(268,479,l),
(270,504,o),
(271,527,o),
(271,547,cs),
(271,672,o),
(232,718,o),
(155,718,cs),
(90,718,o),
(60,683,o),
(46,608,cs),
(30,525,o),
(25,411,o),
(25,297,cs),
(25,190,o),
(34,90,o),
(46,50,cs),
(58,10,o),
(86,-10,o),
(132,-10,cs)
);
}
);
width = 634;
},
{
anchors = (
{
name = bottom;
pos = (277,0);
},
{
name = top;
pos = (277,730);
}
);
background = {
shapes = (
{
closed = 1;
nodes = (
(104,718,o),
(87,690,o),
(77,631,cs),
(62,542,o),
(55,419,o),
(55,297,cs),
(55,183,o),
(63,85,o),
(74,43,cs),
(83,6,o),
(95,-10,o),
(117,-10,cs),
(150,-10,o),
(166,12,o),
(175,47,cs),
(187,101,o),
(193,214,o),
(178,317,c),
(173,318,l),
(258,77,o),
(313,1,o),
(364,1,cs),
(401,1,o),
(422,23,o),
(422,57,cs),
(422,136,o),
(356,238,o),
(232,372,c),
(224,353,l),
(375,498,o),
(442,599,o),
(442,674,cs),
(442,707,o),
(423,732,o),
(389,732,cs),
(341,732,o),
(277,648,o),
(176,408,c),
(182,397,l),
(216,663,o),
(187,718,o),
(140,718,cs)
);
}
);
};
layerId = "D96CDDDD-AAEE-4FD8-A377-74226937908C";
shapes = (
{
closed = 1;
nodes = (
(150,-10,o),
(166,12,o),
(175,47,cs),
(182,77,o),
(187,126,o),
(187,182,cs),
(187,215,o),
(185,250,o),
(181,285,c),
(185,285,l),
(263,70,o),
(315,1,o),
(364,1,cs),
(401,1,o),
(422,23,o),
(422,57,cs),
(422,136,o),
(356,238,o),
(232,372,c),
(224,353,l),
(375,498,o),
(442,599,o),
(442,674,cs),
(442,707,o),
(423,732,o),
(389,732,cs),
(344,732,o),
(284,658,o),
(191,442,c),
(187,442,l),
(194,502,o),
(197,549,o),
(197,586,cs),
(197,692,o),
(173,718,o),
(140,718,cs),
(104,718,o),
(87,690,o),
(77,631,cs),
(62,542,o),
(55,419,o),
(55,297,cs),
(55,183,o),
(63,85,o),
(74,43,cs),
(83,6,o),
(95,-10,o),
(117,-10,cs)
);
}
);
width = 465.25;
},
{
anchors = (
{
name = bottom;
pos = (295,0);
},
{
name = top;
pos = (295,730);
}
);
background = {
shapes = (
{
closed = 1;
nodes = (
(117,718,o),
(98,690,o),
(88,631,cs),
(73,542,o),
(66,419,o),
(66,297,cs),
(66,183,o),
(75,85,o),
(85,43,cs),
(94,6,o),
(108,-10,o),
(132,-10,cs),
(167,-10,o),
(185,12,o),
(193,47,cs),
(206,101,o),
(211,214,o),
(201,317,c),
(195,318,l),
(339,77,o),
(432,1,o),
(514,1,cs),
(556,1,o),
(579,25,o),
(579,60,cs),
(579,139,o),
(469,239,o),
(259,372,c),
(251,353,l),
(495,497,o),
(599,597,o),
(599,670,cs),
(599,705,o),
(579,732,o),
(542,732,cs),
(469,732,o),
(365,648,o),
(194,408,c),
(204,400,l),
(234,663,o),
(205,718,o),
(155,718,cs)
);
}
);
};
layerId = "1C59D977-65E2-41C6-912A-276E7E987498";
shapes = (
{
closed = 1;
nodes = (
(167,-10,o),
(185,12,o),
(193,47,cs),
(201,81,o),
(206,139,o),
(206,204,cs),
(206,236,o),
(205,269,o),
(202,300,c),
(206,300,l),
(344,73,o),
(434,1,o),
(514,1,cs),
(556,1,o),
(579,25,o),
(579,60,cs),
(579,139,o),
(469,239,o),
(259,372,c),
(251,353,l),
(495,497,o),
(599,597,o),
(599,670,cs),
(599,705,o),
(579,732,o),
(542,732,cs),
(471,732,o),
(372,653,o),
(212,433,c),
(208,433,l),
(213,490,o),
(216,537,o),
(216,575,cs),
(216,689,o),
(191,718,o),
(155,718,cs),
(117,718,o),
(98,690,o),
(88,631,cs),
(73,542,o),
(66,419,o),
(66,297,cs),
(66,183,o),
(75,85,o),
(85,43,cs),
(94,6,o),
(108,-10,o),
(132,-10,cs)
);
}
);
width = 622.75;
}
);
metricLeft = H;
unicode = 75;
},
{
glyphname = L;
lastChange = "2021-08-24 15:07:39 +0000";
layers = (
{
anchors = (
{
name = bottom;
pos = (231,0);
},
{
name = center;
pos = (231,365);
},
{
name = top;
pos = (231,730);
},
{
name = topright;
pos = (461,730);
}
);
background = {
shapes = (
{
closed = 1;
nodes = (
(214,736,o),
(111,712,o),
(62,645,cs),
(28,599,o),
(5,514,o),
(5,323,cs),
(5,188,o),
(16,118,o),
(44,70,cs),
(73,20,o),
(119,-6,o),
(219,-6,cs),
(290,-6,o),
(371,7,o),
(416,29,cs),
(459,50,o),
(476,84,o),
(476,132,cs),
(476,208,o),
(435,239,o),
(350,239,cs),
(295,239,o),
(224,229,o),
(178,214,c),
(183,199,l),
(205,233,o),
(205,289,o),
(188,323,c),
(172,293,l),
(224,285,o),
(276,283,o),
(329,286,cs),
(417,291,o),
(453,324,o),
(453,376,cs),
(453,424,o),
(422,461,o),
(336,461,cs),
(285,461,o),
(214,454,o),
(175,445,c),
(191,436,l),
(198,475,o),
(198,514,o),
(189,541,c),
(179,508,l),
(228,503,o),
(275,501,o),
(311,501,cs),
(425,501,o),
(478,541,o),
(478,629,cs),
(478,695,o),
(448,736,o),
(338,736,cs)
);
}
);
};
layerId = m004;
shapes = (
{
closed = 1;
nodes = (
(253,-6,o),
(294,5,o),
(323,20,cs),
(376,48,o),
(406,93,o),
(406,154,cs),
(406,218,o),
(372,255,o),
(312,255,cs),
(270,255,o),
(226,231,o),
(198,184,c),
(205,189,l),
(242,288,o),
(268,412,o),
(268,527,cs),
(268,636,o),
(240,725,o),
(153,725,cs),
(97,725,o),
(64,689,o),
(46,600,cs),
(35,544,o),
(25,434,o),
(25,323,cs),
(25,188,o),
(36,118,o),
(64,70,cs),
(92,21,o),
(134,-6,o),
(214,-6,cs)
);
}
);
width = 411;
},
{
anchors = (
{
name = bottom;
pos = (261,0);
},
{
name = center;
pos = (261,365);
},
{
name = top;
pos = (261,730);
},
{
name = topright;
pos = (491,730);
}
);
layerId = "4BA625B0-8927-4B2E-B2D8-0167ED5E0445";
shapes = (
{
closed = 1;
nodes = (
(315,-6,o),
(393,11,o),
(443,38,cs),
(502,69,o),
(541,131,o),
(541,199,cs),
(541,272,o),
(497,315,o),
(417,315,cs),
(342,315,o),
(264,281,o),
(213,214,c),
(235,219,l),
(272,305,o),
(298,412,o),
(298,512,cs),
(298,629,o),
(267,725,o),
(168,725,cs),
(105,725,o),
(64,689,o),
(46,600,cs),
(35,544,o),
(25,434,o),
(25,323,cs),
(25,188,o),
(36,118,o),
(64,70,cs),
(94,18,o),
(148,-6,o),
(244,-6,cs)
);
}
);
width = 546;
},
{
anchors = (
{
name = bottom;
pos = (239,0);
},
{
name = center;
pos = (239,365);
},
{
name = top;
pos = (239,730);
},
{
name = topright;
pos = (469,730);
}
);
layerId = "D96CDDDD-AAEE-4FD8-A377-74226937908C";
shapes = (
{
closed = 1;
nodes = (
(237,-6,o),
(285,7,o),
(316,22,cs),
(361,43,o),
(384,74,o),
(384,109,cs),
(384,147,o),
(364,169,o),
(325,169,cs),
(278,169,o),
(204,140,o),
(148,94,c),
(162,77,l),
(186,220,o),
(201,398,o),
(201,565,cs),
(201,653,o),
(185,725,o),
(138,725,cs),
(102,725,o),
(80,698,o),
(69,630,cs),
(59,576,o),
(55,469,o),
(55,361,cs),
(55,206,o),
(66,122,o),
(88,69,cs),
(109,17,o),
(139,-6,o),
(199,-6,cs)
);
}
);
width = 399.75;
},
{
anchors = (
{
name = bottom;
pos = (257,0);
},
{
name = center;
pos = (257,365);
},
{
name = top;
pos = (257,730);
},
{
name = topright;
pos = (487,730);
}
);
layerId = "1C59D977-65E2-41C6-912A-276E7E987498";
shapes = (
{
closed = 1;
nodes = (
(303,-6,o),
(386,13,o),
(436,37,cs),
(496,65,o),
(530,105,o),
(530,143,cs),
(530,180,o),
(507,201,o),
(458,201,cs),
(383,201,o),
(264,163,o),
(174,102,c),
(187,84,l),
(207,224,o),
(219,398,o),
(219,561,cs),
(219,651,o),
(203,725,o),
(153,725,cs),
(115,725,o),
(91,698,o),
(80,630,cs),
(70,576,o),
(66,469,o),
(66,361,cs),
(66,206,o),
(80,111,o),
(99,68,cs),
(125,12,o),
(158,-6,o),
(240,-6,cs)
);
}
);
width = 551.625;
}
);
metricLeft = H;
unicode = 76;
},
{
glyphname = M;
lastChange = "2021-08-24 15:49:19 +0000";
layers = (
{
anchors = (
{
name = bottom;
pos = (308,0);
},
{
name = top;
pos = (308,730);
}
);
background = {
shapes = (
{
closed = 1;
nodes = (
(25,66,o),
(60,19,o),
(135,19,cs),
(219,19,o),
(244,92,o),
(244,184,cs),
(244,259,o),
(218,386,o),
(209,479,c),
(211,479,l),
(240,304,o),
(265,265,o),
(301,265,cs),
(341,265,o),
(374,322,o),
(401,467,c),
(403,467,l),
(387,363,o),
(361,243,o),
(361,148,cs),
(361,25,o),
(402,-8,o),
(466,-8,cs),
(542,-8,o),
(591,42,o),
(591,179,cs),
(591,310,o),
(575,485,o),
(549,595,cs),
(528,686,o),
(501,738,o),
(442,738,cs),
(383,738,o),
(342,658,o),
(300,441,c),
(313,446,l),
(267,655,o),
(223,719,o),
(162,719,cs),
(105,719,o),
(76,676,o),
(57,564,cs),
(40,464,o),
(25,284,o),
(25,185,cs)
);
}
);
};
layerId = m004;
shapes = (
{
closed = 1;
nodes = (
(542,-8,o),
(591,42,o),
(591,179,cs),
(591,310,o),
(575,485,o),
(549,595,cs),
(528,686,o),
(501,738,o),
(442,738,cs),
(387,738,o),
(338,668,o),
(309,433,c),
(305,433,l),
(272,663,o),
(219,719,o),
(162,719,cs),
(105,719,o),
(76,676,o),
(57,564,cs),
(40,464,o),
(25,284,o),
(25,185,cs),
(25,66,o),
(60,19,o),
(135,19,cs),
(219,19,o),
(244,92,o),
(244,184,cs),
(244,259,o),
(218,386,o),
(207,479,c),
(211,479,l),
(240,304,o),
(265,265,o),
(301,265,cs),
(341,265,o),
(374,322,o),
(401,467,c),
(405,467,l),
(389,363,o),
(361,243,o),
(361,148,cs),
(361,25,o),
(402,-8,o),
(466,-8,cs)
);
}
);
width = 616;
},
{
anchors = (
{
name = bottom;
pos = (368,0);
},
{
name = top;
pos = (368,730);
}
);
background = {
shapes = (
{
closed = 1;
nodes = (
(25,66,o),
(65,19,o),
(150,19,cs),
(246,19,o),
(274,92,o),
(274,184,cs),
(274,269,o),
(247,413,o),
(229,519,c),
(233,519,l),
(276,311,o),
(309,265,o),
(361,265,cs),
(417,265,o),
(461,333,o),
(499,507,c),
(503,507,l),
(480,390,o),
(451,255,o),
(451,148,cs),
(451,25,o),
(498,-8,o),
(571,-8,cs),
(656,-8,o),
(711,42,o),
(711,179,cs),
(711,310,o),
(695,485,o),
(669,595,cs),
(648,686,o),
(614,738,o),
(547,738,cs),
(488,738,o),
(416,675,o),
(360,501,c),
(373,506,l),
(314,669,o),
(256,719,o),
(177,719,cs),
(113,719,o),
(76,676,o),
(57,564,cs),
(40,464,o),
(25,284,o),
(25,185,cs)
);
}
);
};
layerId = "4BA625B0-8927-4B2E-B2D8-0167ED5E0445";
shapes = (
{
closed = 1;
nodes = (
(656,-8,o),
(711,42,o),
(711,179,cs),
(711,310,o),
(695,485,o),
(669,595,cs),
(648,686,o),
(609,738,o),
(537,738,cs),
(474,738,o),
(411,681,o),
(369,477,c),
(365,477,l),
(321,673,o),
(258,719,o),
(187,719,cs),
(118,719,o),
(76,676,o),
(57,564,cs),
(40,464,o),
(25,284,o),
(25,185,cs),
(25,66,o),
(65,19,o),
(150,19,cs),
(246,19,o),
(274,92,o),
(274,184,cs),
(274,269,o),
(247,413,o),
(229,519,c),
(233,519,l),
(276,311,o),
(309,265,o),
(361,265,cs),
(417,265,o),
(461,333,o),
(499,507,c),
(503,507,l),
(480,390,o),
(451,255,o),
(451,148,cs),
(451,25,o),
(498,-8,o),
(571,-8,cs)
);
}
);
width = 736;
},
{
anchors = (
{
name = bottom;
pos = (308,0);
},
{
name = top;
pos = (308,730);
}
);
background = {
shapes = (
{
closed = 1;
nodes = (
(55,58,o),
(78,19,o),
(128,19,cs),
(183,19,o),
(199,79,o),
(199,154,cs),
(199,266,o),
(191,454,o),
(184,592,c),
(186,592,l),
(220,375,o),
(253,303,o),
(301,303,cs),
(353,303,o),
(396,400,o),
(424,587,c),
(426,587,l),
(416,434,o),
(406,257,o),
(406,118,cs),
(406,19,o),
(433,-8,o),
(474,-8,cs),
(527,-8,o),
(561,34,o),
(561,149,cs),
(561,299,o),
(548,500,o),
(519,625,cs),
(503,697,o),
(485,738,o),
(442,738,cs),
(395,738,o),
(358,646,o),
(300,396,c),
(313,401,l),
(251,644,o),
(213,719,o),
(162,719,cs),
(122,719,o),
(102,684,o),
(87,594,cs),
(68,479,o),
(55,270,o),
(55,155,cs)
);
}
);
};
layerId = "D96CDDDD-AAEE-4FD8-A377-74226937908C";
shapes = (
{
closed = 1;
nodes = (
(527,-8,o),
(561,34,o),
(561,149,cs),
(561,299,o),
(548,500,o),
(519,625,cs),
(503,697,o),
(485,738,o),
(442,738,cs),
(397,738,o),
(362,655,o),
(309,432,c),
(305,432,l),
(248,650,o),
(211,719,o),
(162,719,cs),
(122,719,o),
(102,684,o),
(87,594,cs),
(68,479,o),
(55,270,o),
(55,155,cs),
(55,58,o),
(78,19,o),
(128,19,cs),
(183,19,o),
(199,79,o),
(199,154,cs),
(199,266,o),
(191,454,o),
(182,592,c),
(186,592,l),
(220,375,o),
(253,303,o),
(301,303,cs),
(353,303,o),
(396,400,o),
(424,587,c),
(428,587,l),
(416,434,o),
(406,257,o),
(406,118,cs),
(406,19,o),
(433,-8,o),
(474,-8,cs)
);
}
);
width = 616;
},
{
anchors = (
{
name = bottom;
pos = (368,0);
},
{
name = top;
pos = (368,730);
}
);
background = {
shapes = (
{
closed = 1;
nodes = (
(66,58,o),
(91,19,o),
(143,19,cs),
(201,19,o),
(218,79,o),
(218,154,cs),
(218,268,o),
(210,461,o),
(201,602,c),
(205,602,l),
(260,376,o),
(300,303,o),
(361,303,cs),
(426,303,o),
(478,403,o),
(525,597,c),
(529,597,l),
(518,441,o),
(507,260,o),
(507,118,cs),
(507,19,o),
(536,-8,o),
(579,-8,cs),
(634,-8,o),
(670,34,o),
(670,149,cs),
(670,299,o),
(657,500,o),
(628,625,cs),
(611,697,o),
(592,738,o),
(547,738,cs),
(493,738,o),
(430,650,o),
(360,411,c),
(373,416,l),
(299,647,o),
(239,719,o),
(177,719,cs),
(135,719,o),
(114,684,o),
(98,594,cs),
(79,479,o),
(66,270,o),
(66,155,cs)
);
}
);
};
layerId = "1C59D977-65E2-41C6-912A-276E7E987498";
shapes = (
{
closed = 1;
nodes = (
(634,-8,o),
(670,34,o),
(670,149,cs),
(670,299,o),
(657,500,o),
(628,625,cs),
(611,697,o),
(588,738,o),
(537,738,cs),
(488,738,o),
(432,657,o),
(369,441,c),
(365,441,l),
(298,652,o),
(244,719,o),
(187,719,cs),
(140,719,o),
(114,684,o),
(98,594,cs),
(79,479,o),
(66,270,o),
(66,155,cs),
(66,58,o),
(91,19,o),
(143,19,cs),
(201,19,o),
(218,79,o),
(218,154,cs),
(218,268,o),
(210,461,o),
(201,602,c),
(205,602,l),
(260,376,o),
(300,303,o),
(361,303,cs),
(426,303,o),
(478,403,o),
(525,597,c),
(529,597,l),
(518,441,o),
(507,260,o),
(507,118,cs),
(507,19,o),
(536,-8,o),
(579,-8,cs)
);
}
);
width = 736;
}
);
metricLeft = H;
metricRight = H;
unicode = 77;
},
{
glyphname = N;
lastChange = "2021-08-24 15:07:39 +0000";
layers = (
{
anchors = (
{
name = bottom;
pos = (306,0);
},
{
name = top;
pos = (306,730);
}
);
layerId = m004;
shapes = (
{
closed = 1;
nodes = (
(85,711,o),
(62,642,o),
(46,512,cs),
(32,397,o),
(25,256,o),
(25,163,cs),
(25,47,o),
(56,-7,o),
(138,-7,cs),
(214,-7,o),
(250,41,o),
(250,168,cs),
(250,271,o),
(235,409,o),
(217,508,c),
(221,508,l),
(333,70,o),
(375,10,o),
(480,10,cs),
(566,10,o),
(586,103,o),
(586,313,cs),
(586,471,o),
(575,597,o),
(543,668,cs),
(523,712,o),
(500,738,o),
(456,738,cs),
(396,738,o),
(363,693,o),
(363,590,cs),
(363,515,o),
(377,373,o),
(393,261,c),
(389,261,l),
(299,621,o),
(243,711,o),
(152,711,cs)
);
}
);
width = 611;
},
{
anchors = (
{
name = bottom;
pos = (336,0);
},
{
name = top;
pos = (336,730);
}
);
layerId = "4BA625B0-8927-4B2E-B2D8-0167ED5E0445";
shapes = (
{
closed = 1;
nodes = (
(96,711,o),
(62,642,o),
(46,512,cs),
(32,402,o),
(25,267,o),
(25,178,cs),
(25,52,o),
(61,-7,o),
(153,-7,cs),
(240,-7,o),
(280,46,o),
(280,183,cs),
(280,264,o),
(265,384,o),
(247,448,c),
(251,448,l),
(369,63,o),
(414,10,o),
(525,10,cs),
(623,10,o),
(646,103,o),
(646,313,cs),
(646,471,o),
(635,597,o),
(603,668,cs),
(583,714,o),
(553,738,o),
(501,738,cs),
(432,738,o),
(393,689,o),
(393,575,cs),
(393,517,o),
(407,396,o),
(423,321,c),
(419,321,l),
(329,633,o),
(273,711,o),
(182,711,cs)
);
}
);
width = 671;
},
{
anchors = (
{
name = bottom;
pos = (291,0);
},
{
name = top;
pos = (291,730);
}
);
layerId = "D96CDDDD-AAEE-4FD8-A377-74226937908C";
shapes = (
{
closed = 1;
nodes = (
(107,711,o),
(91,665,o),
(78,557,cs),
(61,425,o),
(55,262,o),
(55,156,cs),
(55,45,o),
(76,-7,o),
(131,-7,cs),
(177,-7,o),
(198,39,o),
(198,161,cs),
(198,289,o),
(188,470,o),
(176,583,c),
(180,583,l),
(269,198,o),
(351,10,o),
(428,10,cs),
(508,10,o),
(526,118,o),
(526,313,cs),
(526,481,o),
(514,616,o),
(483,691,cs),
(470,722,o),
(455,738,o),
(426,738,cs),
(389,738,o),
(371,697,o),
(371,590,cs),
(371,490,o),
(387,294,o),
(404,156,c),
(400,156,l),
(304,522,o),
(226,711,o),
(160,711,cs)
);
}
);
width = 581;
},
{
anchors = (
{
name = bottom;
pos = (344,0);
},
{
name = top;
pos = (344,730);
}
);
layerId = "1C59D977-65E2-41C6-912A-276E7E987498";
shapes = (
{
closed = 1;
nodes = (
(121,711,o),
(102,665,o),
(89,557,cs),
(73,426,o),
(66,265,o),
(66,159,cs),
(66,46,o),
(88,-7,o),
(146,-7,cs),
(198,-7,o),
(222,40,o),
(222,164,cs),
(222,287,o),
(213,464,o),
(199,568,c),
(203,568,l),
(330,197,o),
(423,10,o),
(518,10,cs),
(601,10,o),
(620,118,o),
(620,313,cs),
(620,481,o),
(607,616,o),
(577,691,cs),
(564,722,o),
(547,738,o),
(516,738,cs),
(472,738,o),
(452,696,o),
(452,586,cs),
(452,491,o),
(468,299,o),
(486,171,c),
(482,171,l),
(346,525,o),
(261,711,o),
(178,711,cs)
);
}
);
width = 686;
}
);
metricLeft = H;
metricRight = H;
unicode = 78;
},
{
glyphname = O;
lastChange = "2021-08-24 15:56:21 +0000";
layers = (
{
anchors = (
{
name = bottom;
pos = (281,0);
},
{
name = center;
pos = (281,365);
},
{
name = ogonek;
pos = (561,10);
},
{
name = top;
pos = (281,689);
},
{
name = topleft;
pos = (-50,730);
},
{
name = topright;
pos = (611,730);
}
);
layerId = m004;
shapes = (
{
closed = 1;
nodes = (
(436,7,o),
(546,134,o),
(546,340,cs),
(546,553,o),
(437,698,o),
(271,698,cs),
(115,698,o),
(15,549,o),
(15,329,cs),
(15,130,o),
(113,7,o),
(266,7,cs)
);
},
{
closed = 1;
nodes = (
(256,251,o),
(238,280,o),
(238,386,cs),
(238,492,o),
(256,521,o),
(284,521,cs),
(312,521,o),
(330,492,o),
(330,386,cs),
(330,280,o),
(312,251,o),
(284,251,cs)
);
}
);
width = 561;
},
{
anchors = (
{
name = bottom;
pos = (386,0);
},
{
name = center;
pos = (386,365);
},
{
name = ogonek;
pos = (666,10);
},
{
name = top;
pos = (386,689);
},
{
name = topleft;
pos = (55,730);
},
{
name = topright;
pos = (716,730);
}
);
layerId = "4BA625B0-8927-4B2E-B2D8-0167ED5E0445";
shapes = (
{
closed = 1;
nodes = (
(606,7,o),
(756,134,o),
(756,340,cs),
(756,553,o),
(607,698,o),
(376,698,cs),
(157,698,o),
(15,549,o),
(15,329,cs),
(15,130,o),
(155,7,o),
(373,7,cs)
);
},
{
closed = 1;
nodes = (
(316,281,o),
(268,326,o),
(268,386,cs),
(268,446,o),
(316,491,o),
(389,491,cs),
(462,491,o),
(510,446,o),
(510,386,cs),
(510,326,o),
(462,281,o),
(389,281,cs)
);
}
);
width = 771;
},
{
anchors = (
{
name = bottom;
pos = (259,0);
},
{
name = center;
pos = (259,365);
},
{
name = ogonek;
pos = (539,10);
},
{
name = top;
pos = (259,689);
},
{
name = topleft;
pos = (-73,730);
},
{
name = topright;
pos = (589,730);
}
);
layerId = "D96CDDDD-AAEE-4FD8-A377-74226937908C";
shapes = (
{
closed = 1;
nodes = (
(392,7,o),
(479,134,o),
(479,340,cs),
(479,553,o),
(392,698,o),
(250,698,cs),
(117,698,o),
(38,549,o),
(38,329,cs),
(38,130,o),
(115,7,o),
(246,7,cs)
);
},
{
closed = 1;
nodes = (
(206,146,o),
(177,225,o),
(177,364,cs),
(177,502,o),
(206,581,o),
(260,581,cs),
(314,581,o),
(344,502,o),
(344,364,cs),
(344,225,o),
(314,146,o),
(260,146,cs)
);
}
);
width = 517;
},
{
anchors = (
{
name = bottom;
pos = (375,0);
},
{
name = center;
pos = (375,365);
},
{
name = ogonek;
pos = (655,10);
},
{
name = top;
pos = (375,689);
},
{
name = topleft;
pos = (44,730);
},
{
name = topright;
pos = (705,730);
}
);
layerId = "1C59D977-65E2-41C6-912A-276E7E987498";
shapes = (
{
closed = 1;
nodes = (
(566,7,o),
(700,134,o),
(700,340,cs),
(700,553,o),
(567,698,o),
(366,698,cs),
(176,698,o),
(49,549,o),
(49,329,cs),
(49,130,o),
(174,7,o),
(363,7,cs)
);
},
{
closed = 1;
nodes = (
(270,154,o),
(195,237,o),
(195,364,cs),
(195,490,o),
(270,574,o),
(376,574,cs),
(484,574,o),
(557,490,o),
(557,364,cs),
(557,237,o),
(484,154,o),
(376,154,cs)
);
}
);
width = 748.5;
}
);
metricRight = "=|";
unicode = 79;
},
{
glyphname = P;
lastChange = "2021-08-24 17:48:10 +0000";
layers = (
{
anchors = (
{
name = bottom;
pos = (278,0);
},
{
name = top;
pos = (278,730);
}
);
layerId = m004;
shapes = (
{
closed = 1;
nodes = (
(176,719,o),
(121,669,o),
(85,604,cs),
(46,533,o),
(25,415,o),
(25,247,cs),
(25,60,o),
(50,-7,o),
(141,-7,cs),
(219,-7,o),
(260,44,o),
(260,137,cs),
(260,195,o),
(249,277,o),
(234,322,c),
(210,294,l),
(232,280,o),
(253,275,o),
(272,275,cs),
(375,275,o),
(455,362,o),
(455,498,cs),
(455,630,o),
(396,719,o),
(268,719,cs)
);
},
{
closed = 1;
nodes = (
(230,404,o),
(218,430,o),
(218,466,cs),
(218,531,o),
(245,592,o),
(284,592,cs),
(310,592,o),
(319,564,o),
(319,527,cs),
(319,452,o),
(291,404,o),
(254,404,cs)
);
}
);
width = 465;
},
{
anchors = (
{
name = bottom;
pos = (278,0);
},
{
name = top;
pos = (278,730);
}
);
layerId = "4BA625B0-8927-4B2E-B2D8-0167ED5E0445";
shapes = (
{
closed = 1;
nodes = (
(214,719,o),
(124,675,o),
(85,604,cs),
(46,533,o),
(25,415,o),
(25,247,cs),
(25,60,o),
(53,-7,o),
(156,-7,cs),
(245,-7,o),
(290,44,o),
(290,137,cs),
(290,195,o),
(279,277,o),
(264,322,c),
(255,294,l),
(294,280,o),
(330,275,o),
(362,275,cs),
(491,275,o),
(590,362,o),
(590,498,cs),
(590,630,o),
(512,719,o),
(343,719,cs)
);
},
{
closed = 1;
nodes = (
(264,419,o),
(238,445,o),
(238,481,cs),
(238,531,o),
(280,577,o),
(341,577,cs),
(398,577,o),
(419,549,o),
(419,512,cs),
(419,455,o),
(374,419,o),
(315,419,cs)
);
}
);
width = 600;
},
{
anchors = (
{
name = bottom;
pos = (248,0);
},
{
name = top;
pos = (248,730);
}
);
layerId = "D96CDDDD-AAEE-4FD8-A377-74226937908C";
shapes = (
{
closed = 1;
nodes = (
(191,719,o),
(146,675,o),
(115,619,cs),
(71,539,o),
(55,399,o),
(55,202,cs),
(55,48,o),
(72,-7,o),
(134,-7,cs),
(182,-7,o),
(208,36,o),
(208,115,cs),
(208,179,o),
(197,272,o),
(182,322,c),
(173,309,l),
(203,282,o),
(231,275,o),
(257,275,cs),
(360,275,o),
(440,362,o),
(440,498,cs),
(440,630,o),
(386,719,o),
(268,719,cs)
);
},
{
closed = 1;
nodes = (
(215,389,o),
(199,411,o),
(199,463,cs),
(199,551,o),
(229,615,o),
(277,615,cs),
(313,615,o),
(330,575,o),
(330,522,cs),
(330,436,o),
(297,389,o),
(250,389,cs)
);
}
);
width = 465;
},
{
anchors = (
{
name = bottom;
pos = (293,0);
},
{
name = top;
pos = (293,730);
}
);
layerId = "1C59D977-65E2-41C6-912A-276E7E987498";
shapes = (
{
closed = 1;
nodes = (
(234,719,o),
(160,680,o),
(126,619,cs),
(82,539,o),
(66,399,o),
(66,202,cs),
(66,48,o),
(84,-7,o),
(149,-7,cs),
(200,-7,o),
(226,36,o),
(226,115,cs),
(226,179,o),
(215,272,o),
(200,322,c),
(195,309,l),
(245,282,o),
(293,275,o),
(336,275,cs),
(472,275,o),
(575,362,o),
(575,498,cs),
(575,630,o),
(502,719,o),
(343,719,cs)
);
},
{
closed = 1;
nodes = (
(251,393,o),
(218,415,o),
(218,467,cs),
(218,551,o),
(267,611,o),
(350,611,cs),
(425,611,o),
(459,571,o),
(459,518,cs),
(459,437,o),
(404,393,o),
(324,393,cs)
);
}
);
width = 600;
}
);
metricLeft = H;
unicode = 80;
},
{
glyphname = Q;
lastChange = "2021-08-24 15:07:39 +0000";
layers = (
{
anchors = (
{
name = bottom;
pos = (276,0);
},
{
name = top;
pos = (276,730);
}
);
background = {
shapes = (
{
closed = 1;
nodes = (
(469,7,o),
(606,134,o),
(606,340,cs),
(606,553,o),
(470,698,o),
(261,698,cs),
(63,698,o),
(-65,549,o),
(-65,329,cs),
(-65,130,o),
(61,7,o),
(257,7,cs)
);
},
{
closed = 1;
nodes = (
(216,271,o),
(178,316,o),
(178,386,cs),
(178,456,o),
(216,501,o),
(274,501,cs),
(332,501,o),
(370,456,o),
(370,386,cs),
(370,316,o),
(332,271,o),
(274,271,cs)
);
}
);
};
layerId = m004;
shapes = (
{
closed = 1;
nodes = (
(337,7,o),
(398,33,o),
(425,86,c),
(474,142,l),
(513,195,o),
(536,281,o),
(536,380,cs),
(536,579,o),
(436,726,o),
(281,726,cs),
(120,726,o),
(15,579,o),
(15,337,cs),
(15,123,o),
(112,7,o),
(271,7,cs)
);
},
{
closed = 1;
nodes = (
(545,-18,o),
(574,19,o),
(574,60,cs),
(574,116,o),
(538,149,o),
(477,168,c),
(390,83,l),
(416,18,o),
(456,-18,o),
(493,-18,cs)
);
},
{
closed = 1;
nodes = (
(342,256,l),
(319,320,o),
(301,336,o),
(284,336,cs),
(270,336,o),
(259,326,o),
(259,308,cs),
(259,285,o),
(275,252,o),
(309,213,c)
);
},
{
closed = 1;
nodes = (
(247,231,o),
(218,296,o),
(218,396,cs),
(218,494,o),
(239,541,o),
(271,541,cs),
(309,541,o),
(334,476,o),
(334,376,cs),
(334,333,o),
(330,296,o),
(324,268,c),
(321,240,l),
(313,234,o),
(302,231,o),
(291,231,cs)
);
}
);
width = 551;
},
{
anchors = (
{
name = bottom;
pos = (381,0);
},
{
name = top;
pos = (381,730);
}
);
layerId = "4BA625B0-8927-4B2E-B2D8-0167ED5E0445";
shapes = (
{
closed = 1;
nodes = (
(445,7,o),
(535,33,o),
(575,86,c),
(654,157,l),
(713,207,o),
(746,287,o),
(746,380,cs),
(746,564,o),
(604,726,o),
(386,726,cs),
(161,726,o),
(15,564,o),
(15,337,cs),
(15,138,o),
(141,7,o),
(346,7,cs)
);
},
{
closed = 1;
nodes = (
(749,-18,o),
(784,27,o),
(784,75,cs),
(784,131,o),
(736,164,o),
(657,183,c),
(555,83,l),
(589,18,o),
(641,-18,o),
(688,-18,cs)
);
},
{
closed = 1;
nodes = (
(522,316,l),
(493,388,o),
(457,426,o),
(407,426,cs),
(369,426,o),
(342,403,o),
(342,362,cs),
(342,318,o),
(376,284,o),
(452,252,c)
);
},
{
closed = 1;
nodes = (
(307,261,o),
(248,314,o),
(248,396,cs),
(248,461,o),
(299,511,o),
(376,511,cs),
(459,511,o),
(514,458,o),
(514,376,cs),
(514,351,o),
(510,329,o),
(504,313,c),
(456,270,l),
(439,264,o),
(419,261,o),
(396,261,cs)
);
}
);
width = 761;
},
{
anchors = (
{
name = bottom;
pos = (261,0);
},
{
name = top;
pos = (261,730);
}
);
layerId = "D96CDDDD-AAEE-4FD8-A377-74226937908C";
shapes = (
{
closed = 1;
nodes = (
(309,7,o),
(358,33,o),
(388,79,c),
(422,127,l),
(461,183,o),
(484,275,o),
(484,380,cs),
(484,572,o),
(398,726,o),
(266,726,cs),
(128,726,o),
(38,572,o),
(38,337,cs),
(38,131,o),
(118,7,o),
(249,7,cs)
);
},
{
closed = 1;
nodes = (
(503,-18,o),
(522,5,o),
(522,30,cs),
(522,76,o),
(480,123,o),
(410,161,c),
(353,106,l),
(394,26,o),
(434,-18,o),
(471,-18,cs)
);
},
{
closed = 1;
nodes = (
(357,196,l),
(327,274,o),
(294,314,o),
(265,314,cs),
(248,314,o),
(233,301,o),
(233,279,cs),
(233,245,o),
(264,201,o),
(320,150,c)
);
},
{
closed = 1;
nodes = (
(216,141,o),
(181,229,o),
(181,366,cs),
(181,511,o),
(214,601,o),
(264,601,cs),
(320,601,o),
(357,511,o),
(357,354,cs),
(357,293,o),
(347,241,o),
(332,201,c),
(324,179,l),
(309,152,o),
(290,141,o),
(269,141,cs)
);
}
);
width = 513.5;
},
{
anchors = (
{
name = bottom;
pos = (389,0);
},
{
name = top;
pos = (389,730);
}
);
layerId = "1C59D977-65E2-41C6-912A-276E7E987498";
shapes = (
{
closed = 1;
nodes = (
(471,7,o),
(555,41,o),
(605,101,c),
(658,153,l),
(702,204,o),
(727,286,o),
(727,380,cs),
(727,568,o),
(597,726,o),
(394,726,cs),
(184,726,o),
(49,568,o),
(49,337,cs),
(49,134,o),
(170,7,o),
(369,7,cs)
);
},
{
closed = 1;
nodes = (
(768,-18,o),
(788,7,o),
(788,34,cs),
(788,79,o),
(735,127,o),
(646,164,c),
(585,106,l),
(638,26,o),
(688,-18,o),
(733,-18,cs)
);
},
{
closed = 1;
nodes = (
(582,222,l),
(546,302,o),
(507,347,o),
(460,347,cs),
(432,347,o),
(411,330,o),
(411,298,cs),
(411,260,o),
(458,207,o),
(536,171,c)
);
},
{
closed = 1;
nodes = (
(278,149,o),
(199,234,o),
(199,366,cs),
(199,503,o),
(276,594,o),
(391,594,cs),
(512,594,o),
(593,507,o),
(593,354,cs),
(593,302,o),
(583,257,o),
(568,223,c),
(538,198,l),
(498,164,o),
(451,149,o),
(396,149,cs)
);
}
);
width = 779.75;
}
);
metricLeft = O;
unicode = 81;
},
{
glyphname = R;
lastChange = "2021-08-24 15:56:21 +0000";
layers = (
{
anchors = (
{
name = bottom;
pos = (290,0);
},
{
name = top;
pos = (290,730);
}
);
background = {
shapes = (
{
closed = 1;
nodes = (
(218,-7,o),
(250,43,o),
(250,137,cs),
(250,186,o),
(242,254,o),
(233,292,c),
(235,292,l),
(313,70,o),
(367,5,o),
(456,5,cs),
(530,5,o),
(575,49,o),
(575,118,cs),
(575,204,o),
(507,274,o),
(335,329,c),
(291,316,l),
(438,301,o),
(580,364,o),
(580,528,cs),
(580,654,o),
(502,739,o),
(333,739,cs),
(230,739,o),
(138,708,o),
(80,624,cs),
(30,552,o),
(5,430,o),
(5,257,cs),
(5,63,o),
(32,-7,o),
(131,-7,cs)
);
},
{
closed = 1;
nodes = (
(260,434,o),
(235,463,o),
(235,504,cs),
(235,550,o),
(267,592,o),
(316,592,cs),
(359,592,o),
(378,560,o),
(378,518,cs),
(378,466,o),
(347,434,o),
(302,434,cs)
);
}
);
};
layerId = m004;
shapes = (
{
closed = 1;
nodes = (
(203,-7,o),
(230,43,o),
(230,137,cs),
(230,186,o),
(222,254,o),
(213,292,c),
(215,292,l),
(275,70,o),
(318,5,o),
(387,5,cs),
(443,5,o),
(475,45,o),
(475,108,cs),
(475,189,o),
(435,258,o),
(326,315,c),
(326,317,l),
(415,352,o),
(480,418,o),
(480,548,cs),
(480,662,o),
(418,739,o),
(283,739,cs),
(208,739,o),
(149,715,o),
(100,644,cs),
(49,571,o),
(25,445,o),
(25,257,cs),
(25,63,o),
(48,-7,o),
(131,-7,cs)
);
},
{
closed = 1;
nodes = (
(231,414,o),
(220,439,o),
(220,474,cs),
(220,541,o),
(245,602,o),
(283,602,cs),
(303,602,o),
(313,575,o),
(313,538,cs),
(313,461,o),
(287,414,o),
(250,414,cs)
);
}
);
width = 500;
},
{
anchors = (
{
name = bottom;
pos = (320,0);
},
{
name = top;
pos = (320,730);
}
);
layerId = "4BA625B0-8927-4B2E-B2D8-0167ED5E0445";
shapes = (
{
closed = 1;
nodes = (
(256,-7,o),
(290,43,o),
(290,137,cs),
(290,186,o),
(282,254,o),
(273,292,c),
(277,292,l),
(362,70,o),
(422,5,o),
(521,5,cs),
(604,5,o),
(655,51,o),
(655,123,cs),
(655,198,o),
(594,263,o),
(431,313,c),
(431,317,l),
(564,321,o),
(660,391,o),
(660,518,cs),
(660,650,o),
(574,739,o),
(388,739,cs),
(271,739,o),
(163,705,o),
(100,614,cs),
(51,543,o),
(25,423,o),
(25,257,cs),
(25,63,o),
(54,-7,o),
(161,-7,cs)
);
},
{
closed = 1;
nodes = (
(305,444,o),
(273,475,o),
(273,519,cs),
(273,555,o),
(308,587,o),
(363,587,cs),
(417,587,o),
(441,553,o),
(441,508,cs),
(441,469,o),
(407,444,o),
(358,444,cs)
);
}
);
width = 680;
},
{
anchors = (
{
name = bottom;
pos = (271,0);
},
{
name = top;
pos = (271,730);
}
);
layerId = "D96CDDDD-AAEE-4FD8-A377-74226937908C";
shapes = (
{
closed = 1;
nodes = (
(178,-7,o),
(196,33,o),
(196,107,cs),
(196,166,o),
(188,247,o),
(179,292,c),
(181,292,l),
(275,78,o),
(346,5,o),
(398,5,cs),
(435,5,o),
(456,28,o),
(456,63,cs),
(456,125,o),
(400,215,o),
(262,314,c),
(262,316,l),
(372,314,o),
(461,387,o),
(461,541,cs),
(461,659,o),
(407,739,o),
(287,739,cs),
(222,739,o),
(173,714,o),
(130,652,cs),
(73,570,o),
(55,417,o),
(55,205,cs),
(55,49,o),
(71,-7,o),
(131,-7,cs)
);
},
{
closed = 1;
nodes = (
(213,399,o),
(198,435,o),
(198,485,cs),
(198,562,o),
(226,632,o),
(279,632,cs),
(319,632,o),
(339,592,o),
(339,533,cs),
(339,450,o),
(298,399,o),
(246,399,cs)
);
}
);
width = 503;
},
{
anchors = (
{
name = bottom;
pos = (319,0);
},
{
name = top;
pos = (319,730);
}
);
layerId = "1C59D977-65E2-41C6-912A-276E7E987498";
shapes = (
{
closed = 1;
nodes = (
(199,-7,o),
(218,33,o),
(218,107,cs),
(218,166,o),
(210,247,o),
(201,292,c),
(205,292,l),
(350,78,o),
(459,5,o),
(539,5,cs),
(583,5,o),
(609,29,o),
(609,67,cs),
(609,128,o),
(518,216,o),
(294,312,c),
(294,316,l),
(472,295,o),
(614,369,o),
(614,533,cs),
(614,656,o),
(539,739,o),
(376,739,cs),
(280,739,o),
(194,710,o),
(141,633,cs),
(86,553,o),
(66,406,o),
(66,205,cs),
(66,49,o),
(84,-7,o),
(150,-7,cs)
);
},
{
closed = 1;
nodes = (
(251,407,o),
(217,444,o),
(217,496,cs),
(217,566,o),
(264,628,o),
(351,628,cs),
(436,628,o),
(479,587,o),
(479,525,cs),
(479,452,o),
(410,407,o),
(324,407,cs)
);
}
);
width = 668;
}
);
metricLeft = H;
metricRight = B;
unicode = 82;
},
{
glyphname = S;
lastChange = "2021-08-24 15:37:53 +0000";
layers = (
{
anchors = (
{
name = bottom;
pos = (234,0);
},
{
name = top;
pos = (234,730);
}
);
layerId = m004;
shapes = (
{
closed = 1;
nodes = (
(332,-3,o),
(425,87,o),
(425,221,cs),
(425,311,o),
(389,376,o),
(267,423,cs),
(213,444,o),
(197,456,o),
(197,474,cs),
(197,488,o),
(206,495,o),
(224,495,cs),
(243,495,o),
(285,486,o),
(312,486,cs),
(404,486,o),
(447,534,o),
(447,603,cs),
(447,691,o),
(389,736,o),
(297,736,cs),
(192,736,o),
(39,675,o),
(39,489,cs),
(39,396,o),
(76,353,o),
(174,308,cs),
(221,286,o),
(237,267,o),
(237,247,cs),
(237,225,o),
(225,214,o),
(201,214,cs),
(190,214,o),
(157,217,o),
(134,217,cs),
(54,217,o),
(20,181,o),
(20,122,cs),
(20,80,o),
(38,51,o),
(80,25,cs),
(106,9,o),
(146,-3,o),
(198,-3,cs)
);
}
);
width = 467;
},
{
anchors = (
{
name = bottom;
pos = (294,0);
},
{
name = top;
pos = (294,730);
}
);
layerId = "4BA625B0-8927-4B2E-B2D8-0167ED5E0445";
shapes = (
{
closed = 1;
nodes = (
(428,-3,o),
(545,87,o),
(545,221,cs),
(545,321,o),
(490,379,o),
(327,428,cs),
(260,448,o),
(242,459,o),
(242,475,cs),
(242,489,o),
(254,495,o),
(279,495,cs),
(311,495,o),
(385,486,o),
(432,486,cs),
(524,486,o),
(567,534,o),
(567,603,cs),
(567,691,o),
(491,736,o),
(372,736,cs),
(237,736,o),
(39,675,o),
(39,489,cs),
(39,386,o),
(93,335,o),
(234,309,cs),
(290,298,o),
(312,291,o),
(312,270,cs),
(312,255,o),
(300,244,o),
(276,244,cs),
(242,244,o),
(181,256,o),
(134,256,cs),
(54,256,o),
(20,222,o),
(20,152,cs),
(20,104,o),
(37,68,o),
(80,42,cs),
(120,17,o),
(181,-3,o),
(258,-3,cs)
);
}
);
width = 587;
},
{
anchors = (
{
name = bottom;
pos = (227,0);
},
{
name = top;
pos = (227,730);
}
);
layerId = "D96CDDDD-AAEE-4FD8-A377-74226937908C";
shapes = (
{
closed = 1;
nodes = (
(311,-3,o),
(395,81,o),
(395,206,cs),
(395,296,o),
(360,351,o),
(260,403,cs),
(192,439,o),
(175,466,o),
(175,505,cs),
(175,561,o),
(199,585,o),
(242,585,cs),
(281,585,o),
(313,576,o),
(335,576,cs),
(391,576,o),
(417,605,o),
(417,648,cs),
(417,702,o),
(364,736,o),
(290,736,cs),
(191,736,o),
(54,678,o),
(54,504,cs),
(54,407,o),
(93,362,o),
(182,316,cs),
(247,281,o),
(267,252,o),
(267,211,cs),
(267,169,o),
(245,144,o),
(199,144,cs),
(166,144,o),
(131,157,o),
(104,157,cs),
(56,157,o),
(35,133,o),
(35,90,cs),
(35,60,o),
(49,40,o),
(80,22,cs),
(104,8,o),
(142,-3,o),
(191,-3,cs)
);
}
);
width = 452;
},
{
anchors = (
{
name = bottom;
pos = (298,0);
},
{
name = top;
pos = (298,730);
}
);
layerId = "1C59D977-65E2-41C6-912A-276E7E987498";
shapes = (
{
closed = 1;
nodes = (
(430,-3,o),
(538,81,o),
(538,206,cs),
(538,296,o),
(489,356,o),
(331,404,cs),
(202,446,o),
(186,468,o),
(186,505,cs),
(186,561,o),
(232,585,o),
(313,585,cs),
(384,585,o),
(440,565,o),
(477,565,cs),
(533,565,o),
(560,594,o),
(560,637,cs),
(560,697,o),
(479,736,o),
(365,736,cs),
(236,736,o),
(54,676,o),
(54,493,cs),
(54,402,o),
(111,353,o),
(253,316,cs),
(377,280,o),
(398,257,o),
(398,219,cs),
(398,177,o),
(362,152,o),
(285,152,cs),
(233,152,o),
(172,170,o),
(127,170,cs),
(62,170,o),
(35,147,o),
(35,102,cs),
(35,72,o),
(49,51,o),
(80,34,cs),
(119,12,o),
(189,-3,o),
(273,-3,cs)
);
}
);
width = 594.5;
}
);
unicode = 83;
},
{
glyphname = T;
lastChange = "2021-08-24 15:56:21 +0000";
layers = (
{
anchors = (
{
name = bottom;
pos = (229,0);
},
{
name = center;
pos = (229,365);
},
{
name = top;
pos = (229,730);
}
);
layerId = m004;
shapes = (
{
closed = 1;
nodes = (
(179,735,o),
(118,722,o),
(80,703,cs),
(26,676,o),
(5,633,o),
(5,576,cs),
(5,512,o),
(31,475,o),
(101,475,cs),
(127,475,o),
(170,482,o),
(195,492,c),
(191,517,l),
(140,420,o),
(92,246,o),
(92,144,cs),
(92,43,o),
(135,-7,o),
(219,-7,cs),
(313,-7,o),
(351,52,o),
(351,156,cs),
(351,240,o),
(321,411,o),
(268,520,c),
(268,492,l),
(300,482,o),
(330,479,o),
(357,479,cs),
(421,479,o),
(453,527,o),
(453,597,cs),
(453,650,o),
(439,690,o),
(383,713,cs),
(351,726,o),
(301,735,o),
(241,735,cs)
);
}
);
width = 458;
},
{
anchors = (
{
name = bottom;
pos = (304,0);
},
{
name = center;
pos = (304,365);
},
{
name = top;
pos = (304,730);
}
);
layerId = "4BA625B0-8927-4B2E-B2D8-0167ED5E0445";
shapes = (
{
closed = 1;
nodes = (
(212,735,o),
(144,724,o),
(95,699,cs),
(32,667,o),
(5,617,o),
(5,554,cs),
(5,481,o),
(39,438,o),
(131,438,cs),
(166,438,o),
(223,449,o),
(255,462,c),
(251,487,l),
(200,398,o),
(152,239,o),
(152,144,cs),
(152,43,o),
(200,-7,o),
(294,-7,cs),
(399,-7,o),
(441,52,o),
(441,156,cs),
(441,233,o),
(411,390,o),
(358,490,c),
(358,462,l),
(401,449,o),
(441,442,o),
(477,442,cs),
(561,442,o),
(603,496,o),
(603,575,cs),
(603,634,o),
(585,681,o),
(518,709,cs),
(474,726,o),
(412,735,o),
(316,735,cs)
);
}
);
width = 608;
},
{
anchors = (
{
name = bottom;
pos = (218,0);
},
{
name = center;
pos = (218,365);
},
{
name = top;
pos = (218,730);
}
);
layerId = "D96CDDDD-AAEE-4FD8-A377-74226937908C";
shapes = (
{
closed = 1;
nodes = (
(160,735,o),
(104,725,o),
(66,708,cs),
(31,693,o),
(16,669,o),
(16,636,cs),
(16,600,o),
(36,579,o),
(90,579,cs),
(122,579,o),
(173,590,o),
(203,603,c),
(185,615,l),
(158,491,o),
(130,268,o),
(130,137,cs),
(130,39,o),
(154,-7,o),
(208,-7,cs),
(268,-7,o),
(290,45,o),
(290,149,cs),
(290,257,o),
(275,477,o),
(252,618,c),
(238,603,l),
(274,589,o),
(308,583,o),
(338,583,cs),
(392,583,o),
(419,610,o),
(419,650,cs),
(419,680,o),
(410,702,o),
(376,715,cs),
(347,727,o),
(298,735,o),
(230,735,cs)
);
}
);
width = 435;
},
{
anchors = (
{
name = bottom;
pos = (299,0);
},
{
name = center;
pos = (299,365);
},
{
name = top;
pos = (299,730);
}
);
layerId = "1C59D977-65E2-41C6-912A-276E7E987498";
shapes = (
{
closed = 1;
nodes = (
(211,735,o),
(137,723,o),
(87,702,cs),
(43,683,o),
(22,660,o),
(22,625,cs),
(22,587,o),
(47,564,o),
(115,564,cs),
(161,564,o),
(236,579,o),
(280,596,c),
(262,607,l),
(235,486,o),
(208,266,o),
(208,137,cs),
(208,39,o),
(232,-7,o),
(289,-7,cs),
(352,-7,o),
(375,45,o),
(375,149,cs),
(375,255,o),
(360,472,o),
(336,610,c),
(323,596,l),
(377,577,o),
(430,568,o),
(476,568,cs),
(542,568,o),
(575,597,o),
(575,640,cs),
(575,669,o),
(561,692,o),
(517,709,cs),
(476,724,o),
(409,735,o),
(311,735,cs)
);
}
);
width = 596.75;
}
);
metricLeft = "=|L";
metricRight = L;
unicode = 84;
},
{
glyphname = U;
lastChange = "2021-08-24 15:07:39 +0000";
layers = (
{
anchors = (
{
name = bottom;
pos = (284,0);
},
{
name = ogonek;
pos = (526,10);
},
{
name = top;
pos = (284,720);
},
{
name = topright;
pos = (567,730);
}
);
background = {
shapes = (
{
closed = 0;
nodes = (
(-5,314,ls),
(-5,115,o),
(121,-8,o),
(317,-8,cs),
(529,-8,o),
(666,119,o),
(666,325,cs)
);
},
{
closed = 0;
nodes = (
(430,361,ls),
(430,291,o),
(392,246,o),
(334,246,cs),
(276,246,o),
(238,291,o),
(238,361,cs)
);
},
{
closed = 0;
nodes = (
(205,419,l),
(234,485,o),
(250,564,o),
(250,622,cs),
(250,697,o),
(213,735,o),
(148,735,cs),
(76,735,o),
(39,689,o),
(22,614,cs),
(5,541,o),
(-5,435,o),
(-5,327,cs)
);
},
{
closed = 0;
nodes = (
(558,383,ls),
(558,471,o),
(550,565,o),
(537,625,cs),
(521,702,o),
(485,741,o),
(413,741,cs),
(340,741,o),
(303,701,o),
(303,624,cs),
(303,570,o),
(311,497,o),
(328,426,c)
);
}
);
};
layerId = m004;
shapes = (
{
closed = 1;
nodes = (
(444,-8,o),
(522,89,o),
(522,325,cs),
(522,420,o),
(514,544,o),
(500,615,cs),
(485,692,o),
(455,731,o),
(392,731,cs),
(329,731,o),
(297,691,o),
(297,614,cs),
(297,558,o),
(323,374,o),
(323,300,cs),
(323,249,o),
(307,226,o),
(276,226,cs),
(244,226,o),
(225,247,o),
(225,300,cs),
(225,379,o),
(270,552,o),
(270,612,cs),
(270,680,o),
(235,715,o),
(173,715,cs),
(104,715,o),
(69,669,o),
(52,594,cs),
(35,518,o),
(25,397,o),
(25,294,cs),
(25,79,o),
(93,-8,o),
(260,-8,cs)
);
}
);
width = 547;
},
{
anchors = (
{
name = bottom;
pos = (314,0);
},
{
name = ogonek;
pos = (556,10);
},
{
name = top;
pos = (314,720);
},
{
name = topright;
pos = (597,730);
}
);
layerId = "4BA625B0-8927-4B2E-B2D8-0167ED5E0445";
shapes = (
{
closed = 1;
nodes = (
(521,-8,o),
(612,89,o),
(612,325,cs),
(612,420,o),
(604,544,o),
(590,615,cs),
(575,692,o),
(539,731,o),
(467,731,cs),
(394,731,o),
(357,691,o),
(357,614,cs),
(357,564,o),
(383,397,o),
(383,330,cs),
(383,279,o),
(363,256,o),
(321,256,cs),
(280,256,o),
(255,277,o),
(255,330,cs),
(255,402,o),
(300,558,o),
(300,612,cs),
(300,680,o),
(259,715,o),
(188,715,cs),
(110,715,o),
(69,669,o),
(52,594,cs),
(35,518,o),
(25,397,o),
(25,294,cs),
(25,79,o),
(107,-8,o),
(305,-8,cs)
);
}
);
width = 637;
},
{
anchors = (
{
name = bottom;
pos = (262,0);
},
{
name = ogonek;
pos = (504,10);
},
{
name = top;
pos = (262,720);
},
{
name = topright;
pos = (545,730);
}
);
layerId = "D96CDDDD-AAEE-4FD8-A377-74226937908C";
shapes = (
{
closed = 1;
nodes = (
(398,-8,o),
(462,85,o),
(462,310,cs),
(462,420,o),
(455,563,o),
(440,645,cs),
(431,702,o),
(411,731,o),
(370,731,cs),
(331,731,o),
(312,702,o),
(312,644,cs),
(312,581,o),
(338,376,o),
(338,293,cs),
(338,185,o),
(312,136,o),
(261,136,cs),
(205,136,o),
(176,177,o),
(176,293,cs),
(176,405,o),
(221,575,o),
(221,642,cs),
(221,691,o),
(199,715,o),
(161,715,cs),
(115,715,o),
(94,680,o),
(82,624,cs),
(64,537,o),
(55,398,o),
(55,279,cs),
(55,75,o),
(110,-8,o),
(245,-8,cs)
);
}
);
width = 517;
},
{
anchors = (
{
name = bottom;
pos = (320,0);
},
{
name = ogonek;
pos = (562,10);
},
{
name = top;
pos = (320,720);
},
{
name = topright;
pos = (603,730);
}
);
layerId = "1C59D977-65E2-41C6-912A-276E7E987498";
shapes = (
{
closed = 1;
nodes = (
(496,-8,o),
(575,91,o),
(575,333,cs),
(575,435,o),
(567,569,o),
(553,645,cs),
(543,702,o),
(520,731,o),
(473,731,cs),
(432,731,o),
(412,702,o),
(412,644,cs),
(412,587,o),
(438,399,o),
(438,323,cs),
(438,199,o),
(400,144,o),
(323,144,cs),
(243,144,o),
(200,190,o),
(200,323,cs),
(200,426,o),
(245,581,o),
(245,642,cs),
(245,691,o),
(222,715,o),
(182,715,cs),
(130,715,o),
(107,680,o),
(95,624,cs),
(77,543,o),
(66,413,o),
(66,302,cs),
(66,81,o),
(136,-8,o),
(307,-8,cs)
);
}
);
width = 640.75;
}
);
metricLeft = H;
metricRight = H;
unicode = 85;
},
{
glyphname = V;
lastChange = "2021-08-24 15:45:17 +0000";
layers = (
{
anchors = (
{
name = bottom;
pos = (268,0);
},
{
name = top;
pos = (268,730);
}
);
layerId = m004;
shapes = (
{
closed = 1;
nodes = (
(370,739,o),
(337,694,o),
(320,596,cs),
(304,506,o),
(285,320,o),
(274,183,c),
(270,183,l),
(264,324,o),
(253,488,o),
(245,569,cs),
(235,677,o),
(203,719,o),
(131,719,cs),
(58,719,o),
(15,670,o),
(15,559,cs),
(15,434,o),
(39,279,o),
(77,177,cs),
(124,52,o),
(163,-7,o),
(239,-7,cs),
(309,-7,o),
(366,53,o),
(425,182,cs),
(488,320,o),
(520,482,o),
(520,585,cs),
(520,688,o),
(497,739,o),
(438,739,cs)
);
}
);
width = 535;
},
{
anchors = (
{
name = bottom;
pos = (313,0);
},
{
name = top;
pos = (313,730);
}
);
layerId = "4BA625B0-8927-4B2E-B2D8-0167ED5E0445";
shapes = (
{
closed = 1;
nodes = (
(430,739,o),
(402,694,o),
(380,596,cs),
(358,499,o),
(332,351,o),
(311,213,c),
(307,213,l),
(298,352,o),
(285,490,o),
(275,569,cs),
(261,677,o),
(233,719,o),
(161,719,cs),
(69,719,o),
(15,666,o),
(15,544,cs),
(15,424,o),
(42,276,o),
(83,177,cs),
(136,48,o),
(187,-7,o),
(284,-7,cs),
(372,-7,o),
(446,47,o),
(509,182,cs),
(571,311,o),
(610,460,o),
(610,555,cs),
(610,678,o),
(578,739,o),
(498,739,cs)
);
}
);
width = 625;
},
{
anchors = (
{
name = bottom;
pos = (261,0);
},
{
name = top;
pos = (261,730);
}
);
layerId = "D96CDDDD-AAEE-4FD8-A377-74226937908C";
shapes = (
{
closed = 1;
nodes = (
(380,739,o),
(363,693,o),
(347,596,cs),
(324,452,o),
(293,256,o),
(251,108,c),
(247,108,l),
(212,261,o),
(196,420,o),
(182,569,cs),
(172,677,o),
(151,719,o),
(101,719,cs),
(54,719,o),
(30,677,o),
(30,582,cs),
(30,469,o),
(58,279,o),
(100,161,cs),
(141,50,o),
(174,-7,o),
(237,-7,cs),
(296,-7,o),
(338,50,o),
(388,166,cs),
(451,313,o),
(490,502,o),
(490,623,cs),
(490,700,o),
(473,739,o),
(431,739,cs)
);
}
);
width = 520;
},
{
anchors = (
{
name = bottom;
pos = (317,0);
},
{
name = top;
pos = (317,730);
}
);
layerId = "1C59D977-65E2-41C6-912A-276E7E987498";
shapes = (
{
closed = 1;
nodes = (
(485,739,o),
(469,693,o),
(452,596,cs),
(429,454,o),
(373,266,o),
(306,123,c),
(302,123,l),
(242,271,o),
(203,422,o),
(186,569,cs),
(174,677,o),
(155,719,o),
(105,719,cs),
(53,719,o),
(30,676,o),
(30,578,cs),
(30,467,o),
(68,280,o),
(113,173,cs),
(161,58,o),
(211,-7,o),
(293,-7,cs),
(370,-7,o),
(429,57,o),
(487,177,cs),
(555,313,o),
(603,497,o),
(603,615,cs),
(603,698,o),
(583,739,o),
(536,739,cs)
);
}
);
width = 632.5;
}
);
metricLeft = A;
metricRight = A;
unicode = 86;
},
{
glyphname = W;
lastChange = "2021-08-24 15:56:08 +0000";
layers = (
{
anchors = (
{
name = bottom;
pos = (338,0);
},
{
name = top;
pos = (338,730);
}
);
layerId = m004;
shapes = (
{
closed = 1;
nodes = (
(25,424,o),
(39,258,o),
(57,166,cs),
(79,54,o),
(110,11,o),
(172,11,cs),
(240,11,o),
(293,72,o),
(334,319,c),
(338,319,l),
(378,68,o),
(423,-8,o),
(492,-8,cs),
(551,-8,o),
(586,44,o),
(609,135,cs),
(637,245,o),
(651,390,o),
(651,521,cs),
(651,663,o),
(605,738,o),
(526,738,cs),
(468,738,o),
(431,701,o),
(431,562,cs),
(431,488,o),
(437,394,o),
(445,313,c),
(441,313,l),
(401,526,o),
(375,595,o),
(331,595,cs),
(291,595,o),
(263,528,o),
(228,301,c),
(224,301,l),
(234,377,o),
(243,483,o),
(243,546,cs),
(243,638,o),
(221,711,o),
(145,711,cs),
(63,711,o),
(25,656,o),
(25,515,cs)
);
}
);
width = 676;
},
{
anchors = (
{
name = bottom;
pos = (398,0);
},
{
name = top;
pos = (398,730);
}
);
background = {
shapes = (
{
closed = 1;
nodes = (
(25,424,o),
(39,258,o),
(57,166,cs),
(79,54,o),
(118,11,o),
(187,11,cs),
(275,11,o),
(341,63,o),
(395,274,c),
(397,274,l),
(450,58,o),
(527,-8,o),
(597,-8,cs),
(664,-8,o),
(706,44,o),
(729,135,cs),
(757,245,o),
(771,390,o),
(771,521,cs),
(771,663,o),
(719,738,o),
(631,738,cs),
(564,738,o),
(521,701,o),
(521,562,cs),
(521,502,o),
(526,424,o),
(533,358,c),
(531,358,l),
(481,537,o),
(447,595,o),
(391,595,cs),
(339,595,o),
(304,539,o),
(258,346,c),
(256,346,l),
(266,409,o),
(273,495,o),
(273,546,cs),
(273,638,o),
(248,711,o),
(160,711,cs),
(68,711,o),
(25,656,o),
(25,515,cs)
);
}
);
};
layerId = "4BA625B0-8927-4B2E-B2D8-0167ED5E0445";
shapes = (
{
closed = 1;
nodes = (
(25,424,o),
(39,258,o),
(57,166,cs),
(79,54,o),
(118,11,o),
(187,11,cs),
(275,11,o),
(341,63,o),
(394,334,c),
(398,334,l),
(450,58,o),
(527,-8,o),
(597,-8,cs),
(664,-8,o),
(706,44,o),
(729,135,cs),
(757,245,o),
(771,390,o),
(771,521,cs),
(771,663,o),
(719,738,o),
(631,738,cs),
(564,738,o),
(521,701,o),
(521,562,cs),
(521,487,o),
(531,390,o),
(543,308,c),
(539,308,l),
(487,525,o),
(451,595,o),
(391,595,cs),
(335,595,o),
(297,528,o),
(250,296,c),
(246,296,l),
(260,375,o),
(273,482,o),
(273,546,cs),
(273,638,o),
(248,711,o),
(160,711,cs),
(68,711,o),
(25,656,o),
(25,515,cs)
);
}
);
width = 796;
},
{
anchors = (
{
name = bottom;
pos = (331,0);
},
{
name = top;
pos = (331,730);
}
);
layerId = "D96CDDDD-AAEE-4FD8-A377-74226937908C";
shapes = (
{
closed = 1;
nodes = (
(55,438,o),
(74,245,o),
(95,136,cs),
(112,46,o),
(134,11,o),
(180,11,cs),
(242,11,o),
(289,131,o),
(326,417,c),
(330,417,l),
(366,130,o),
(414,-8,o),
(470,-8,cs),
(514,-8,o),
(539,34,o),
(557,105,cs),
(589,232,o),
(606,400,o),
(606,551,cs),
(606,674,o),
(575,738,o),
(521,738,cs),
(479,738,o),
(454,709,o),
(454,600,cs),
(454,470,o),
(458,305,o),
(464,163,c),
(460,163,l),
(410,467,o),
(371,565,o),
(324,565,cs),
(280,565,o),
(241,474,o),
(198,166,c),
(194,166,l),
(202,296,o),
(209,476,o),
(209,584,cs),
(209,655,o),
(193,711,o),
(139,711,cs),
(81,711,o),
(55,664,o),
(55,545,cs)
);
}
);
width = 661;
},
{
anchors = (
{
name = bottom;
pos = (402,0);
},
{
name = top;
pos = (402,730);
}
);
layerId = "1C59D977-65E2-41C6-912A-276E7E987498";
shapes = (
{
closed = 1;
nodes = (
(66,438,o),
(85,245,o),
(106,136,cs),
(123,46,o),
(147,11,o),
(195,11,cs),
(281,11,o),
(344,162,o),
(398,405,c),
(402,405,l),
(455,162,o),
(525,-8,o),
(597,-8,cs),
(643,-8,o),
(670,34,o),
(688,105,cs),
(720,232,o),
(737,400,o),
(737,551,cs),
(737,674,o),
(705,738,o),
(648,738,cs),
(605,738,o),
(577,709,o),
(577,600,cs),
(577,471,o),
(582,306,o),
(588,164,c),
(584,164,l),
(515,433,o),
(462,565,o),
(395,565,cs),
(333,565,o),
(278,441,o),
(216,167,c),
(212,167,l),
(222,297,o),
(228,477,o),
(228,584,cs),
(228,655,o),
(211,711,o),
(154,711,cs),
(94,711,o),
(66,664,o),
(66,545,cs)
);
}
);
width = 803;
}
);
metricLeft = H;
metricRight = H;
unicode = 87;
},
{
glyphname = X;
lastChange = "2021-08-24 15:56:21 +0000";
layers = (
{
anchors = (
{
name = bottom;
pos = (277,0);
},
{
name = top;
pos = (277,730);
}
);
layerId = m004;
shapes = (
{
closed = 1;
nodes = (
(167,-7,o),
(240,61,o),
(270,277,c),
(274,277,l),
(285,93,o),
(339,4,o),
(414,4,cs),
(471,4,o),
(533,49,o),
(533,121,cs),
(533,220,o),
(478,313,o),
(357,373,c),
(357,377,l),
(475,425,o),
(543,510,o),
(543,614,cs),
(543,685,o),
(501,738,o),
(443,738,cs),
(379,738,o),
(313,670,o),
(283,454,c),
(279,454,l),
(270,622,o),
(222,701,o),
(152,701,cs),
(102,701,o),
(50,656,o),
(50,584,cs),
(50,496,o),
(97,420,o),
(197,368,c),
(197,364,l),
(75,303,o),
(10,195,o),
(10,97,cs),
(10,37,o),
(46,-7,o),
(103,-7,cs)
);
}
);
width = 553;
},
{
anchors = (
{
name = bottom;
pos = (352,0);
},
{
name = top;
pos = (352,730);
}
);
layerId = "4BA625B0-8927-4B2E-B2D8-0167ED5E0445";
shapes = (
{
closed = 1;
nodes = (
(215,-7,o),
(309,76,o),
(345,277,c),
(349,277,l),
(362,108,o),
(435,4,o),
(534,4,cs),
(606,4,o),
(683,61,o),
(683,151,cs),
(683,238,o),
(624,321,o),
(492,373,c),
(492,377,l),
(619,419,o),
(693,494,o),
(693,584,cs),
(693,672,o),
(638,738,o),
(563,738,cs),
(481,738,o),
(395,655,o),
(358,454,c),
(354,454,l),
(343,607,o),
(278,701,o),
(182,701,cs),
(117,701,o),
(50,644,o),
(50,554,cs),
(50,478,o),
(102,413,o),
(212,368,c),
(212,364,l),
(81,311,o),
(10,215,o),
(10,127,cs),
(10,51,o),
(58,-7,o),
(133,-7,cs)
);
}
);
width = 703;
},
{
anchors = (
{
name = bottom;
pos = (266,0);
},
{
name = top;
pos = (266,730);
}
);
layerId = "D96CDDDD-AAEE-4FD8-A377-74226937908C";
shapes = (
{
closed = 1;
nodes = (
(135,-7,o),
(192,72,o),
(259,315,c),
(263,315,l),
(313,99,o),
(367,4,o),
(425,4,cs),
(461,4,o),
(499,35,o),
(499,84,cs),
(499,158,o),
(442,258,o),
(316,373,c),
(316,377,l),
(438,480,o),
(509,581,o),
(509,659,cs),
(509,704,o),
(483,738,o),
(447,738,cs),
(393,738,o),
(337,662,o),
(272,424,c),
(268,424,l),
(227,619,o),
(173,701,o),
(126,701,cs),
(94,701,o),
(61,673,o),
(61,629,cs),
(61,561,o),
(111,468,o),
(216,368,c),
(216,364,l),
(89,250,o),
(21,133,o),
(21,60,cs),
(21,21,o),
(46,-7,o),
(84,-7,cs)
);
}
);
width = 530;
},
{
anchors = (
{
name = bottom;
pos = (357,0);
},
{
name = top;
pos = (357,730);
}
);
layerId = "1C59D977-65E2-41C6-912A-276E7E987498";
shapes = (
{
closed = 1;
nodes = (
(161,-7,o),
(247,87,o),
(350,315,c),
(354,315,l),
(433,114,o),
(518,4,o),
(605,4,cs),
(639,4,o),
(677,34,o),
(677,81,cs),
(677,155,o),
(597,256,o),
(422,373,c),
(422,377,l),
(590,482,o),
(687,584,o),
(687,662,cs),
(687,705,o),
(661,738,o),
(627,738,cs),
(548,738,o),
(463,647,o),
(363,424,c),
(359,424,l),
(290,604,o),
(203,701,o),
(128,701,cs),
(98,701,o),
(66,674,o),
(66,632,cs),
(66,563,o),
(138,470,o),
(292,368,c),
(292,364,l),
(119,248,o),
(26,130,o),
(26,57,cs),
(26,21,o),
(50,-7,o),
(87,-7,cs)
);
}
);
width = 713;
}
);
metricLeft = "=|E";
metricRight = E;
unicode = 88;
},
{
glyphname = Y;
lastChange = "2021-08-24 15:56:21 +0000";
layers = (
{
anchors = (
{
name = bottom;
pos = (257,0);
},
{
name = top;
pos = (257,724);
},
{
name = topleft;
pos = (-30,730);
}
);
layerId = m004;
shapes = (
{
closed = 1;
nodes = (
(301,-9,o),
(360,42,o),
(360,137,cs),
(360,212,o),
(323,314,o),
(277,382,c),
(268,333,l),
(418,397,o),
(508,507,o),
(508,624,cs),
(508,689,o),
(476,738,o),
(418,738,cs),
(357,738,o),
(278,661,o),
(246,464,c),
(242,464,l),
(230,650,o),
(179,727,o),
(114,727,cs),
(57,727,o),
(5,678,o),
(5,600,cs),
(5,497,o),
(64,403,o),
(193,334,c),
(187,392,l),
(143,337,o),
(101,227,o),
(101,128,cs),
(101,25,o),
(147,-9,o),
(216,-9,cs)
);
}
);
width = 513;
},
{
anchors = (
{
name = bottom;
pos = (332,0);
},
{
name = top;
pos = (332,724);
},
{
name = topleft;
pos = (45,730);
}
);
layerId = "4BA625B0-8927-4B2E-B2D8-0167ED5E0445";
shapes = (
{
closed = 1;
nodes = (
(385,-9,o),
(450,42,o),
(450,137,cs),
(450,212,o),
(413,314,o),
(367,382,c),
(358,363,l),
(546,385,o),
(658,465,o),
(658,579,cs),
(658,670,o),
(608,738,o),
(523,738,cs),
(444,738,o),
(359,667,o),
(321,485,c),
(317,485,l),
(302,631,o),
(248,727,o),
(159,727,cs),
(77,727,o),
(5,660,o),
(5,555,cs),
(5,469,o),
(82,400,o),
(253,364,c),
(247,392,l),
(203,337,o),
(161,227,o),
(161,128,cs),
(161,25,o),
(213,-9,o),
(291,-9,cs)
);
}
);
width = 663;
},
{
anchors = (
{
name = bottom;
pos = (238,0);
},
{
name = top;
pos = (238,724);
},
{
name = topleft;
pos = (-49,730);
}
);
layerId = "D96CDDDD-AAEE-4FD8-A377-74226937908C";
shapes = (
{
closed = 1;
nodes = (
(259,-9,o),
(296,37,o),
(296,122,cs),
(296,194,o),
(277,302,o),
(251,382,c),
(242,356,l),
(378,453,o),
(459,581,o),
(459,669,cs),
(459,710,o),
(439,738,o),
(399,738,cs),
(344,738,o),
(280,653,o),
(219,432,c),
(215,432,l),
(179,645,o),
(133,727,o),
(80,727,cs),
(43,727,o),
(16,703,o),
(16,660,cs),
(16,595,o),
(54,501,o),
(182,357,c),
(176,392,l),
(151,327,o),
(127,211,o),
(127,113,cs),
(127,21,o),
(158,-9,o),
(205,-9,cs)
);
}
);
width = 475;
},
{
anchors = (
{
name = bottom;
pos = (342,0);
},
{
name = top;
pos = (342,724);
},
{
name = topleft;
pos = (55,730);
}
);
layerId = "1C59D977-65E2-41C6-912A-276E7E987498";
shapes = (
{
closed = 1;
nodes = (
(365,-9,o),
(404,37,o),
(404,122,cs),
(404,194,o),
(384,302,o),
(358,382,c),
(349,363,l),
(544,450,o),
(660,571,o),
(660,658,cs),
(660,705,o),
(633,738,o),
(589,738,cs),
(521,738,o),
(415,643,o),
(323,437,c),
(319,437,l),
(240,629,o),
(168,727,o),
(98,727,cs),
(56,727,o),
(22,698,o),
(22,649,cs),
(22,588,o),
(78,500,o),
(282,364,c),
(276,392,l),
(250,327,o),
(227,211,o),
(227,113,cs),
(227,21,o),
(260,-9,o),
(308,-9,cs)
);
}
);
width = 681.75;
}
);
metricLeft = "=|L";
metricRight = L;
unicode = 89;
},
{
glyphname = Z;
lastChange = "2021-08-24 15:56:24 +0000";
layers = (
{
anchors = (
{
name = bottom;
pos = (211,0);
},
{
name = center;
pos = (211,365);
},
{
name = top;
pos = (211,730);
}
);
layerId = m004;
shapes = (
{
closed = 1;
nodes = (
(10,43,o),
(63,-7,o),
(173,-7,cs),
(209,-7,o),
(258,-1,o),
(305,8,cs),
(387,24,o),
(434,66,o),
(434,139,cs),
(434,208,o),
(401,236,o),
(322,236,cs),
(266,236,o),
(196,218,o),
(154,195,c),
(154,197,l),
(390,402,o),
(442,502,o),
(442,603,cs),
(442,702,o),
(391,737,o),
(275,737,cs),
(188,737,o),
(115,718,o),
(64,688,cs),
(29,668,o),
(11,639,o),
(11,594,cs),
(11,531,o),
(42,496,o),
(114,496,cs),
(148,496,o),
(217,513,o),
(264,533,c),
(264,531,l),
(78,373,o),
(10,254,o),
(10,135,cs)
);
}
);
width = 452;
},
{
anchors = (
{
name = bottom;
pos = (301,0);
},
{
name = center;
pos = (301,365);
},
{
name = top;
pos = (301,730);
}
);
layerId = "4BA625B0-8927-4B2E-B2D8-0167ED5E0445";
shapes = (
{
closed = 1;
nodes = (
(10,48,o),
(72,-7,o),
(203,-7,cs),
(260,-7,o),
(348,-1,o),
(410,8,cs),
(512,22,o),
(569,72,o),
(569,154,cs),
(569,230,o),
(529,261,o),
(432,261,cs),
(354,261,o),
(258,239,o),
(199,210,c),
(199,212,l),
(509,402,o),
(577,495,o),
(577,588,cs),
(577,714,o),
(504,737,o),
(335,737,cs),
(224,737,o),
(126,724,o),
(64,688,cs),
(28,667,o),
(11,632,o),
(11,579,cs),
(11,510,o),
(50,471,o),
(139,471,cs),
(189,471,o),
(286,493,o),
(354,518,c),
(354,516,l),
(102,370,o),
(10,260,o),
(10,150,cs)
);
}
);
width = 587;
},
{
anchors = (
{
name = bottom;
pos = (215,0);
},
{
name = center;
pos = (215,365);
},
{
name = top;
pos = (215,730);
}
);
layerId = "D96CDDDD-AAEE-4FD8-A377-74226937908C";
shapes = (
{
closed = 1;
nodes = (
(21,21,o),
(59,-7,o),
(162,-7,cs),
(200,-7,o),
(252,-3,o),
(301,8,cs),
(369,23,o),
(408,50,o),
(408,99,cs),
(408,143,o),
(384,161,o),
(326,161,cs),
(266,161,o),
(177,136,o),
(120,105,c),
(120,107,l),
(310,355,o),
(416,549,o),
(416,633,cs),
(416,707,o),
(371,737,o),
(271,737,cs),
(190,737,o),
(117,717,o),
(74,697,cs),
(36,679,o),
(22,656,o),
(22,626,cs),
(22,587,o),
(49,566,o),
(110,566,cs),
(155,566,o),
(244,584,o),
(305,608,c),
(305,606,l),
(98,329,o),
(21,169,o),
(21,90,cs)
);
}
);
width = 437;
},
{
anchors = (
{
name = bottom;
pos = (299,0);
},
{
name = center;
pos = (299,365);
},
{
name = top;
pos = (299,730);
}
);
layerId = "1C59D977-65E2-41C6-912A-276E7E987498";
shapes = (
{
closed = 1;
nodes = (
(26,22,o),
(78,-7,o),
(174,-7,cs),
(248,-7,o),
(352,0,o),
(445,19,cs),
(518,33,o),
(559,63,o),
(559,114,cs),
(559,160,o),
(533,179,o),
(471,179,cs),
(374,179,o),
(229,148,o),
(137,109,c),
(137,112,l),
(410,355,o),
(567,548,o),
(567,629,cs),
(567,710,o),
(505,737,o),
(370,737,cs),
(252,737,o),
(138,721,o),
(79,694,cs),
(41,676,o),
(27,652,o),
(27,620,cs),
(27,579,o),
(56,557,o),
(122,557,cs),
(196,557,o),
(343,579,o),
(445,604,c),
(445,601,l),
(139,328,o),
(26,171,o),
(26,94,cs)
);
}
);
width = 593;
}
);
metricLeft = "=|E";
metricRight = E;
unicode = 90;
},
{
glyphname = F.001;
lastChange = "2021-08-24 15:07:39 +0000";
layers = (
{
layerId = m004;
shapes = (
{
closed = 1;
nodes = (
(228,736,o),
(130,711,o),
(82,645,cs),
(48,599,o),
(25,514,o),
(25,323,cs),
(25,177,o),
(38,102,o),
(64,50,cs),
(86,7,o),
(118,-6,o),
(159,-6,cs),
(225,-6,o),
(266,21,o),
(266,107,cs),
(266,164,o),
(248,226,o),
(231,253,c),
(192,251,l),
(244,241,o),
(296,236,o),
(339,236,cs),
(437,236,o),
(473,279,o),
(473,334,cs),
(473,385,o),
(442,424,o),
(356,424,cs),
(311,424,o),
(249,414,o),
(215,403,c),
(231,396,l),
(238,446,o),
(238,496,o),
(229,531,c),
(219,508,l),
(261,503,o),
(300,501,o),
(331,501,cs),
(445,501,o),
(498,539,o),
(498,624,cs),
(498,693,o),
(466,736,o),
(348,736,cs)
);
}
);
width = 503;
},
{
layerId = "4BA625B0-8927-4B2E-B2D8-0167ED5E0445";
shapes = (
{
closed = 1;
nodes = (
(228,736,o),
(130,711,o),
(82,645,cs),
(48,599,o),
(25,514,o),
(25,323,cs),
(25,177,o),
(38,102,o),
(64,50,cs),
(86,7,o),
(118,-6,o),
(159,-6,cs),
(225,-6,o),
(266,21,o),
(266,107,cs),
(266,164,o),
(248,226,o),
(231,253,c),
(192,251,l),
(244,241,o),
(296,236,o),
(339,236,cs),
(437,236,o),
(473,279,o),
(473,334,cs),
(473,385,o),
(442,424,o),
(356,424,cs),
(311,424,o),
(249,414,o),
(215,403,c),
(231,396,l),
(238,446,o),
(238,496,o),
(229,531,c),
(219,508,l),
(261,503,o),
(300,501,o),
(331,501,cs),
(445,501,o),
(498,539,o),
(498,624,cs),
(498,693,o),
(466,736,o),
(348,736,cs)
);
}
);
width = 503;
},
{
layerId = "D96CDDDD-AAEE-4FD8-A377-74226937908C";
shapes = (
{
closed = 1;
nodes = (
(228,736,o),
(130,711,o),
(82,645,cs),
(48,599,o),
(25,514,o),
(25,323,cs),
(25,177,o),
(38,102,o),
(64,50,cs),
(86,7,o),
(118,-6,o),
(159,-6,cs),
(225,-6,o),
(266,21,o),
(266,107,cs),
(266,164,o),
(248,226,o),
(231,253,c),
(192,251,l),
(244,241,o),
(296,236,o),
(339,236,cs),
(437,236,o),
(473,279,o),
(473,334,cs),
(473,385,o),
(442,424,o),
(356,424,cs),
(311,424,o),
(249,414,o),
(215,403,c),
(231,396,l),
(238,446,o),
(238,496,o),
(229,531,c),
(219,508,l),
(261,503,o),
(300,501,o),
(331,501,cs),
(445,501,o),
(498,539,o),
(498,624,cs),
(498,693,o),
(466,736,o),
(348,736,cs)
);
}
);
width = 503;
},
{
layerId = "1C59D977-65E2-41C6-912A-276E7E987498";
shapes = (
{
closed = 1;
nodes = (
(228,736,o),
(130,711,o),
(82,645,cs),
(48,599,o),
(25,514,o),
(25,323,cs),
(25,177,o),
(38,102,o),
(64,50,cs),
(86,7,o),
(118,-6,o),
(159,-6,cs),
(225,-6,o),
(266,21,o),
(266,107,cs),
(266,164,o),
(248,226,o),
(231,253,c),
(192,251,l),
(244,241,o),
(296,236,o),
(339,236,cs),
(437,236,o),
(473,279,o),
(473,334,cs),
(473,385,o),
(442,424,o),
(356,424,cs),
(311,424,o),
(249,414,o),
(215,403,c),
(231,396,l),
(238,446,o),
(238,496,o),
(229,531,c),
(219,508,l),
(261,503,o),
(300,501,o),
(331,501,cs),
(445,501,o),
(498,539,o),
(498,624,cs),
(498,693,o),
(466,736,o),
(348,736,cs)
);
}
);
width = 503;
}
);
metricLeft = H;
metricRight = T;
},
{
glyphname = O.ss01;
lastChange = "2021-08-24 19:54:16 +0000";
layers = (
{
layerId = m004;
shapes = (
{
closed = 1;
nodes = (
(457,36,o),
(566,170,o),
(566,389,cs),
(566,590,o),
(458,727,o),
(291,727,cs),
(123,727,o),
(15,582,o),
(15,368,cs),
(15,163,o),
(121,36,o),
(287,36,cs)
);
},
{
closed = 1;
nodes = (
(245,290,o),
(223,331,o),
(223,405,cs),
(223,479,o),
(245,520,o),
(279,520,cs),
(313,520,o),
(335,479,o),
(335,405,cs),
(335,331,o),
(313,290,o),
(279,290,cs)
);
}
);
width = 581;
},
{
layerId = "4BA625B0-8927-4B2E-B2D8-0167ED5E0445";
shapes = (
{
closed = 1;
nodes = (
(585,36,o),
(726,170,o),
(726,389,cs),
(726,590,o),
(586,727,o),
(371,727,cs),
(155,727,o),
(15,582,o),
(15,368,cs),
(15,163,o),
(153,36,o),
(367,36,cs)
);
},
{
closed = 1;
nodes = (
(283,300,o),
(233,341,o),
(233,405,cs),
(233,469,o),
(283,510,o),
(359,510,cs),
(435,510,o),
(485,469,o),
(485,405,cs),
(485,341,o),
(435,300,o),
(359,300,cs)
);
}
);
width = 741;
},
{
layerId = "D96CDDDD-AAEE-4FD8-A377-74226937908C";
shapes = (
{
closed = 1;
nodes = (
(400,36,o),
(489,160,o),
(489,389,cs),
(489,600,o),
(401,727,o),
(264,727,cs),
(126,727,o),
(38,592,o),
(38,368,cs),
(38,153,o),
(125,36,o),
(261,36,cs)
);
},
{
closed = 1;
nodes = (
(210,170,o),
(176,251,o),
(176,396,cs),
(176,534,o),
(210,610,o),
(262,610,cs),
(314,610,o),
(348,534,o),
(348,396,cs),
(348,251,o),
(314,170,o),
(262,170,cs)
);
}
);
width = 527;
},
{
layerId = "1C59D977-65E2-41C6-912A-276E7E987498";
shapes = (
{
closed = 1;
nodes = (
(563,36,o),
(690,160,o),
(690,389,cs),
(690,600,o),
(564,727,o),
(370,727,cs),
(175,727,o),
(49,592,o),
(49,368,cs),
(49,153,o),
(174,36,o),
(367,36,cs)
);
},
{
closed = 1;
nodes = (
(262,180,o),
(192,261,o),
(192,396,cs),
(192,524,o),
(262,600,o),
(368,600,cs),
(474,600,o),
(544,524,o),
(544,396,cs),
(544,261,o),
(474,180,o),
(368,180,cs)
);
}
);
width = 739;
}
);
metricLeft = O;
metricRight = O;
},
{
glyphname = O.ss02;
lastChange = "2021-08-24 19:54:14 +0000";
layers = (
{
layerId = m004;
shapes = (
{
closed = 1;
nodes = (
(459,-5,o),
(576,143,o),
(576,358,cs),
(576,554,o),
(468,686,o),
(301,686,cs),
(127,686,o),
(15,519,o),
(15,307,cs),
(15,110,o),
(117,-5,o),
(277,-5,cs)
);
},
{
closed = 1;
nodes = (
(276,229,o),
(258,274,o),
(258,354,cs),
(258,446,o),
(280,499,o),
(311,499,cs),
(335,499,o),
(350,454,o),
(350,374,cs),
(350,282,o),
(331,229,o),
(302,229,cs)
);
}
);
width = 591;
},
{
layerId = "4BA625B0-8927-4B2E-B2D8-0167ED5E0445";
shapes = (
{
closed = 1;
nodes = (
(587,-5,o),
(736,143,o),
(736,358,cs),
(736,554,o),
(596,686,o),
(381,686,cs),
(159,686,o),
(15,519,o),
(15,307,cs),
(15,110,o),
(149,-5,o),
(357,-5,cs)
);
},
{
closed = 1;
nodes = (
(314,239,o),
(268,284,o),
(268,354,cs),
(268,436,o),
(318,489,o),
(391,489,cs),
(459,489,o),
(500,444,o),
(500,374,cs),
(500,292,o),
(454,239,o),
(382,239,cs)
);
}
);
width = 751;
},
{
layerId = "D96CDDDD-AAEE-4FD8-A377-74226937908C";
shapes = (
{
closed = 1;
nodes = (
(387,-5,o),
(479,123,o),
(479,358,cs),
(479,574,o),
(394,686,o),
(263,686,cs),
(126,686,o),
(38,539,o),
(38,307,cs),
(38,90,o),
(118,-5,o),
(244,-5,cs)
);
},
{
closed = 1;
nodes = (
(213,122,o),
(181,195,o),
(181,326,cs),
(181,476,o),
(219,562,o),
(274,562,cs),
(316,562,o),
(343,489,o),
(343,358,cs),
(343,208,o),
(309,122,o),
(258,122,cs)
);
}
);
width = 517;
},
{
layerId = "1C59D977-65E2-41C6-912A-276E7E987498";
shapes = (
{
closed = 1;
nodes = (
(574,-5,o),
(710,133,o),
(710,358,cs),
(710,564,o),
(581,686,o),
(384,686,cs),
(181,686,o),
(49,529,o),
(49,307,cs),
(49,100,o),
(173,-5,o),
(365,-5,cs)
);
},
{
closed = 1;
nodes = (
(274,132,o),
(202,205,o),
(202,326,cs),
(202,466,o),
(280,552,o),
(395,552,cs),
(498,552,o),
(564,479,o),
(564,358,cs),
(564,218,o),
(491,132,o),
(379,132,cs)
);
}
);
width = 759;
}
);
metricLeft = O;
metricRight = O;
},
{
glyphname = O.ss03;
lastChange = "2021-08-24 19:54:11 +0000";
layers = (
{
layerId = m004;
shapes = (
{
closed = 1;
nodes = (
(463,47,o),
(576,216,o),
(576,420,cs),
(576,610,o),
(468,738,o),
(301,738,cs),
(127,738,o),
(15,600,o),
(15,389,cs),
(15,179,o),
(121,47,o),
(287,47,cs)
);
},
{
closed = 1;
nodes = (
(276,261,o),
(258,306,o),
(258,386,cs),
(258,472,o),
(280,521,o),
(311,521,cs),
(335,521,o),
(350,480,o),
(350,406,cs),
(350,314,o),
(331,261,o),
(302,261,cs)
);
}
);
width = 591;
},
{
layerId = "4BA625B0-8927-4B2E-B2D8-0167ED5E0445";
shapes = (
{
closed = 1;
nodes = (
(591,47,o),
(736,216,o),
(736,420,cs),
(736,610,o),
(596,738,o),
(381,738,cs),
(159,738,o),
(15,600,o),
(15,389,cs),
(15,179,o),
(153,47,o),
(367,47,cs)
);
},
{
closed = 1;
nodes = (
(314,271,o),
(268,316,o),
(268,386,cs),
(268,462,o),
(318,511,o),
(391,511,cs),
(459,511,o),
(500,470,o),
(500,406,cs),
(500,324,o),
(454,271,o),
(382,271,cs)
);
}
);
width = 751;
},
{
layerId = "D96CDDDD-AAEE-4FD8-A377-74226937908C";
shapes = (
{
closed = 1;
nodes = (
(390,47,o),
(479,216,o),
(479,420,cs),
(479,610,o),
(394,738,o),
(263,738,cs),
(126,738,o),
(38,600,o),
(38,389,cs),
(38,179,o),
(121,47,o),
(252,47,cs)
);
},
{
closed = 1;
nodes = (
(212,171,o),
(180,247,o),
(180,383,cs),
(180,528,o),
(219,611,o),
(273,611,cs),
(316,611,o),
(342,542,o),
(342,416,cs),
(342,261,o),
(309,171,o),
(257,171,cs)
);
}
);
width = 517;
},
{
layerId = "1C59D977-65E2-41C6-912A-276E7E987498";
shapes = (
{
closed = 1;
nodes = (
(593,47,o),
(730,216,o),
(730,420,cs),
(730,610,o),
(597,738,o),
(394,738,cs),
(185,738,o),
(49,600,o),
(49,389,cs),
(49,179,o),
(180,47,o),
(383,47,cs)
);
},
{
closed = 1;
nodes = (
(277,181,o),
(201,257,o),
(201,383,cs),
(201,524,o),
(285,610,o),
(404,610,cs),
(515,610,o),
(583,538,o),
(583,416,cs),
(583,271,o),
(508,181,o),
(388,181,cs)
);
}
);
width = 779;
}
);
metricLeft = O;
metricRight = O;
},
{
glyphname = a;
lastChange = "2021-08-24 15:51:16 +0000";
layers = (
{
associatedMasterId = m004;
background = {
shapes = (
{
closed = 1;
nodes = (
(518,-10,o),
(549,35,o),
(549,206,cs),
(549,310,o),
(537,403,o),
(508,477,cs),
(469,576,o),
(402,626,o),
(287,626,cs),
(157,626,o),
(45,565,o),
(45,477,cs),
(45,434,o),
(71,409,o),
(127,409,cs),
(168,409,o),
(211,422,o),
(247,422,cs),
(306,422,o),
(331,388,o),
(340,265,c),
(373,273,l),
(334,318,o),
(279,345,o),
(205,345,cs),
(87,345,o),
(10,275,o),
(10,165,cs),
(10,68,o),
(69,-13,o),
(196,-13,cs),
(282,-13,o),
(342,26,o),
(373,96,c),
(356,101,l),
(363,24,o),
(381,-10,o),
(445,-10,cs)
);
},
{
closed = 1;
nodes = (
(240,131,o),
(219,152,o),
(219,181,cs),
(219,213,o),
(244,237,o),
(283,237,cs),
(314,237,o),
(343,221,o),
(343,187,cs),
(343,149,o),
(305,131,o),
(274,131,cs)
);
}
);
};
layerId = "3830F71B-724E-4D53-9527-35E519E6FF5E";
name = "27 Jul 21, 23:17";
shapes = (
{
closed = 1;
nodes = (
(518,-10,o),
(549,35,o),
(549,206,cs),
(549,310,o),
(537,403,o),
(508,477,cs),
(469,576,o),
(402,626,o),
(287,626,cs),
(157,626,o),
(45,565,o),
(45,477,cs),
(45,434,o),
(71,409,o),
(127,409,cs),
(175,409,o),
(225,422,o),
(267,422,cs),
(306,422,o),
(329,409,o),
(329,380,cs),
(329,352,o),
(301,339,o),
(215,335,cs),
(87,330,o),
(10,275,o),
(10,165,cs),
(10,68,o),
(69,-13,o),
(196,-13,cs),
(282,-13,o),
(342,26,o),
(373,96,c),
(356,101,l),
(363,24,o),
(381,-10,o),
(445,-10,cs)
);
},
{
closed = 1;
nodes = (
(240,131,o),
(219,152,o),
(219,181,cs),
(219,213,o),
(244,237,o),
(283,237,cs),
(314,237,o),
(343,221,o),
(343,187,cs),
(343,149,o),
(305,131,o),
(274,131,cs)
);
}
);
width = 559;
},
{
anchors = (
{
name = bottom;
pos = (225,0);
},
{
name = ogonek;
pos = (452,10);
},
{
name = top;
pos = (205,626);
}
);
background = {
shapes = (
{
closed = 1;
nodes = (
(458,-10,o),
(489,35,o),
(489,206,cs),
(489,310,o),
(477,403,o),
(448,477,cs),
(409,576,o),
(322,626,o),
(207,626,cs),
(77,626,o),
(-35,565,o),
(-35,476,cs),
(-35,430,o),
(-6,399,o),
(45,399,cs),
(91,399,o),
(138,424,o),
(177,424,cs),
(244,424,o),
(281,382,o),
(281,275,c),
(313,273,l),
(274,318,o),
(219,345,o),
(145,345,cs),
(27,345,o),
(-50,275,o),
(-50,165,cs),
(-50,68,o),
(9,-13,o),
(136,-13,cs),
(222,-13,o),
(282,24,o),
(313,96,c),
(296,101,l),
(303,24,o),
(321,-10,o),
(385,-10,cs)
);
},
{
closed = 1;
nodes = (
(180,131,o),
(159,152,o),
(159,181,cs),
(159,213,o),
(184,237,o),
(223,237,cs),
(254,237,o),
(283,221,o),
(283,187,cs),
(283,149,o),
(245,131,o),
(214,131,cs)
);
}
);
};
layerId = m004;
name = Regular;
shapes = (
{
closed = 1;
nodes = (
(421,-10,o),
(449,35,o),
(449,206,cs),
(449,310,o),
(437,403,o),
(408,477,cs),
(370,574,o),
(303,626,o),
(207,626,cs),
(109,626,o),
(25,579,o),
(25,496,cs),
(25,450,o),
(50,419,o),
(95,419,cs),
(124,419,o),
(153,434,o),
(177,434,cs),
(231,434,o),
(261,389,o),
(261,275,c),
(293,273,l),
(263,318,o),
(221,345,o),
(165,345,cs),
(71,345,o),
(10,275,o),
(10,165,cs),
(10,68,o),
(56,-13,o),
(156,-13,cs),
(223,-13,o),
(269,24,o),
(293,96,c),
(276,101,l),
(302,24,o),
(318,-10,o),
(355,-10,cs)
);
},
{
closed = 1;
nodes = (
(209,121,o),
(199,146,o),
(199,181,cs),
(199,219,o),
(212,247,o),
(233,247,cs),
(249,247,o),
(263,228,o),
(263,187,cs),
(263,142,o),
(242,121,o),
(224,121,cs)
);
}
);
width = 469;
},
{
anchors = (
{
name = bottom;
pos = (315,0);
},
{
name = ogonek;
pos = (542,10);
},
{
name = top;
pos = (295,626);
}
);
layerId = "4BA625B0-8927-4B2E-B2D8-0167ED5E0445";
name = Regular;
shapes = (
{
closed = 1;
nodes = (
(567,-10,o),
(599,35,o),
(599,206,cs),
(599,310,o),
(587,403,o),
(558,477,cs),
(519,577,o),
(422,626,o),
(297,626,cs),
(151,626,o),
(25,558,o),
(25,466,cs),
(25,420,o),
(56,389,o),
(110,389,cs),
(165,389,o),
(221,419,o),
(267,419,cs),
(341,419,o),
(381,379,o),
(381,275,c),
(413,273,l),
(370,318,o),
(308,345,o),
(225,345,cs),
(95,345,o),
(10,275,o),
(10,165,cs),
(10,68,o),
(76,-13,o),
(216,-13,cs),
(312,-13,o),
(379,24,o),
(413,96,c),
(396,101,l),
(394,24,o),
(413,-10,o),
(490,-10,cs)
);
},
{
closed = 1;
nodes = (
(256,136,o),
(229,157,o),
(229,186,cs),
(229,218,o),
(260,242,o),
(308,242,cs),
(347,242,o),
(383,227,o),
(383,192,cs),
(383,155,o),
(337,136,o),
(299,136,cs)
);
}
);
width = 619;
},
{
anchors = (
{
name = bottom;
pos = (188,0);
},
{
name = ogonek;
pos = (415,10);
},
{
name = top;
pos = (198,626);
}
);
layerId = "D96CDDDD-AAEE-4FD8-A377-74226937908C";
name = Regular;
shapes = (
{
closed = 1;
nodes = (
(385,-10,o),
(404,25,o),
(404,161,cs),
(404,294,o),
(393,414,o),
(356,507,cs),
(325,584,o),
(274,626,o),
(200,626,cs),
(114,626,o),
(40,574,o),
(40,516,cs),
(40,482,o),
(58,459,o),
(88,459,cs),
(113,459,o),
(143,482,o),
(185,482,cs),
(236,482,o),
(263,428,o),
(269,290,c),
(286,288,l),
(259,333,o),
(223,360,o),
(173,360,cs),
(83,360,o),
(25,287,o),
(25,173,cs),
(25,72,o),
(69,-13,o),
(164,-13,cs),
(227,-13,o),
(271,24,o),
(293,96,c),
(284,101,l),
(293,24,o),
(305,-10,o),
(340,-10,cs)
);
},
{
closed = 1;
nodes = (
(171,99,o),
(154,128,o),
(154,181,cs),
(154,230,o),
(174,262,o),
(211,262,cs),
(242,262,o),
(271,238,o),
(271,187,cs),
(271,127,o),
(232,99,o),
(202,99,cs)
);
}
);
width = 454;
},
{
anchors = (
{
name = bottom;
pos = (334,0);
},
{
name = ogonek;
pos = (561,10);
},
{
name = top;
pos = (276,626);
}
);
layerId = "1C59D977-65E2-41C6-912A-276E7E987498";
name = Regular;
shapes = (
{
closed = 1;
nodes = (
(545,-10,o),
(565,25,o),
(565,161,cs),
(565,281,o),
(551,388,o),
(517,473,cs),
(477,573,o),
(398,626,o),
(290,626,cs),
(156,626,o),
(40,558,o),
(40,486,cs),
(40,452,o),
(59,429,o),
(91,429,cs),
(139,429,o),
(196,478,o),
(275,478,cs),
(364,478,o),
(412,425,o),
(422,290,c),
(439,288,l),
(394,333,o),
(330,360,o),
(244,360,cs),
(112,360,o),
(25,287,o),
(25,173,cs),
(25,72,o),
(92,-13,o),
(235,-13,cs),
(338,-13,o),
(410,24,o),
(447,96,c),
(437,101,l),
(440,24,o),
(452,-10,o),
(498,-10,cs)
);
},
{
closed = 1;
nodes = (
(202,102,o),
(162,130,o),
(162,181,cs),
(162,227,o),
(205,258,o),
(286,258,cs),
(358,258,o),
(424,235,o),
(424,187,cs),
(424,130,o),
(343,102,o),
(277,102,cs)
);
}
);
width = 626;
}
);
metricRight = n;
unicode = 97;
},
{
glyphname = b;
lastChange = "2021-08-24 15:56:49 +0000";
layers = (
{
anchors = (
{
name = bottom;
pos = (270,0);
},
{
name = center;
pos = (270,310);
},
{
name = top;
pos = (270,620);
}
);
layerId = m004;
shapes = (
{
closed = 1;
nodes = (
(160,-10,o),
(190,33,o),
(203,129,c),
(182,140,l),
(194,47,o),
(239,-4,o),
(300,-4,cs),
(406,-4,o),
(484,99,o),
(484,306,cs),
(484,502,o),
(426,592,o),
(333,592,cs),
(257,592,o),
(215,525,o),
(199,439,c),
(211,433,l),
(228,515,o),
(237,600,o),
(237,659,cs),
(237,727,o),
(208,781,o),
(144,781,cs),
(83,781,o),
(55,733,o),
(42,656,cs),
(30,581,o),
(20,403,o),
(20,298,cs),
(20,203,o),
(28,115,o),
(39,63,cs),
(51,14,o),
(76,-10,o),
(114,-10,cs)
);
},
{
closed = 1;
nodes = (
(223,164,o),
(205,219,o),
(205,297,cs),
(205,378,o),
(223,418,o),
(250,418,cs),
(283,418,o),
(296,368,o),
(296,296,cs),
(296,205,o),
(275,164,o),
(252,164,cs)
);
}
);
width = 499;
},
{
anchors = (
{
name = bottom;
pos = (300,0);
},
{
name = center;
pos = (300,310);
},
{
name = top;
pos = (300,620);
}
);
layerId = "4BA625B0-8927-4B2E-B2D8-0167ED5E0445";
shapes = (
{
closed = 1;
nodes = (
(183,-10,o),
(217,33,o),
(233,129,c),
(212,140,l),
(229,47,o),
(290,-4,o),
(375,-4,cs),
(507,-4,o),
(604,99,o),
(604,306,cs),
(604,502,o),
(528,592,o),
(408,592,cs),
(307,592,o),
(251,525,o),
(229,439,c),
(241,433,l),
(258,515,o),
(267,600,o),
(267,659,cs),
(267,727,o),
(234,781,o),
(159,781,cs),
(89,781,o),
(55,733,o),
(42,656,cs),
(30,581,o),
(20,403,o),
(20,298,cs),
(20,203,o),
(28,115,o),
(39,63,cs),
(51,14,o),
(84,-10,o),
(129,-10,cs)
);
},
{
closed = 1;
nodes = (
(265,164,o),
(235,219,o),
(235,297,cs),
(235,378,o),
(265,418,o),
(310,418,cs),
(364,418,o),
(386,368,o),
(386,296,cs),
(386,205,o),
(352,164,o),
(312,164,cs)
);
}
);
width = 619;
},
{
anchors = (
{
name = bottom;
pos = (278,0);
},
{
name = center;
pos = (278,310);
},
{
name = top;
pos = (278,620);
}
);
layerId = "D96CDDDD-AAEE-4FD8-A377-74226937908C";
shapes = (
{
closed = 1;
nodes = (
(152,-10,o),
(172,33,o),
(177,129,c),
(163,140,l),
(175,47,o),
(223,-4,o),
(285,-4,cs),
(387,-4,o),
(462,99,o),
(462,306,cs),
(462,502,o),
(401,592,o),
(303,592,cs),
(228,592,o),
(178,523,o),
(162,439,c),
(181,463,l),
(198,545,o),
(207,630,o),
(207,689,cs),
(207,741,o),
(188,781,o),
(144,781,cs),
(101,781,o),
(84,744,o),
(75,686,cs),
(62,605,o),
(50,412,o),
(50,298,cs),
(50,197,o),
(57,103,o),
(69,48,cs),
(79,10,o),
(95,-10,o),
(122,-10,cs)
);
},
{
closed = 1;
nodes = (
(207,112,o),
(175,189,o),
(175,299,cs),
(175,419,o),
(208,478,o),
(258,478,cs),
(312,478,o),
(334,404,o),
(334,298,cs),
(334,170,o),
(299,112,o),
(260,112,cs)
);
}
);
width = 496;
},
{
anchors = (
{
name = bottom;
pos = (296,0);
},
{
name = center;
pos = (296,310);
},
{
name = top;
pos = (296,620);
}
);
layerId = "1C59D977-65E2-41C6-912A-276E7E987498";
shapes = (
{
closed = 1;
nodes = (
(169,-10,o),
(190,33,o),
(196,129,c),
(182,140,l),
(199,47,o),
(265,-4,o),
(349,-4,cs),
(483,-4,o),
(582,99,o),
(582,306,cs),
(582,502,o),
(498,592,o),
(367,592,cs),
(267,592,o),
(202,523,o),
(180,439,c),
(200,463,l),
(217,545,o),
(226,630,o),
(226,689,cs),
(226,741,o),
(206,781,o),
(159,781,cs),
(114,781,o),
(96,744,o),
(86,686,cs),
(73,605,o),
(61,412,o),
(61,298,cs),
(61,197,o),
(69,103,o),
(80,48,cs),
(90,10,o),
(108,-10,o),
(137,-10,cs)
);
},
{
closed = 1;
nodes = (
(243,112,o),
(194,189,o),
(194,299,cs),
(194,419,o),
(243,478,o),
(318,478,cs),
(410,478,o),
(446,404,o),
(446,298,cs),
(446,170,o),
(387,112,o),
(320,112,cs)
);
}
);
width = 622;
}
);
metricLeft = n;
metricRight = o;
unicode = 98;
},
{
glyphname = c;
lastChange = "2021-08-24 15:07:39 +0000";
layers = (
{
anchors = (
{
name = bottom;
pos = (209,0);
},
{
name = top;
pos = (209,620);
}
);
layerId = m004;
shapes = (
{
closed = 1;
nodes = (
(352,-11,o),
(407,43,o),
(407,128,cs),
(407,196,o),
(362,231,o),
(301,231,cs),
(285,231,o),
(268,227,o),
(257,227,cs),
(230,227,o),
(213,246,o),
(213,294,cs),
(213,342,o),
(228,368,o),
(259,368,cs),
(270,368,o),
(284,363,o),
(301,363,cs),
(380,363,o),
(423,406,o),
(423,476,cs),
(423,554,o),
(375,600,o),
(286,600,cs),
(115,600,o),
(15,459,o),
(15,261,cs),
(15,90,o),
(86,-11,o),
(241,-11,cs)
);
}
);
width = 428;
},
{
anchors = (
{
name = bottom;
pos = (269,0);
},
{
name = top;
pos = (269,620);
}
);
layerId = "4BA625B0-8927-4B2E-B2D8-0167ED5E0445";
shapes = (
{
closed = 1;
nodes = (
(438,-11,o),
(512,55,o),
(512,160,cs),
(512,232,o),
(467,270,o),
(406,270,cs),
(374,270,o),
(339,257,o),
(317,257,cs),
(272,257,o),
(243,269,o),
(243,294,cs),
(243,323,o),
(269,338,o),
(319,338,cs),
(342,338,o),
(371,333,o),
(406,333,cs),
(485,333,o),
(528,376,o),
(528,446,cs),
(528,542,o),
(464,600,o),
(346,600,cs),
(138,600,o),
(15,459,o),
(15,261,cs),
(15,90,o),
(100,-11,o),
(286,-11,cs)
);
}
);
width = 533;
},
{
anchors = (
{
name = bottom;
pos = (205,0);
},
{
name = top;
pos = (205,620);
}
);
layerId = "D96CDDDD-AAEE-4FD8-A377-74226937908C";
shapes = (
{
closed = 1;
nodes = (
(318,-11,o),
(366,40,o),
(366,91,cs),
(366,127,o),
(343,146,o),
(312,146,cs),
(290,146,o),
(271,130,o),
(238,130,cs),
(193,130,o),
(164,176,o),
(164,287,cs),
(164,403,o),
(194,466,o),
(255,466,cs),
(281,466,o),
(297,453,o),
(312,453,cs),
(358,453,o),
(382,476,o),
(382,514,cs),
(382,564,o),
(344,600,o),
(275,600,cs),
(123,600,o),
(34,459,o),
(34,261,cs),
(34,90,o),
(93,-11,o),
(222,-11,cs)
);
}
);
width = 386.75;
},
{
anchors = (
{
name = bottom;
pos = (271,0);
},
{
name = top;
pos = (271,620);
}
);
layerId = "1C59D977-65E2-41C6-912A-276E7E987498";
shapes = (
{
closed = 1;
nodes = (
(458,-11,o),
(533,49,o),
(533,111,cs),
(533,147,o),
(510,167,o),
(480,167,cs),
(434,167,o),
(394,137,o),
(327,137,cs),
(235,137,o),
(178,182,o),
(178,287,cs),
(178,398,o),
(233,458,o),
(344,458,cs),
(407,458,o),
(442,434,o),
(480,434,cs),
(525,434,o),
(549,457,o),
(549,495,cs),
(549,556,o),
(484,600,o),
(363,600,cs),
(160,600,o),
(40,459,o),
(40,261,cs),
(40,90,o),
(123,-11,o),
(307,-11,cs)
);
}
);
width = 553.625;
}
);
metricLeft = o;
unicode = 99;
},
{
glyphname = d;
lastChange = "2021-08-24 15:56:24 +0000";
layers = (
{
anchors = (
{
name = bottom;
pos = (236,0);
},
{
name = center;
pos = (236,310);
},
{
name = top;
pos = (236,800);
},
{
name = topright;
pos = (512,800);
}
);
layerId = m004;
shapes = (
{
closed = 1;
nodes = (
(244,-14,o),
(299,39,o),
(328,122,c),
(308,122,l),
(311,28,o),
(325,-10,o),
(376,-10,cs),
(444,-10,o),
(492,52,o),
(492,275,cs),
(492,398,o),
(477,565,o),
(458,649,cs),
(436,742,o),
(400,788,o),
(340,788,cs),
(288,788,o),
(265,751,o),
(265,687,cs),
(265,644,o),
(275,548,o),
(288,477,c),
(304,481,l),
(268,539,o),
(225,573,o),
(166,573,cs),
(69,573,o),
(15,484,o),
(15,284,cs),
(15,82,o),
(73,-14,o),
(171,-14,cs)
);
},
{
closed = 1;
nodes = (
(228,164,o),
(210,215,o),
(210,287,cs),
(210,368,o),
(228,408,o),
(255,408,cs),
(288,408,o),
(301,358,o),
(301,286,cs),
(301,202,o),
(280,164,o),
(257,164,cs)
);
}
);
width = 512;
},
{
anchors = (
{
name = bottom;
pos = (326,0);
},
{
name = center;
pos = (326,310);
},
{
name = top;
pos = (326,800);
},
{
name = topright;
pos = (602,800);
}
);
layerId = "4BA625B0-8927-4B2E-B2D8-0167ED5E0445";
shapes = (
{
closed = 1;
nodes = (
(310,-14,o),
(382,39,o),
(418,122,c),
(398,122,l),
(401,28,o),
(420,-10,o),
(481,-10,cs),
(558,-10,o),
(612,52,o),
(612,275,cs),
(612,398,o),
(597,565,o),
(578,649,cs),
(556,742,o),
(513,788,o),
(445,788,cs),
(383,788,o),
(355,751,o),
(355,687,cs),
(355,644,o),
(365,548,o),
(378,477,c),
(394,481,l),
(346,539,o),
(290,573,o),
(211,573,cs),
(86,573,o),
(15,484,o),
(15,284,cs),
(15,82,o),
(90,-14,o),
(216,-14,cs)
);
},
{
closed = 1;
nodes = (
(270,164,o),
(240,215,o),
(240,287,cs),
(240,368,o),
(270,408,o),
(315,408,cs),
(369,408,o),
(391,358,o),
(391,286,cs),
(391,202,o),
(357,164,o),
(317,164,cs)
);
}
);
width = 632;
},
{
anchors = (
{
name = bottom;
pos = (225,0);
},
{
name = center;
pos = (225,310);
},
{
name = top;
pos = (225,800);
},
{
name = topright;
pos = (501,800);
}
);
layerId = "D96CDDDD-AAEE-4FD8-A377-74226937908C";
shapes = (
{
closed = 1;
nodes = (
(263,-14,o),
(313,39,o),
(339,122,c),
(325,122,l),
(322,28,o),
(333,-10,o),
(372,-10,cs),
(419,-10,o),
(451,45,o),
(451,245,cs),
(451,388,o),
(430,566,o),
(405,672,cs),
(387,751,o),
(362,788,o),
(319,788,cs),
(290,788,o),
(276,762,o),
(276,717,cs),
(276,668,o),
(296,558,o),
(314,477,c),
(323,481,l),
(291,539,o),
(253,573,o),
(200,573,cs),
(93,573,o),
(34,484,o),
(34,284,cs),
(34,82,o),
(95,-14,o),
(197,-14,cs)
);
},
{
closed = 1;
nodes = (
(199,110,o),
(169,183,o),
(169,286,cs),
(169,402,o),
(199,459,o),
(244,459,cs),
(298,459,o),
(327,387,o),
(327,285,cs),
(327,165,o),
(290,110,o),
(247,110,cs)
);
}
);
width = 500.75;
},
{
anchors = (
{
name = bottom;
pos = (332,0);
},
{
name = center;
pos = (332,310);
},
{
name = top;
pos = (332,800);
},
{
name = topright;
pos = (608,800);
}
);
layerId = "1C59D977-65E2-41C6-912A-276E7E987498";
shapes = (
{
closed = 1;
nodes = (
(340,-14,o),
(411,39,o),
(447,122,c),
(432,122,l),
(429,28,o),
(441,-10,o),
(483,-10,cs),
(532,-10,o),
(566,45,o),
(566,245,cs),
(566,388,o),
(545,566,o),
(520,672,cs),
(501,751,o),
(475,788,o),
(430,788,cs),
(398,788,o),
(384,762,o),
(384,717,cs),
(384,668,o),
(403,558,o),
(422,477,c),
(430,481,l),
(384,539,o),
(328,573,o),
(251,573,cs),
(115,573,o),
(40,484,o),
(40,284,cs),
(40,82,o),
(117,-14,o),
(248,-14,cs)
);
},
{
closed = 1;
nodes = (
(229,110,o),
(182,183,o),
(182,286,cs),
(182,402,o),
(229,459,o),
(299,459,cs),
(387,459,o),
(435,387,o),
(435,285,cs),
(435,165,o),
(372,110,o),
(301,110,cs)
);
}
);
width = 627;
}
);
metricLeft = o;
metricRight = "=|n";
unicode = 100;
},
{
glyphname = e;
lastChange = "2021-08-24 15:51:04 +0000";
layers = (
{
anchors = (
{
name = bottom;
pos = (275,0);
},
{
name = ogonek;
pos = (510,10);
},
{
name = top;
pos = (295,612);
}
);
layerId = m004;
shapes = (
{
closed = 1;
nodes = (
(399,-8,o),
(474,52,o),
(474,131,cs),
(474,194,o),
(428,219,o),
(392,219,cs),
(344,219,o),
(323,173,o),
(253,173,cs),
(215,173,o),
(194,195,o),
(194,252,cs),
(194,268,o),
(195,284,o),
(197,300,c),
(173,259,l),
(192,248,o),
(218,241,o),
(244,241,cs),
(364,241,o),
(448,317,o),
(448,440,cs),
(448,542,o),
(394,612,o),
(276,612,cs),
(125,612,o),
(15,485,o),
(15,268,cs),
(15,96,o),
(80,-8,o),
(259,-8,cs)
);
},
{
closed = 1;
nodes = (
(211,341,o),
(199,359,o),
(199,391,cs),
(199,446,o),
(227,497,o),
(259,497,cs),
(278,497,o),
(289,474,o),
(289,443,cs),
(289,385,o),
(262,341,o),
(231,341,cs)
);
}
);
width = 479;
},
{
anchors = (
{
name = bottom;
pos = (305,0);
},
{
name = ogonek;
pos = (540,10);
},
{
name = top;
pos = (325,612);
}
);
layerId = "4BA625B0-8927-4B2E-B2D8-0167ED5E0445";
shapes = (
{
closed = 1;
nodes = (
(539,-8,o),
(639,58,o),
(639,146,cs),
(639,209,o),
(593,234,o),
(557,234,cs),
(505,234,o),
(451,188,o),
(343,188,cs),
(268,188,o),
(224,210,o),
(224,267,cs),
(224,283,o),
(225,299,o),
(227,315,c),
(203,259,l),
(239,248,o),
(286,241,o),
(334,241,cs),
(490,241,o),
(598,317,o),
(598,440,cs),
(598,542,o),
(526,612,o),
(366,612,cs),
(163,612,o),
(15,485,o),
(15,268,cs),
(15,96,o),
(104,-8,o),
(349,-8,cs)
);
},
{
closed = 1;
nodes = (
(252,341,o),
(229,358,o),
(229,387,cs),
(229,432,o),
(286,472,o),
(349,472,cs),
(386,472,o),
(409,451,o),
(409,422,cs),
(409,376,o),
(355,341,o),
(291,341,cs)
);
}
);
width = 644;
},
{
anchors = (
{
name = bottom;
pos = (249,0);
},
{
name = ogonek;
pos = (484,10);
},
{
name = top;
pos = (269,612);
}
);
layerId = "D96CDDDD-AAEE-4FD8-A377-74226937908C";
shapes = (
{
closed = 1;
nodes = (
(376,-8,o),
(440,50,o),
(440,109,cs),
(440,144,o),
(415,167,o),
(388,167,cs),
(353,167,o),
(330,132,o),
(249,132,cs),
(187,132,o),
(153,168,o),
(153,260,cs),
(153,276,o),
(154,292,o),
(156,308,c),
(132,267,l),
(157,241,o),
(191,226,o),
(225,226,cs),
(337,226,o),
(414,305,o),
(414,433,cs),
(414,539,o),
(363,612,o),
(257,612,cs),
(128,612,o),
(34,485,o),
(34,268,cs),
(34,96,o),
(93,-8,o),
(255,-8,cs)
);
},
{
closed = 1;
nodes = (
(184,319,o),
(165,340,o),
(165,379,cs),
(165,448,o),
(199,512,o),
(246,512,cs),
(283,512,o),
(300,479,o),
(300,432,cs),
(300,368,o),
(267,319,o),
(216,319,cs)
);
}
);
width = 467.75;
},
{
anchors = (
{
name = bottom;
pos = (319,0);
},
{
name = ogonek;
pos = (554,10);
},
{
name = top;
pos = (339,612);
}
);
layerId = "1C59D977-65E2-41C6-912A-276E7E987498";
shapes = (
{
closed = 1;
nodes = (
(528,-8,o),
(623,51,o),
(623,112,cs),
(623,151,o),
(598,175,o),
(571,175,cs),
(519,175,o),
(476,132,o),
(345,132,cs),
(231,132,o),
(166,169,o),
(166,263,cs),
(166,279,o),
(167,295,o),
(169,311,c),
(145,267,l),
(190,241,o),
(249,226,o),
(310,226,cs),
(470,226,o),
(582,305,o),
(582,433,cs),
(582,539,o),
(515,612,o),
(365,612,cs),
(176,612,o),
(40,485,o),
(40,268,cs),
(40,96,o),
(123,-8,o),
(351,-8,cs)
);
},
{
closed = 1;
nodes = (
(221,319,o),
(179,340,o),
(179,379,cs),
(179,444,o),
(252,503,o),
(353,503,cs),
(426,503,o),
(460,470,o),
(460,423,cs),
(460,364,o),
(393,319,o),
(293,319,cs)
);
}
);
width = 649.625;
}
);
metricLeft = o;
unicode = 101;
},
{
glyphname = f;
lastChange = "2021-08-24 15:50:11 +0000";
layers = (
{
anchors = (
{
name = bottom;
pos = (212,0);
},
{
name = top;
pos = (212,800);
}
);
layerId = m004;
shapes = (
{
closed = 1;
nodes = (
(139,579,o),
(122,584,o),
(104,584,cs),
(43,584,o),
(5,545,o),
(5,476,cs),
(5,410,o),
(38,379,o),
(97,379,cs),
(123,379,o),
(145,387,o),
(163,405,c),
(143,410,l),
(112,318,o),
(95,210,o),
(95,137,cs),
(95,53,o),
(127,-10,o),
(210,-10,cs),
(286,-10,o),
(323,62,o),
(323,148,cs),
(323,223,o),
(304,327,o),
(276,401,c),
(271,390,l),
(287,382,o),
(303,379,o),
(318,379,cs),
(375,379,o),
(419,415,o),
(419,486,cs),
(419,560,o),
(379,589,o),
(319,589,cs),
(301,589,o),
(281,582,o),
(267,570,c),
(278,568,l),
(278,614,o),
(287,627,o),
(331,631,cs),
(382,636,o),
(409,666,o),
(409,714,cs),
(409,772,o),
(379,804,o),
(308,804,cs),
(179,804,o),
(131,742,o),
(131,642,cs),
(131,620,o),
(134,597,o),
(140,572,c),
(151,572,l)
);
}
);
width = 424;
},
{
anchors = (
{
name = bottom;
pos = (257,0);
},
{
name = top;
pos = (257,800);
}
);
layerId = "4BA625B0-8927-4B2E-B2D8-0167ED5E0445";
shapes = (
{
closed = 1;
nodes = (
(165,579,o),
(143,584,o),
(119,584,cs),
(49,584,o),
(5,545,o),
(5,476,cs),
(5,410,o),
(44,379,o),
(112,379,cs),
(144,379,o),
(171,387,o),
(193,405,c),
(173,410,l),
(142,318,o),
(125,210,o),
(125,137,cs),
(125,53,o),
(162,-10,o),
(255,-10,cs),
(342,-10,o),
(383,62,o),
(383,148,cs),
(383,223,o),
(364,327,o),
(336,401,c),
(331,390,l),
(352,382,o),
(374,379,o),
(393,379,cs),
(459,379,o),
(509,415,o),
(509,486,cs),
(509,560,o),
(463,589,o),
(394,589,cs),
(370,589,o),
(346,582,o),
(327,570,c),
(338,568,l),
(338,614,o),
(350,626,o),
(406,631,cs),
(457,636,o),
(484,666,o),
(484,714,cs),
(484,772,o),
(445,804,o),
(353,804,cs),
(214,804,o),
(161,742,o),
(161,642,cs),
(161,620,o),
(164,597,o),
(170,572,c),
(181,572,l)
);
}
);
width = 514;
},
{
anchors = (
{
name = bottom;
pos = (190,0);
},
{
name = top;
pos = (190,800);
}
);
layerId = "D96CDDDD-AAEE-4FD8-A377-74226937908C";
shapes = (
{
closed = 1;
nodes = (
(142,569,o),
(121,574,o),
(97,574,cs),
(49,574,o),
(20,545,o),
(20,494,cs),
(20,447,o),
(43,424,o),
(82,424,cs),
(114,424,o),
(141,431,o),
(163,446,c),
(151,455,l),
(124,339,o),
(110,201,o),
(110,107,cs),
(110,40,o),
(131,-10,o),
(184,-10,cs),
(237,-10,o),
(263,49,o),
(263,118,cs),
(263,219,o),
(250,354,o),
(231,454,c),
(226,439,l),
(250,429,o),
(274,424,o),
(296,424,cs),
(336,424,o),
(367,451,o),
(367,504,cs),
(367,558,o),
(339,579,o),
(297,579,cs),
(268,579,o),
(237,572,o),
(215,560,c),
(232,558,l),
(236,635,o),
(247,659,o),
(295,664,cs),
(336,668,o),
(357,693,o),
(357,734,cs),
(357,780,o),
(331,804,o),
(271,804,cs),
(175,804,o),
(139,744,o),
(139,647,cs),
(139,621,o),
(142,591,o),
(148,562,c),
(159,562,l)
);
}
);
width = 386.5;
},
{
anchors = (
{
name = bottom;
pos = (268,0);
},
{
name = top;
pos = (268,800);
}
);
layerId = "1C59D977-65E2-41C6-912A-276E7E987498";
shapes = (
{
closed = 1;
nodes = (
(205,569,o),
(166,574,o),
(123,574,cs),
(60,574,o),
(20,545,o),
(20,494,cs),
(20,447,o),
(52,424,o),
(108,424,cs),
(160,424,o),
(203,431,o),
(238,446,c),
(226,455,l),
(199,339,o),
(185,201,o),
(185,107,cs),
(185,40,o),
(207,-10,o),
(263,-10,cs),
(319,-10,o),
(346,49,o),
(346,118,cs),
(346,219,o),
(333,354,o),
(314,454,c),
(309,439,l),
(345,429,o),
(382,424,o),
(416,424,cs),
(471,424,o),
(513,451,o),
(513,504,cs),
(513,558,o),
(474,579,o),
(417,579,cs),
(375,579,o),
(330,572,o),
(297,560,c),
(315,558,l),
(321,635,o),
(341,656,o),
(415,664,cs),
(463,668,o),
(488,693,o),
(488,734,cs),
(488,780,o),
(457,804,o),
(383,804,cs),
(260,804,o),
(214,744,o),
(214,647,cs),
(214,621,o),
(217,591,o),
(223,562,c),
(234,562,l)
);
}
);
width = 532.75;
}
);
unicode = 102;
},
{
glyphname = g;
lastChange = "2021-08-24 15:07:39 +0000";
layers = (
{
anchors = (
{
name = bottom;
pos = (236,-200);
},
{
name = top;
pos = (236,620);
}
);
layerId = m004;
shapes = (
{
closed = 1;
nodes = (
(244,46,o),
(299,95,o),
(328,172,c),
(314,162,l),
(316,141,o),
(317,122,o),
(317,108,cs),
(317,36,o),
(290,-4,o),
(217,-4,cs),
(176,-4,o),
(142,4,o),
(111,4,cs),
(58,4,o),
(32,-33,o),
(32,-80,cs),
(32,-146,o),
(74,-196,o),
(192,-196,cs),
(292,-196,o),
(366,-155,o),
(420,-89,cs),
(472,-26,o),
(492,63,o),
(492,255,cs),
(492,347,o),
(483,444,o),
(469,502,cs),
(450,586,o),
(416,632,o),
(356,632,cs),
(304,632,o),
(281,595,o),
(281,531,cs),
(281,520,o),
(284,495,o),
(288,477,c),
(304,521,l),
(268,579,o),
(225,613,o),
(166,613,cs),
(69,613,o),
(15,524,o),
(15,324,cs),
(15,136,o),
(73,46,o),
(171,46,cs)
);
},
{
closed = 1;
nodes = (
(228,214,o),
(210,259,o),
(210,337,cs),
(210,418,o),
(228,458,o),
(255,458,cs),
(288,458,o),
(301,408,o),
(301,336,cs),
(301,245,o),
(280,214,o),
(257,214,cs)
);
}
);
width = 512;
},
{
anchors = (
{
name = bottom;
pos = (326,-200);
},
{
name = top;
pos = (326,620);
}
);
layerId = "4BA625B0-8927-4B2E-B2D8-0167ED5E0445";
shapes = (
{
closed = 1;
nodes = (
(310,46,o),
(382,95,o),
(418,172,c),
(404,162,l),
(406,141,o),
(407,122,o),
(407,108,cs),
(407,45,o),
(371,11,o),
(277,11,cs),
(214,11,o),
(160,19,o),
(111,19,cs),
(58,19,o),
(32,-24,o),
(32,-80,cs),
(32,-146,o),
(86,-196,o),
(237,-196,cs),
(370,-196,o),
(479,-163,o),
(540,-89,cs),
(592,-26,o),
(612,63,o),
(612,255,cs),
(612,347,o),
(603,444,o),
(589,502,cs),
(570,586,o),
(529,632,o),
(461,632,cs),
(399,632,o),
(371,595,o),
(371,531,cs),
(371,520,o),
(374,495,o),
(378,477,c),
(394,521,l),
(346,579,o),
(290,613,o),
(211,613,cs),
(86,613,o),
(15,524,o),
(15,324,cs),
(15,136,o),
(90,46,o),
(216,46,cs)
);
},
{
closed = 1;
nodes = (
(270,214,o),
(240,259,o),
(240,337,cs),
(240,418,o),
(270,458,o),
(315,458,cs),
(369,458,o),
(391,408,o),
(391,336,cs),
(391,245,o),
(357,214,o),
(317,214,cs)
);
}
);
width = 632;
},
{
anchors = (
{
name = bottom;
pos = (217,-200);
},
{
name = top;
pos = (217,620);
}
);
layerId = "D96CDDDD-AAEE-4FD8-A377-74226937908C";
shapes = (
{
closed = 1;
nodes = (
(255,16,o),
(306,71,o),
(332,157,c),
(318,162,l),
(320,141,o),
(321,122,o),
(321,108,cs),
(321,-8,o),
(289,-72,o),
(206,-72,cs),
(163,-72,o),
(131,-56,o),
(107,-56,cs),
(69,-56,o),
(51,-80,o),
(51,-110,cs),
(51,-159,o),
(87,-196,o),
(188,-196,cs),
(272,-196,o),
(335,-165,o),
(379,-112,cs),
(433,-46,o),
(451,50,o),
(451,255,cs),
(451,358,o),
(437,467,o),
(420,532,cs),
(406,596,o),
(385,632,o),
(345,632,cs),
(309,632,o),
(292,600,o),
(292,546,cs),
(292,535,o),
(295,510,o),
(299,492,c),
(308,506,l),
(279,574,o),
(238,613,o),
(185,613,cs),
(94,613,o),
(34,520,o),
(34,309,cs),
(34,111,o),
(98,16,o),
(190,16,cs)
);
},
{
closed = 1;
nodes = (
(184,139,o),
(161,205,o),
(161,319,cs),
(161,437,o),
(183,496,o),
(233,496,cs),
(287,496,o),
(320,422,o),
(320,317,cs),
(320,184,o),
(275,139,o),
(235,139,cs)
);
}
);
width = 500.75;
},
{
anchors = (
{
name = bottom;
pos = (336,-200);
},
{
name = top;
pos = (336,620);
}
);
layerId = "1C59D977-65E2-41C6-912A-276E7E987498";
shapes = (
{
closed = 1;
nodes = (
(344,16,o),
(414,71,o),
(450,157,c),
(436,162,l),
(438,141,o),
(439,122,o),
(439,108,cs),
(439,-6,o),
(390,-68,o),
(261,-68,cs),
(196,-68,o),
(148,-52,o),
(113,-52,cs),
(75,-52,o),
(57,-77,o),
(57,-110,cs),
(57,-159,o),
(105,-196,o),
(239,-196,cs),
(356,-196,o),
(447,-159,o),
(505,-89,cs),
(557,-26,o),
(577,63,o),
(577,255,cs),
(577,358,o),
(563,467,o),
(546,532,cs),
(532,596,o),
(509,632,o),
(467,632,cs),
(428,632,o),
(411,600,o),
(411,546,cs),
(411,535,o),
(414,510,o),
(418,492,c),
(426,506,l),
(384,574,o),
(324,613,o),
(247,613,cs),
(123,613,o),
(40,520,o),
(40,309,cs),
(40,111,o),
(127,16,o),
(252,16,cs)
);
},
{
closed = 1;
nodes = (
(209,139,o),
(175,205,o),
(175,319,cs),
(175,437,o),
(209,496,o),
(287,496,cs),
(382,496,o),
(438,422,o),
(438,317,cs),
(438,184,o),
(359,139,o),
(290,139,cs)
);
}
);
width = 637.625;
}
);
metricLeft = o;
metricRight = "=|n";
unicode = 103;
},
{
glyphname = h;
lastChange = "2021-08-24 15:07:39 +0000";
layers = (
{
anchors = (
{
name = bottom;
pos = (287,0);
},
{
name = center;
pos = (287,400);
},
{
name = top;
pos = (287,800);
}
);
layerId = m004;
shapes = (
{
closed = 1;
nodes = (
(70,792,o),
(20,705,o),
(20,506,cs),
(20,405,o),
(31,227,o),
(46,132,cs),
(65,11,o),
(103,-9,o),
(163,-9,cs),
(220,-9,o),
(263,32,o),
(263,135,cs),
(263,199,o),
(254,240,o),
(254,286,cs),
(254,354,o),
(270,395,o),
(293,395,cs),
(310,395,o),
(319,368,o),
(319,313,cs),
(319,261,o),
(308,195,o),
(308,135,cs),
(308,53,o),
(339,10,o),
(398,10,cs),
(472,10,o),
(523,76,o),
(523,262,cs),
(523,355,o),
(510,437,o),
(482,499,cs),
(453,563,o),
(411,597,o),
(357,597,cs),
(303,597,o),
(249,553,o),
(219,489,c),
(225,489,l),
(239,539,o),
(247,613,o),
(247,669,cs),
(247,750,o),
(226,792,o),
(163,792,cs)
);
}
);
width = 543;
},
{
anchors = (
{
name = bottom;
pos = (317,0);
},
{
name = center;
pos = (317,400);
},
{
name = top;
pos = (317,800);
}
);
layerId = "4BA625B0-8927-4B2E-B2D8-0167ED5E0445";
shapes = (
{
closed = 1;
nodes = (
(75,792,o),
(20,705,o),
(20,506,cs),
(20,405,o),
(31,227,o),
(46,132,cs),
(65,11,o),
(111,-9,o),
(178,-9,cs),
(244,-9,o),
(293,32,o),
(293,135,cs),
(293,199,o),
(284,240,o),
(284,286,cs),
(284,354,o),
(309,395,o),
(346,395,cs),
(376,395,o),
(394,368,o),
(394,313,cs),
(394,261,o),
(383,195,o),
(383,135,cs),
(383,53,o),
(419,10,o),
(488,10,cs),
(571,10,o),
(628,76,o),
(628,262,cs),
(628,340,o),
(615,437,o),
(584,499,cs),
(551,566,o),
(497,597,o),
(429,597,cs),
(357,597,o),
(290,553,o),
(249,489,c),
(255,489,l),
(269,539,o),
(277,613,o),
(277,669,cs),
(277,750,o),
(252,792,o),
(178,792,cs)
);
}
);
width = 648;
},
{
anchors = (
{
name = bottom;
pos = (295,0);
},
{
name = center;
pos = (295,400);
},
{
name = top;
pos = (295,800);
}
);
layerId = "D96CDDDD-AAEE-4FD8-A377-74226937908C";
shapes = (
{
closed = 1;
nodes = (
(85,792,o),
(50,710,o),
(50,521,cs),
(50,402,o),
(64,214,o),
(81,110,cs),
(97,9,o),
(121,-9,o),
(163,-9,cs),
(199,-9,o),
(226,17,o),
(226,83,cs),
(226,142,o),
(209,219,o),
(209,279,cs),
(209,393,o),
(239,463,o),
(282,463,cs),
(311,463,o),
(327,413,o),
(327,313,cs),
(327,254,o),
(316,180,o),
(316,113,cs),
(316,46,o),
(336,10,o),
(376,10,cs),
(432,10,o),
(471,76,o),
(471,262,cs),
(471,358,o),
(462,445,o),
(433,507,cs),
(404,566,o),
(369,597,o),
(318,597,cs),
(263,597,o),
(209,541,o),
(178,459,c),
(184,459,l),
(196,539,o),
(202,634,o),
(202,692,cs),
(202,758,o),
(189,792,o),
(149,792,cs)
);
}
);
width = 520.5;
},
{
anchors = (
{
name = bottom;
pos = (313,0);
},
{
name = center;
pos = (313,400);
},
{
name = top;
pos = (313,800);
}
);
layerId = "1C59D977-65E2-41C6-912A-276E7E987498";
shapes = (
{
closed = 1;
nodes = (
(98,792,o),
(61,710,o),
(61,521,cs),
(61,402,o),
(75,214,o),
(92,110,cs),
(108,9,o),
(134,-9,o),
(178,-9,cs),
(216,-9,o),
(244,17,o),
(244,83,cs),
(244,142,o),
(228,219,o),
(228,279,cs),
(228,393,o),
(278,463,o),
(351,463,cs),
(412,463,o),
(447,413,o),
(447,313,cs),
(447,254,o),
(436,180,o),
(436,113,cs),
(436,46,o),
(457,10,o),
(499,10,cs),
(558,10,o),
(598,76,o),
(598,262,cs),
(598,339,o),
(583,433,o),
(553,495,cs),
(519,565,o),
(462,597,o),
(392,597,cs),
(314,597,o),
(241,541,o),
(197,459,c),
(203,459,l),
(214,539,o),
(221,634,o),
(221,692,cs),
(221,758,o),
(206,792,o),
(164,792,cs)
);
}
);
width = 659.25;
}
);
metricLeft = n;
metricRight = n;
unicode = 104;
},
{
glyphname = i;
lastChange = "2021-08-24 15:07:39 +0000";
layers = (
{
anchors = (
{
name = bottom;
pos = (128,0);
}
);
layerId = m004;
shapes = (
{
closed = 1;
nodes = (
(69,767,o),
(25,733,o),
(25,668,cs),
(25,617,o),
(57,574,o),
(125,574,cs),
(195,574,o),
(235,609,o),
(235,671,cs),
(235,722,o),
(206,767,o),
(135,767,cs)
);
},
{
closed = 1;
nodes = (
(71,544,o),
(20,441,o),
(20,226,cs),
(20,51,o),
(48,-10,o),
(111,-10,cs),
(193,-10,o),
(235,78,o),
(235,293,cs),
(235,467,o),
(202,544,o),
(146,544,cs)
);
}
);
width = 255;
},
{
anchors = (
{
name = bottom;
pos = (143,0);
}
);
layerId = "4BA625B0-8927-4B2E-B2D8-0167ED5E0445";
shapes = (
{
closed = 1;
nodes = (
(75,767,o),
(25,733,o),
(25,668,cs),
(25,617,o),
(62,574,o),
(140,574,cs),
(219,574,o),
(265,609,o),
(265,671,cs),
(265,722,o),
(232,767,o),
(150,767,cs)
);
},
{
closed = 1;
nodes = (
(77,544,o),
(20,441,o),
(20,226,cs),
(20,51,o),
(53,-10,o),
(126,-10,cs),
(219,-10,o),
(265,78,o),
(265,293,cs),
(265,467,o),
(226,544,o),
(161,544,cs)
);
}
);
width = 285;
},
{
anchors = (
{
name = bottom;
pos = (128,0);
}
);
layerId = "D96CDDDD-AAEE-4FD8-A377-74226937908C";
shapes = (
{
closed = 1;
nodes = (
(86,767,o),
(55,741,o),
(55,691,cs),
(55,652,o),
(78,619,o),
(127,619,cs),
(176,619,o),
(205,646,o),
(205,694,cs),
(205,733,o),
(184,767,o),
(134,767,cs)
);
},
{
closed = 1;
nodes = (
(87,544,o),
(50,441,o),
(50,226,cs),
(50,51,o),
(71,-10,o),
(116,-10,cs),
(175,-10,o),
(205,78,o),
(205,293,cs),
(205,467,o),
(181,544,o),
(140,544,cs)
);
}
);
width = 255;
},
{
anchors = (
{
name = bottom;
pos = (143,0);
}
);
layerId = "1C59D977-65E2-41C6-912A-276E7E987498";
shapes = (
{
closed = 1;
nodes = (
(99,767,o),
(66,741,o),
(66,691,cs),
(66,652,o),
(91,619,o),
(142,619,cs),
(194,619,o),
(224,646,o),
(224,694,cs),
(224,733,o),
(202,767,o),
(149,767,cs)
);
},
{
closed = 1;
nodes = (
(100,544,o),
(61,441,o),
(61,226,cs),
(61,51,o),
(83,-10,o),
(131,-10,cs),
(193,-10,o),
(224,78,o),
(224,293,cs),
(224,467,o),
(198,544,o),
(155,544,cs)
);
}
);
width = 285;
}
);
metricLeft = n;
metricRight = "=|n";
unicode = 105;
},
{
glyphname = idotless;
lastChange = "2021-08-24 15:07:39 +0000";
layers = (
{
anchors = (
{
name = bottom;
pos = (138,0);
},
{
name = ogonek;
pos = (248,10);
},
{
name = top;
pos = (138,544);
}
);
layerId = m004;
shapes = (
{
closed = 1;
nodes = (
(75,544,o),
(20,441,o),
(20,226,cs),
(20,51,o),
(51,-10,o),
(121,-10,cs),
(210,-10,o),
(255,78,o),
(255,293,cs),
(255,467,o),
(218,544,o),
(156,544,cs)
);
}
);
width = 275;
},
{
anchors = (
{
name = bottom;
pos = (138,0);
},
{
name = ogonek;
pos = (248,10);
},
{
name = top;
pos = (138,544);
}
);
layerId = "4BA625B0-8927-4B2E-B2D8-0167ED5E0445";
shapes = (
{
closed = 1;
nodes = (
(75,544,o),
(20,441,o),
(20,226,cs),
(20,51,o),
(51,-10,o),
(121,-10,cs),
(210,-10,o),
(255,78,o),
(255,293,cs),
(255,467,o),
(218,544,o),
(156,544,cs)
);
}
);
width = 275;
},
{
anchors = (
{
name = bottom;
pos = (131,0);
},
{
name = ogonek;
pos = (241,10);
},
{
name = top;
pos = (131,544);
}
);
layerId = "D96CDDDD-AAEE-4FD8-A377-74226937908C";
shapes = (
{
closed = 1;
nodes = (
(88,544,o),
(50,441,o),
(50,226,cs),
(50,51,o),
(71,-10,o),
(119,-10,cs),
(179,-10,o),
(210,78,o),
(210,293,cs),
(210,467,o),
(185,544,o),
(143,544,cs)
);
}
);
width = 260;
},
{
anchors = (
{
name = bottom;
pos = (142,0);
},
{
name = ogonek;
pos = (252,10);
},
{
name = top;
pos = (142,544);
}
);
layerId = "1C59D977-65E2-41C6-912A-276E7E987498";
shapes = (
{
closed = 1;
nodes = (
(99,544,o),
(61,441,o),
(61,226,cs),
(61,51,o),
(83,-10,o),
(130,-10,cs),
(191,-10,o),
(221,78,o),
(221,293,cs),
(221,467,o),
(196,544,o),
(154,544,cs)
);
}
);
width = 282.5;
}
);
metricLeft = n;
metricRight = "=|n";
unicode = 305;
},
{
glyphname = j;
lastChange = "2021-08-24 15:31:57 +0000";
layers = (
{
layerId = m004;
shapes = (
{
closed = 1;
nodes = (
(100,-208,o),
(149,-167,o),
(182,-72,cs),
(212,14,o),
(228,158,o),
(228,282,cs),
(228,473,o),
(183,547,o),
(113,547,cs),
(46,547,o),
(20,474,o),
(20,331,cs),
(20,215,o),
(37,65,o),
(75,-93,c),
(80,-93,l),
(46,-38,o),
(12,-16,o),
(-25,-16,cs),
(-65,-16,o),
(-91,-46,o),
(-91,-95,cs),
(-91,-156,o),
(-46,-208,o),
(32,-208,cs)
);
},
{
closed = 1;
nodes = (
(155,585,o),
(201,622,o),
(201,686,cs),
(201,737,o),
(172,770,o),
(118,770,cs),
(51,770,o),
(15,722,o),
(15,661,cs),
(15,610,o),
(46,585,o),
(94,585,cs)
);
}
);
width = 248;
},
{
layerId = "4BA625B0-8927-4B2E-B2D8-0167ED5E0445";
shapes = (
{
closed = 1;
nodes = (
(130,-208,o),
(179,-167,o),
(212,-72,cs),
(242,14,o),
(258,158,o),
(258,282,cs),
(258,473,o),
(207,547,o),
(128,547,cs),
(51,547,o),
(20,474,o),
(20,331,cs),
(20,215,o),
(42,65,o),
(90,-93,c),
(95,-93,l),
(61,-38,o),
(27,-16,o),
(-10,-16,cs),
(-50,-16,o),
(-76,-46,o),
(-76,-95,cs),
(-76,-156,o),
(-25,-208,o),
(62,-208,cs)
);
},
{
closed = 1;
nodes = (
(179,585,o),
(231,622,o),
(231,686,cs),
(231,737,o),
(198,770,o),
(133,770,cs),
(57,770,o),
(15,722,o),
(15,661,cs),
(15,610,o),
(52,585,o),
(109,585,cs)
);
}
);
width = 278;
},
{
layerId = "D96CDDDD-AAEE-4FD8-A377-74226937908C";
shapes = (
{
closed = 1;
nodes = (
(106,-208,o),
(141,-179,o),
(162,-110,cs),
(187,-24,o),
(198,133,o),
(198,267,cs),
(198,469,o),
(165,547,o),
(113,547,cs),
(68,547,o),
(50,485,o),
(50,361,cs),
(50,225,o),
(60,48,o),
(80,-138,c),
(95,-140,l),
(49,-81,o),
(-5,-46,o),
(-48,-46,cs),
(-74,-46,o),
(-91,-65,o),
(-91,-95,cs),
(-91,-149,o),
(-30,-208,o),
(47,-208,cs)
);
},
{
closed = 1;
nodes = (
(148,630,o),
(186,658,o),
(186,706,cs),
(186,745,o),
(162,770,o),
(116,770,cs),
(60,770,o),
(30,734,o),
(30,689,cs),
(30,649,o),
(57,630,o),
(97,630,cs)
);
}
);
width = 248;
},
{
layerId = "1C59D977-65E2-41C6-912A-276E7E987498";
shapes = (
{
closed = 1;
nodes = (
(125,-208,o),
(160,-179,o),
(181,-110,cs),
(206,-24,o),
(217,133,o),
(217,267,cs),
(217,469,o),
(182,547,o),
(128,547,cs),
(80,547,o),
(61,485,o),
(61,361,cs),
(61,225,o),
(72,48,o),
(95,-138,c),
(110,-140,l),
(64,-81,o),
(11,-46,o),
(-33,-46,cs),
(-59,-46,o),
(-76,-65,o),
(-76,-95,cs),
(-76,-149,o),
(-14,-208,o),
(66,-208,cs)
);
},
{
closed = 1;
nodes = (
(166,630,o),
(205,658,o),
(205,706,cs),
(205,745,o),
(179,770,o),
(131,770,cs),
(73,770,o),
(41,734,o),
(41,689,cs),
(41,649,o),
(69,630,o),
(112,630,cs)
);
}
);
width = 278;
}
);
unicode = 106;
},
{
glyphname = k;
lastChange = "2021-08-24 15:55:32 +0000";
layers = (
{
anchors = (
{
name = bottom;
pos = (255,0);
},
{
name = top;
pos = (255,800);
}
);
background = {
shapes = (
{
closed = 1;
nodes = (
(99,788,o),
(64,748,o),
(47,658,cs),
(31,575,o),
(20,437,o),
(20,297,cs),
(20,190,o),
(29,90,o),
(41,50,cs),
(53,10,o),
(73,-10,o),
(112,-10,cs),
(162,-10,o),
(188,23,o),
(202,77,cs),
(212,115,o),
(221,178,o),
(225,251,c),
(219,244,l),
(255,59,o),
(297,1,o),
(356,1,cs),
(418,1,o),
(454,38,o),
(454,94,cs),
(454,172,o),
(410,247,o),
(317,335,c),
(309,319,l),
(417,396,o),
(464,460,o),
(464,536,cs),
(464,590,o),
(433,632,o),
(373,632,cs),
(317,632,o),
(274,583,o),
(203,403,c),
(217,414,l),
(232,496,o),
(238,567,o),
(238,630,cs),
(238,746,o),
(209,788,o),
(155,788,cs)
);
}
);
};
layerId = m004;
shapes = (
{
closed = 1;
nodes = (
(162,-10,o),
(188,23,o),
(202,77,cs),
(211,111,o),
(219,166,o),
(221,231,c),
(225,231,l),
(254,56,o),
(300,1,o),
(356,1,cs),
(418,1,o),
(454,38,o),
(454,94,cs),
(454,172,o),
(410,247,o),
(317,335,c),
(309,319,l),
(417,396,o),
(464,460,o),
(464,536,cs),
(464,590,o),
(433,632,o),
(373,632,cs),
(320,632,o),
(274,587,o),
(221,424,c),
(217,424,l),
(232,502,o),
(238,570,o),
(238,630,cs),
(238,746,o),
(209,788,o),
(155,788,cs),
(99,788,o),
(64,748,o),
(47,658,cs),
(31,575,o),
(20,437,o),
(20,297,cs),
(20,190,o),
(29,90,o),
(41,50,cs),
(53,10,o),
(73,-10,o),
(112,-10,cs)
);
}
);
width = 469;
},
{
anchors = (
{
name = bottom;
pos = (285,0);
},
{
name = top;
pos = (285,800);
}
);
background = {
shapes = (
{
closed = 1;
nodes = (
(107,788,o),
(64,748,o),
(47,658,cs),
(31,575,o),
(20,437,o),
(20,297,cs),
(20,190,o),
(29,90,o),
(41,50,cs),
(53,10,o),
(81,-10,o),
(127,-10,cs),
(185,-10,o),
(218,23,o),
(232,77,cs),
(242,115,o),
(253,178,o),
(257,236,c),
(249,244,l),
(305,59,o),
(371,1,o),
(461,1,cs),
(532,1,o),
(574,44,o),
(574,109,cs),
(574,196,o),
(506,267,o),
(362,335,c),
(354,319,l),
(515,377,o),
(584,436,o),
(584,521,cs),
(584,584,o),
(549,632,o),
(478,632,cs),
(418,632,o),
(336,583,o),
(233,403,c),
(252,429,l),
(264,505,o),
(268,572,o),
(268,630,cs),
(268,746,o),
(233,788,o),
(170,788,cs)
);
}
);
};
layerId = "4BA625B0-8927-4B2E-B2D8-0167ED5E0445";
shapes = (
{
closed = 1;
nodes = (
(185,-10,o),
(218,23,o),
(232,77,cs),
(242,115,o),
(252,178,o),
(253,236,c),
(257,236,l),
(303,57,o),
(375,1,o),
(461,1,cs),
(532,1,o),
(574,44,o),
(574,109,cs),
(574,196,o),
(506,267,o),
(362,335,c),
(354,319,l),
(515,377,o),
(584,436,o),
(584,521,cs),
(584,584,o),
(549,632,o),
(478,632,cs),
(424,632,o),
(349,590,o),
(256,429,c),
(252,429,l),
(264,505,o),
(268,572,o),
(268,630,cs),
(268,746,o),
(233,788,o),
(170,788,cs),
(107,788,o),
(64,748,o),
(47,658,cs),
(31,575,o),
(20,437,o),
(20,297,cs),
(20,190,o),
(29,90,o),
(41,50,cs),
(53,10,o),
(81,-10,o),
(127,-10,cs)
);
}
);
width = 589;
},
{
anchors = (
{
name = bottom;
pos = (263,0);
},
{
name = top;
pos = (263,800);
}
);
background = {
shapes = (
{
closed = 1;
nodes = (
(115,788,o),
(94,747,o),
(77,658,cs),
(61,575,o),
(50,437,o),
(50,297,cs),
(50,183,o),
(59,84,o),
(70,35,cs),
(76,6,o),
(90,-10,o),
(114,-10,cs),
(146,-10,o),
(163,12,o),
(172,47,cs),
(186,99,o),
(194,189,o),
(196,281,c),
(189,282,l),
(248,83,o),
(310,1,o),
(356,1,cs),
(395,1,o),
(417,23,o),
(417,57,cs),
(417,118,o),
(351,240,o),
(242,343,c),
(242,327,l),
(361,420,o),
(427,508,o),
(427,574,cs),
(427,607,o),
(408,632,o),
(373,632,cs),
(322,632,o),
(257,567,o),
(173,366,c),
(189,377,l),
(203,489,o),
(209,588,o),
(209,675,cs),
(209,758,o),
(190,788,o),
(155,788,cs)
);
}
);
};
layerId = "D96CDDDD-AAEE-4FD8-A377-74226937908C";
shapes = (
{
closed = 1;
nodes = (
(146,-10,o),
(163,12,o),
(172,47,cs),
(184,92,o),
(192,170,o),
(195,249,c),
(199,249,l),
(255,73,o),
(313,1,o),
(356,1,cs),
(395,1,o),
(417,23,o),
(417,57,cs),
(417,118,o),
(351,240,o),
(242,343,c),
(242,327,l),
(361,420,o),
(427,508,o),
(427,574,cs),
(427,607,o),
(408,632,o),
(373,632,cs),
(327,632,o),
(264,579,o),
(193,397,c),
(189,397,l),
(204,501,o),
(209,594,o),
(209,675,cs),
(209,758,o),
(190,788,o),
(155,788,cs),
(115,788,o),
(94,747,o),
(77,658,cs),
(61,575,o),
(50,437,o),
(50,297,cs),
(50,183,o),
(59,84,o),
(70,35,cs),
(76,6,o),
(90,-10,o),
(114,-10,cs)
);
}
);
width = 446.5;
},
{
anchors = (
{
name = bottom;
pos = (281,0);
},
{
name = top;
pos = (281,800);
}
);
background = {
shapes = (
{
closed = 1;
nodes = (
(128,788,o),
(105,747,o),
(88,658,cs),
(72,575,o),
(61,437,o),
(61,297,cs),
(61,183,o),
(70,84,o),
(81,35,cs),
(88,6,o),
(103,-10,o),
(129,-10,cs),
(163,-10,o),
(181,12,o),
(191,47,cs),
(205,99,o),
(213,189,o),
(215,277,c),
(208,282,l),
(314,94,o),
(425,1,o),
(506,1,cs),
(547,1,o),
(570,25,o),
(570,60,cs),
(570,124,o),
(455,245,o),
(265,343,c),
(264,327,l),
(468,415,o),
(580,502,o),
(580,570,cs),
(580,605,o),
(561,632,o),
(523,632,cs),
(444,632,o),
(331,556,o),
(192,366,c),
(209,380,l),
(222,492,o),
(228,589,o),
(228,675,cs),
(228,758,o),
(207,788,o),
(170,788,cs)
);
}
);
};
layerId = "1C59D977-65E2-41C6-912A-276E7E987498";
shapes = (
{
closed = 1;
nodes = (
(163,-10,o),
(181,12,o),
(191,47,cs),
(204,97,o),
(213,183,o),
(215,267,c),
(219,267,l),
(320,89,o),
(428,1,o),
(506,1,cs),
(547,1,o),
(570,25,o),
(570,60,cs),
(570,124,o),
(455,245,o),
(265,343,c),
(264,327,l),
(468,415,o),
(580,502,o),
(580,570,cs),
(580,605,o),
(561,632,o),
(523,632,cs),
(449,632,o),
(342,566,o),
(213,390,c),
(209,390,l),
(222,498,o),
(228,592,o),
(228,675,cs),
(228,758,o),
(207,788,o),
(170,788,cs),
(128,788,o),
(105,747,o),
(88,658,cs),
(72,575,o),
(61,437,o),
(61,297,cs),
(61,183,o),
(70,84,o),
(81,35,cs),
(88,6,o),
(103,-10,o),
(129,-10,cs)
);
}
);
width = 600.25;
}
);
metricLeft = n;
unicode = 107;
},
{
glyphname = l;
lastChange = "2021-08-24 15:07:39 +0000";
layers = (
{
anchors = (
{
name = bottom;
pos = (158,0);
},
{
name = center;
pos = (158,400);
},
{
name = top;
pos = (158,800);
},
{
name = topright;
pos = (306,800);
}
);
layerId = m004;
shapes = (
{
closed = 1;
nodes = (
(239,-2,o),
(301,56,o),
(301,128,cs),
(301,185,o),
(269,212,o),
(215,212,cs),
(182,212,o),
(143,195,o),
(114,166,c),
(190,175,l),
(221,276,o),
(243,416,o),
(243,531,cs),
(243,599,o),
(236,663,o),
(225,707,cs),
(210,767,o),
(185,791,o),
(145,791,cs),
(107,791,o),
(83,768,o),
(61,708,cs),
(36,639,o),
(20,503,o),
(20,376,cs),
(20,233,o),
(30,132,o),
(51,76,cs),
(72,20,o),
(100,-2,o),
(154,-2,cs)
);
}
);
width = 306;
},
{
anchors = (
{
name = bottom;
pos = (173,0);
},
{
name = center;
pos = (173,400);
},
{
name = top;
pos = (173,800);
},
{
name = topright;
pos = (321,800);
}
);
layerId = "4BA625B0-8927-4B2E-B2D8-0167ED5E0445";
shapes = (
{
closed = 1;
nodes = (
(272,-2,o),
(346,56,o),
(346,128,cs),
(346,185,o),
(314,212,o),
(260,212,cs),
(218,212,o),
(167,195,o),
(129,166,c),
(220,175,l),
(251,276,o),
(273,416,o),
(273,531,cs),
(273,599,o),
(266,663,o),
(255,707,cs),
(240,767,o),
(208,791,o),
(160,791,cs),
(115,791,o),
(86,768,o),
(61,708,cs),
(38,653,o),
(20,503,o),
(20,376,cs),
(20,233,o),
(30,132,o),
(51,76,cs),
(72,19,o),
(108,-2,o),
(169,-2,cs)
);
}
);
width = 351;
},
{
anchors = (
{
name = bottom;
pos = (158,0);
},
{
name = center;
pos = (158,400);
},
{
name = top;
pos = (158,800);
},
{
name = topright;
pos = (306,800);
}
);
layerId = "D96CDDDD-AAEE-4FD8-A377-74226937908C";
shapes = (
{
closed = 1;
nodes = (
(210,-2,o),
(279,50,o),
(279,98,cs),
(279,132,o),
(261,148,o),
(230,148,cs),
(197,148,o),
(157,128,o),
(128,92,c),
(153,78,l),
(184,211,o),
(206,395,o),
(206,546,cs),
(206,619,o),
(200,686,o),
(192,730,cs),
(183,775,o),
(170,791,o),
(145,791,cs),
(121,791,o),
(103,776,o),
(89,731,cs),
(68,664,o),
(50,514,o),
(50,376,cs),
(50,226,o),
(59,127,o),
(80,61,cs),
(94,16,o),
(114,-2,o),
(154,-2,cs)
);
}
);
width = 302.25;
},
{
anchors = (
{
name = bottom;
pos = (173,0);
},
{
name = center;
pos = (173,400);
},
{
name = top;
pos = (173,800);
},
{
name = topright;
pos = (321,800);
}
);
layerId = "1C59D977-65E2-41C6-912A-276E7E987498";
shapes = (
{
closed = 1;
nodes = (
(233,-2,o),
(312,56,o),
(312,109,cs),
(312,143,o),
(295,160,o),
(264,160,cs),
(226,160,o),
(177,134,o),
(143,92,c),
(171,78,l),
(202,211,o),
(224,395,o),
(224,546,cs),
(224,619,o),
(219,686,o),
(211,730,cs),
(202,775,o),
(187,791,o),
(160,791,cs),
(134,791,o),
(115,776,o),
(100,731,cs),
(79,667,o),
(61,514,o),
(61,376,cs),
(61,226,o),
(71,127,o),
(91,61,cs),
(105,15,o),
(128,-2,o),
(169,-2,cs)
);
}
);
width = 341.625;
}
);
metricLeft = n;
unicode = 108;
},
{
glyphname = m;
lastChange = "2021-08-24 15:56:24 +0000";
layers = (
{
anchors = (
{
name = bottom;
pos = (373,0);
},
{
name = top;
pos = (373,620);
}
);
layerId = m004;
shapes = (
{
closed = 1;
nodes = (
(450,446,l),
(445,552,o),
(401,617,o),
(323,617,cs),
(268,617,o),
(220,566,o),
(200,479,c),
(203,459,l),
(205,470,o),
(206,483,o),
(206,496,cs),
(206,575,o),
(183,612,o),
(127,612,cs),
(63,612,o),
(40,545,o),
(30,456,cs),
(24,403,o),
(20,340,o),
(20,288,cs),
(20,236,o),
(23,184,o),
(28,132,cs),
(36,40,o),
(63,1,o),
(129,1,cs),
(186,1,o),
(219,39,o),
(222,135,cs),
(224,180,o),
(220,270,o),
(223,316,cs),
(226,378,o),
(237,415,o),
(256,415,cs),
(272,415,o),
(278,392,o),
(281,343,cs),
(284,290,o),
(279,185,o),
(282,125,cs),
(285,53,o),
(317,20,o),
(368,20,cs),
(414,20,o),
(438,45,o),
(456,94,cs),
(469,130,o),
(474,183,o),
(478,253,cs),
(483,343,o),
(498,393,o),
(522,393,cs),
(536,393,o),
(544,372,o),
(544,336,cs),
(544,273,o),
(512,142,o),
(512,95,cs),
(512,34,o),
(543,-1,o),
(594,-1,cs),
(648,-1,o),
(687,31,o),
(703,96,cs),
(716,150,o),
(730,252,o),
(730,345,cs),
(730,535,o),
(667,604,o),
(585,604,cs),
(511,604,o),
(452,540,o),
(436,458,c)
);
}
);
width = 750;
},
{
anchors = (
{
name = bottom;
pos = (448,0);
},
{
name = top;
pos = (448,620);
}
);
layerId = "4BA625B0-8927-4B2E-B2D8-0167ED5E0445";
shapes = (
{
closed = 1;
nodes = (
(540,446,l),
(535,552,o),
(482,617,o),
(391,617,cs),
(319,617,o),
(255,566,o),
(230,479,c),
(233,459,l),
(235,470,o),
(236,483,o),
(236,496,cs),
(236,575,o),
(209,612,o),
(142,612,cs),
(68,612,o),
(40,545,o),
(30,456,cs),
(24,403,o),
(20,340,o),
(20,288,cs),
(20,236,o),
(23,184,o),
(28,132,cs),
(36,40,o),
(69,1,o),
(144,1,cs),
(210,1,o),
(249,39,o),
(252,135,cs),
(254,180,o),
(250,270,o),
(253,316,cs),
(259,378,o),
(273,415,o),
(301,415,cs),
(326,415,o),
(338,392,o),
(341,343,cs),
(344,290,o),
(339,185,o),
(342,125,cs),
(345,53,o),
(383,20,o),
(443,20,cs),
(497,20,o),
(528,44,o),
(546,94,cs),
(559,130,o),
(564,183,o),
(568,253,cs),
(573,343,o),
(593,393,o),
(624,393,cs),
(646,393,o),
(658,372,o),
(658,336,cs),
(658,273,o),
(626,142,o),
(626,95,cs),
(626,34,o),
(663,-1,o),
(723,-1,cs),
(785,-1,o),
(831,31,o),
(847,96,cs),
(860,150,o),
(874,252,o),
(874,345,cs),
(874,535,o),
(799,604,o),
(698,604,cs),
(613,604,o),
(545,540,o),
(526,458,c)
);
}
);
width = 894;
},
{
anchors = (
{
name = bottom;
pos = (358,0);
},
{
name = top;
pos = (358,620);
}
);
layerId = "D96CDDDD-AAEE-4FD8-A377-74226937908C";
shapes = (
{
closed = 1;
nodes = (
(405,446,l),
(401,552,o),
(361,617,o),
(289,617,cs),
(236,617,o),
(189,566,o),
(170,479,c),
(173,459,l),
(175,470,o),
(176,483,o),
(176,496,cs),
(176,575,o),
(162,612,o),
(127,612,cs),
(83,612,o),
(68,561,o),
(60,494,cs),
(53,429,o),
(50,351,o),
(50,288,cs),
(50,226,o),
(52,164,o),
(58,102,cs),
(65,31,o),
(83,1,o),
(129,1,cs),
(167,1,o),
(190,33,o),
(192,113,cs),
(195,169,o),
(189,281,o),
(193,339,cs),
(201,434,o),
(219,490,o),
(256,490,cs),
(281,490,o),
(291,451,o),
(296,366,cs),
(300,301,o),
(293,175,o),
(297,103,cs),
(299,46,o),
(320,20,o),
(353,20,cs),
(383,20,o),
(400,38,o),
(411,72,cs),
(426,121,o),
(428,199,o),
(433,298,cs),
(439,408,o),
(462,468,o),
(498,468,cs),
(526,468,o),
(541,428,o),
(541,359,cs),
(541,266,o),
(509,141,o),
(509,88,cs),
(509,31,o),
(529,-1,o),
(561,-1,cs),
(600,-1,o),
(626,27,o),
(640,81,cs),
(654,138,o),
(667,247,o),
(667,345,cs),
(667,535,o),
(608,604,o),
(529,604,cs),
(461,604,o),
(406,540,o),
(391,458,c)
);
}
);
width = 717;
},
{
anchors = (
{
name = bottom;
pos = (456,0);
},
{
name = top;
pos = (456,620);
}
);
layerId = "1C59D977-65E2-41C6-912A-276E7E987498";
shapes = (
{
closed = 1;
nodes = (
(506,446,l),
(501,552,o),
(446,617,o),
(351,617,cs),
(279,617,o),
(215,566,o),
(189,479,c),
(192,459,l),
(194,470,o),
(195,483,o),
(195,496,cs),
(195,575,o),
(180,612,o),
(142,612,cs),
(95,612,o),
(79,561,o),
(71,494,cs),
(64,429,o),
(61,351,o),
(61,288,cs),
(61,226,o),
(64,164,o),
(69,102,cs),
(76,31,o),
(95,1,o),
(144,1,cs),
(185,1,o),
(209,33,o),
(211,113,cs),
(214,169,o),
(208,281,o),
(212,339,cs),
(220,434,o),
(254,490,o),
(312,490,cs),
(361,490,o),
(385,451,o),
(390,366,cs),
(394,301,o),
(387,175,o),
(391,103,cs),
(393,46,o),
(415,20,o),
(451,20,cs),
(483,20,o),
(501,37,o),
(512,72,cs),
(528,121,o),
(529,199,o),
(534,298,cs),
(540,408,o),
(580,468,o),
(636,468,cs),
(687,468,o),
(716,428,o),
(716,359,cs),
(716,266,o),
(684,141,o),
(684,88,cs),
(684,31,o),
(705,-1,o),
(740,-1,cs),
(781,-1,o),
(809,27,o),
(822,81,cs),
(836,138,o),
(849,247,o),
(849,345,cs),
(849,535,o),
(773,604,o),
(670,604,cs),
(582,604,o),
(512,540,o),
(492,458,c)
);
}
);
width = 910;
}
);
metricLeft = n;
metricRight = n;
unicode = 109;
},
{
glyphname = n;
lastChange = "2021-08-24 15:07:39 +0000";
layers = (
{
anchors = (
{
name = bottom;
pos = (279,0);
},
{
name = top;
pos = (279,625);
}
);
layerId = m004;
shapes = (
{
closed = 1;
nodes = (
(81,622,o),
(49,555,o),
(36,446,cs),
(26,359,o),
(20,236,o),
(20,152,cs),
(20,43,o),
(56,1,o),
(128,1,cs),
(185,1,o),
(220,39,o),
(228,135,cs),
(232,183,o),
(233,277,o),
(239,326,cs),
(247,388,o),
(259,425,o),
(280,425,cs),
(296,425,o),
(304,402,o),
(304,353,cs),
(304,298,o),
(293,188,o),
(293,125,cs),
(293,53,o),
(321,10,o),
(373,10,cs),
(419,10,o),
(454,35,o),
(475,84,cs),
(496,132,o),
(508,227,o),
(508,322,cs),
(508,507,o),
(459,627,o),
(360,627,cs),
(298,627,o),
(240,576,o),
(214,489,c),
(216,469,l),
(220,483,o),
(222,503,o),
(222,519,cs),
(222,587,o),
(204,622,o),
(148,622,cs)
);
}
);
width = 528;
},
{
anchors = (
{
name = bottom;
pos = (309,0);
},
{
name = top;
pos = (309,625);
}
);
layerId = "4BA625B0-8927-4B2E-B2D8-0167ED5E0445";
shapes = (
{
closed = 1;
nodes = (
(87,622,o),
(49,555,o),
(36,446,cs),
(26,359,o),
(20,236,o),
(20,152,cs),
(20,43,o),
(61,1,o),
(143,1,cs),
(209,1,o),
(250,39,o),
(258,135,cs),
(262,183,o),
(263,277,o),
(269,326,cs),
(277,388,o),
(304,425,o),
(340,425,cs),
(365,425,o),
(379,402,o),
(379,353,cs),
(379,298,o),
(368,188,o),
(368,125,cs),
(368,53,o),
(401,10,o),
(463,10,cs),
(517,10,o),
(559,34,o),
(580,84,cs),
(601,132,o),
(613,227,o),
(613,322,cs),
(613,507,o),
(549,627,o),
(420,627,cs),
(346,627,o),
(275,576,o),
(244,489,c),
(246,469,l),
(250,483,o),
(252,503,o),
(252,519,cs),
(252,587,o),
(230,622,o),
(163,622,cs)
);
}
);
width = 633;
},
{
anchors = (
{
name = bottom;
pos = (264,0);
},
{
name = top;
pos = (264,625);
}
);
layerId = "D96CDDDD-AAEE-4FD8-A377-74226937908C";
shapes = (
{
closed = 1;
nodes = (
(99,622,o),
(79,554,o),
(66,446,cs),
(56,359,o),
(50,236,o),
(50,152,cs),
(50,43,o),
(73,1,o),
(121,1,cs),
(160,1,o),
(184,33,o),
(191,113,cs),
(195,166,o),
(189,272,o),
(196,326,cs),
(210,430,o),
(237,493,o),
(280,493,cs),
(316,493,o),
(334,448,o),
(334,353,cs),
(334,271,o),
(316,148,o),
(316,80,cs),
(316,37,o),
(333,10,o),
(366,10,cs),
(398,10,o),
(422,32,o),
(438,77,cs),
(456,130,o),
(471,238,o),
(471,345,cs),
(471,516,o),
(424,627,o),
(330,627,cs),
(272,627,o),
(216,576,o),
(192,489,c),
(194,469,l),
(198,483,o),
(200,503,o),
(200,519,cs),
(200,587,o),
(187,622,o),
(148,622,cs)
);
}
);
width = 520.5;
},
{
anchors = (
{
name = bottom;
pos = (317,0);
},
{
name = top;
pos = (317,625);
}
);
layerId = "1C59D977-65E2-41C6-912A-276E7E987498";
shapes = (
{
closed = 1;
nodes = (
(112,622,o),
(90,554,o),
(77,446,cs),
(67,359,o),
(61,236,o),
(61,152,cs),
(61,43,o),
(86,1,o),
(136,1,cs),
(178,1,o),
(203,33,o),
(209,113,cs),
(214,166,o),
(208,272,o),
(214,326,cs),
(228,432,o),
(275,493,o),
(340,493,cs),
(400,493,o),
(432,448,o),
(432,353,cs),
(432,271,o),
(413,148,o),
(413,80,cs),
(413,37,o),
(432,10,o),
(467,10,cs),
(501,10,o),
(527,32,o),
(543,77,cs),
(561,130,o),
(576,238,o),
(576,345,cs),
(576,516,o),
(514,627,o),
(390,627,cs),
(315,627,o),
(242,576,o),
(210,489,c),
(212,469,l),
(216,483,o),
(218,503,o),
(218,519,cs),
(218,587,o),
(205,622,o),
(163,622,cs)
);
}
);
width = 636.75;
}
);
unicode = 110;
},
{
glyphname = o;
lastChange = "2021-08-24 15:56:24 +0000";
layers = (
{
anchors = (
{
name = bottom;
pos = (252,0);
},
{
name = center;
pos = (252,310);
},
{
name = ogonek;
pos = (486,10);
},
{
name = top;
pos = (252,608);
},
{
name = topright;
pos = (524,620);
}
);
layerId = m004;
shapes = (
{
closed = 1;
nodes = (
(392,-3,o),
(489,113,o),
(489,301,cs),
(489,484,o),
(393,608,o),
(244,608,cs),
(105,608,o),
(15,480,o),
(15,291,cs),
(15,109,o),
(103,-3,o),
(241,-3,cs)
);
},
{
closed = 1;
nodes = (
(226,188,o),
(208,237,o),
(208,313,cs),
(208,389,o),
(226,438,o),
(255,438,cs),
(283,438,o),
(301,389,o),
(301,313,cs),
(301,237,o),
(283,188,o),
(255,188,cs)
);
}
);
width = 504;
},
{
anchors = (
{
name = bottom;
pos = (312,0);
},
{
name = center;
pos = (312,310);
},
{
name = ogonek;
pos = (546,10);
},
{
name = top;
pos = (312,608);
},
{
name = topright;
pos = (584,620);
}
);
layerId = "4BA625B0-8927-4B2E-B2D8-0167ED5E0445";
shapes = (
{
closed = 1;
nodes = (
(488,-3,o),
(609,113,o),
(609,301,cs),
(609,484,o),
(489,608,o),
(304,608,cs),
(129,608,o),
(15,480,o),
(15,291,cs),
(15,109,o),
(127,-3,o),
(301,-3,cs)
);
},
{
closed = 1;
nodes = (
(268,203,o),
(238,246,o),
(238,313,cs),
(238,380,o),
(268,423,o),
(315,423,cs),
(361,423,o),
(391,380,o),
(391,313,cs),
(391,246,o),
(361,203,o),
(315,203,cs)
);
}
);
width = 624;
},
{
anchors = (
{
name = bottom;
pos = (248,0);
},
{
name = center;
pos = (248,310);
},
{
name = ogonek;
pos = (482,10);
},
{
name = top;
pos = (248,608);
},
{
name = topright;
pos = (520,620);
}
);
layerId = "D96CDDDD-AAEE-4FD8-A377-74226937908C";
shapes = (
{
closed = 1;
nodes = (
(375,-3,o),
(463,113,o),
(463,301,cs),
(463,484,o),
(376,608,o),
(241,608,cs),
(116,608,o),
(34,480,o),
(34,291,cs),
(34,109,o),
(114,-3,o),
(238,-3,cs)
);
},
{
closed = 1;
nodes = (
(200,128,o),
(167,200,o),
(167,313,cs),
(167,426,o),
(200,498,o),
(252,498,cs),
(303,498,o),
(335,426,o),
(335,313,cs),
(335,200,o),
(303,128,o),
(252,128,cs)
);
}
);
width = 496.5;
},
{
anchors = (
{
name = bottom;
pos = (314,0);
},
{
name = center;
pos = (314,310);
},
{
name = ogonek;
pos = (548,10);
},
{
name = top;
pos = (314,608);
},
{
name = topright;
pos = (586,620);
}
);
layerId = "1C59D977-65E2-41C6-912A-276E7E987498";
shapes = (
{
closed = 1;
nodes = (
(477,-3,o),
(589,113,o),
(589,301,cs),
(589,484,o),
(478,608,o),
(307,608,cs),
(146,608,o),
(40,480,o),
(40,291,cs),
(40,109,o),
(144,-3,o),
(304,-3,cs)
);
},
{
closed = 1;
nodes = (
(233,132,o),
(180,203,o),
(180,313,cs),
(180,424,o),
(233,494,o),
(318,494,cs),
(400,494,o),
(453,424,o),
(453,313,cs),
(453,203,o),
(400,132,o),
(318,132,cs)
);
}
);
width = 629;
}
);
metricRight = "=|";
unicode = 111;
},
{
glyphname = p;
lastChange = "2021-08-24 15:56:24 +0000";
layers = (
{
anchors = (
{
name = bottom;
pos = (280,0);
},
{
name = top;
pos = (280,620);
}
);
layerId = m004;
shapes = (
{
closed = 1;
nodes = (
(76,620,o),
(51,596,o),
(39,547,cs),
(28,495,o),
(20,407,o),
(20,312,cs),
(20,168,o),
(32,5,o),
(45,-76,cs),
(58,-153,o),
(86,-201,o),
(147,-201,cs),
(211,-201,o),
(240,-147,o),
(240,-79,cs),
(240,-25,o),
(232,52,o),
(221,127,c),
(209,121,l),
(223,63,o),
(258,18,o),
(323,18,cs),
(422,18,o),
(484,114,o),
(484,324,cs),
(484,518,o),
(415,614,o),
(320,614,cs),
(253,614,o),
(200,563,o),
(182,470,c),
(203,481,l),
(190,577,o),
(160,620,o),
(114,620,cs)
);
},
{
closed = 1;
nodes = (
(275,446,o),
(296,405,o),
(296,314,cs),
(296,242,o),
(283,192,o),
(250,192,cs),
(223,192,o),
(205,232,o),
(205,313,cs),
(205,391,o),
(223,446,o),
(252,446,cs)
);
}
);
width = 499;
},
{
anchors = (
{
name = bottom;
pos = (310,0);
},
{
name = top;
pos = (310,620);
}
);
layerId = "4BA625B0-8927-4B2E-B2D8-0167ED5E0445";
shapes = (
{
closed = 1;
nodes = (
(84,620,o),
(51,596,o),
(39,547,cs),
(28,495,o),
(20,407,o),
(20,312,cs),
(20,168,o),
(32,5,o),
(45,-76,cs),
(58,-153,o),
(92,-201,o),
(162,-201,cs),
(237,-201,o),
(270,-147,o),
(270,-79,cs),
(270,-25,o),
(262,52,o),
(251,127,c),
(239,121,l),
(259,63,o),
(308,18,o),
(398,18,cs),
(524,18,o),
(604,114,o),
(604,324,cs),
(604,518,o),
(516,614,o),
(395,614,cs),
(306,614,o),
(236,563,o),
(212,470,c),
(233,481,l),
(217,577,o),
(183,620,o),
(129,620,cs)
);
},
{
closed = 1;
nodes = (
(352,446,o),
(386,405,o),
(386,314,cs),
(386,242,o),
(364,192,o),
(310,192,cs),
(265,192,o),
(235,232,o),
(235,313,cs),
(235,391,o),
(265,446,o),
(312,446,cs)
);
}
);
width = 619;
},
{
anchors = (
{
name = bottom;
pos = (288,0);
},
{
name = top;
pos = (288,620);
}
);
layerId = "D96CDDDD-AAEE-4FD8-A377-74226937908C";
shapes = (
{
closed = 1;
nodes = (
(91,620,o),
(77,603,o),
(69,570,cs),
(57,513,o),
(50,416,o),
(50,312,cs),
(50,159,o),
(61,-19,o),
(75,-106,cs),
(84,-164,o),
(104,-201,o),
(147,-201,cs),
(191,-201,o),
(210,-154,o),
(210,-94,cs),
(210,-36,o),
(202,47,o),
(191,127,c),
(179,121,l),
(194,63,o),
(231,18,o),
(301,18,cs),
(409,18,o),
(477,114,o),
(477,324,cs),
(477,518,o),
(401,614,o),
(298,614,cs),
(231,614,o),
(178,563,o),
(160,470,c),
(181,489,l),
(171,579,o),
(148,620,o),
(114,620,cs)
);
},
{
closed = 1;
nodes = (
(303,499,o),
(341,440,o),
(341,311,cs),
(341,210,o),
(317,140,o),
(258,140,cs),
(213,140,o),
(183,196,o),
(183,309,cs),
(183,420,o),
(213,499,o),
(260,499,cs)
);
}
);
width = 511;
},
{
anchors = (
{
name = bottom;
pos = (306,0);
},
{
name = top;
pos = (306,620);
}
);
layerId = "1C59D977-65E2-41C6-912A-276E7E987498";
shapes = (
{
closed = 1;
nodes = (
(104,620,o),
(89,603,o),
(80,570,cs),
(69,513,o),
(61,416,o),
(61,312,cs),
(61,159,o),
(73,-19,o),
(86,-106,cs),
(96,-164,o),
(117,-201,o),
(162,-201,cs),
(209,-201,o),
(229,-154,o),
(229,-94,cs),
(229,-36,o),
(221,47,o),
(210,127,c),
(198,121,l),
(219,63,o),
(270,18,o),
(364,18,cs),
(493,18,o),
(574,114,o),
(574,324,cs),
(574,518,o),
(485,614,o),
(361,614,cs),
(272,614,o),
(202,563,o),
(178,470,c),
(199,489,l),
(189,579,o),
(165,620,o),
(129,620,cs)
);
},
{
closed = 1;
nodes = (
(380,499,o),
(431,440,o),
(431,311,cs),
(431,210,o),
(398,140,o),
(318,140,cs),
(248,140,o),
(201,196,o),
(201,309,cs),
(201,420,o),
(248,499,o),
(320,499,cs)
);
}
);
width = 614;
}
);
metricLeft = n;
metricRight = o;
unicode = 112;
},
{
glyphname = q;
lastChange = "2021-08-24 15:56:24 +0000";
layers = (
{
anchors = (
{
name = bottom;
pos = (238,0);
},
{
name = top;
pos = (238,620);
}
);
layerId = m004;
shapes = (
{
closed = 1;
nodes = (
(438,-196,o),
(474,-152,o),
(487,-76,cs),
(497,-17,o),
(501,73,o),
(501,169,cs),
(501,304,o),
(492,439,o),
(477,503,cs),
(459,580,o),
(427,624,o),
(370,624,cs),
(314,624,o),
(292,576,o),
(292,486,c),
(300,490,l),
(272,572,o),
(228,609,o),
(170,609,cs),
(83,609,o),
(15,514,o),
(15,272,cs),
(15,76,o),
(76,-9,o),
(159,-9,cs),
(243,-9,o),
(298,42,o),
(323,126,c),
(316,127,l),
(308,57,o),
(303,-27,o),
(303,-94,cs),
(303,-155,o),
(327,-196,o),
(379,-196,cs)
);
},
{
closed = 1;
nodes = (
(233,164,o),
(216,202,o),
(216,287,cs),
(216,389,o),
(232,429,o),
(263,429,cs),
(293,429,o),
(311,382,o),
(311,297,cs),
(311,212,o),
(288,164,o),
(259,164,cs)
);
}
);
width = 521;
},
{
anchors = (
{
name = bottom;
pos = (343,0);
},
{
name = top;
pos = (343,620);
}
);
layerId = "4BA625B0-8927-4B2E-B2D8-0167ED5E0445";
shapes = (
{
closed = 1;
nodes = (
(567,-196,o),
(609,-152,o),
(622,-76,cs),
(632,-17,o),
(636,73,o),
(636,169,cs),
(636,304,o),
(627,439,o),
(612,503,cs),
(594,580,o),
(552,624,o),
(483,624,cs),
(416,624,o),
(390,576,o),
(390,486,c),
(398,490,l),
(359,572,o),
(300,609,o),
(223,609,cs),
(107,609,o),
(15,514,o),
(15,272,cs),
(15,76,o),
(102,-9,o),
(219,-9,cs),
(326,-9,o),
(396,42,o),
(428,126,c),
(421,127,l),
(413,57,o),
(408,-27,o),
(408,-94,cs),
(408,-155,o),
(437,-196,o),
(499,-196,cs)
);
},
{
closed = 1;
nodes = (
(277,164,o),
(246,202,o),
(246,287,cs),
(246,389,o),
(274,429,o),
(331,429,cs),
(385,429,o),
(416,382,o),
(416,297,cs),
(416,212,o),
(375,164,o),
(327,164,cs)
);
}
);
width = 656;
},
{
anchors = (
{
name = bottom;
pos = (227,0);
},
{
name = top;
pos = (227,620);
}
);
layerId = "D96CDDDD-AAEE-4FD8-A377-74226937908C";
shapes = (
{
closed = 1;
nodes = (
(418,-196,o),
(442,-160,o),
(452,-99,cs),
(463,-34,o),
(467,64,o),
(467,169,cs),
(467,316,o),
(458,464,o),
(442,533,cs),
(428,591,o),
(409,624,o),
(370,624,cs),
(330,624,o),
(314,576,o),
(314,486,c),
(322,490,l),
(296,572,o),
(258,609,o),
(200,609,cs),
(107,609,o),
(34,514,o),
(34,272,cs),
(34,76,o),
(101,-9,o),
(193,-9,cs),
(273,-9,o),
(325,42,o),
(349,126,c),
(342,127,l),
(330,50,o),
(322,-50,o),
(322,-117,cs),
(322,-164,o),
(339,-196,o),
(375,-196,cs)
);
},
{
closed = 1;
nodes = (
(196,104,o),
(167,159,o),
(167,283,cs),
(167,431,o),
(192,489,o),
(240,489,cs),
(293,489,o),
(330,414,o),
(330,297,cs),
(330,174,o),
(287,104,o),
(242,104,cs)
);
}
);
width = 517;
},
{
anchors = (
{
name = bottom;
pos = (349,0);
},
{
name = top;
pos = (349,620);
}
);
layerId = "1C59D977-65E2-41C6-912A-276E7E987498";
shapes = (
{
closed = 1;
nodes = (
(546,-196,o),
(571,-160,o),
(582,-99,cs),
(593,-34,o),
(597,64,o),
(597,169,cs),
(597,316,o),
(588,464,o),
(571,533,cs),
(558,591,o),
(536,624,o),
(494,624,cs),
(451,624,o),
(435,576,o),
(435,486,c),
(443,490,l),
(404,572,o),
(342,609,o),
(264,609,cs),
(138,609,o),
(40,514,o),
(40,272,cs),
(40,76,o),
(133,-9,o),
(259,-9,cs),
(367,-9,o),
(439,42,o),
(471,126,c),
(464,127,l),
(452,50,o),
(444,-50,o),
(444,-117,cs),
(444,-164,o),
(462,-196,o),
(501,-196,cs)
);
},
{
closed = 1;
nodes = (
(230,104,o),
(181,159,o),
(181,283,cs),
(181,431,o),
(224,489,o),
(308,489,cs),
(393,489,o),
(452,414,o),
(452,297,cs),
(452,174,o),
(382,104,o),
(310,104,cs)
);
}
);
width = 658;
}
);
metricLeft = o;
metricRight = n;
unicode = 113;
},
{
glyphname = r;
lastChange = "2021-08-24 15:07:39 +0000";
layers = (
{
anchors = (
{
name = bottom;
pos = (214,0);
},
{
name = top;
pos = (214,620);
}
);
layerId = m004;
shapes = (
{
closed = 1;
nodes = (
(20,323,o),
(30,180,o),
(43,109,cs),
(58,30,o),
(94,-2,o),
(155,-2,cs),
(218,-2,o),
(254,29,o),
(254,112,cs),
(254,194,o),
(222,321,o),
(222,377,cs),
(222,420,o),
(230,447,o),
(247,447,cs),
(259,447,o),
(266,428,o),
(263,373,cs),
(257,300,o),
(279,267,o),
(322,267,cs),
(382,267,o),
(422,314,o),
(422,449,cs),
(422,551,o),
(391,628,o),
(325,628,cs),
(260,628,o),
(213,568,o),
(191,496,c),
(196,494,l),
(196,557,o),
(174,632,o),
(115,632,cs),
(54,632,o),
(20,568,o),
(20,413,cs)
);
}
);
width = 427;
},
{
anchors = (
{
name = bottom;
pos = (244,0);
},
{
name = top;
pos = (244,620);
}
);
layerId = "4BA625B0-8927-4B2E-B2D8-0167ED5E0445";
shapes = (
{
closed = 1;
nodes = (
(20,323,o),
(30,180,o),
(43,109,cs),
(58,30,o),
(102,-2,o),
(170,-2,cs),
(242,-2,o),
(284,29,o),
(284,112,cs),
(284,190,o),
(252,309,o),
(252,362,cs),
(252,396,o),
(260,417,o),
(277,417,cs),
(289,417,o),
(296,403,o),
(293,358,cs),
(289,296,o),
(314,267,o),
(367,267,cs),
(436,267,o),
(482,314,o),
(482,449,cs),
(482,551,o),
(442,628,o),
(355,628,cs),
(290,628,o),
(243,568,o),
(221,496,c),
(226,494,l),
(226,557,o),
(200,632,o),
(130,632,cs),
(60,632,o),
(20,568,o),
(20,413,cs)
);
}
);
width = 487;
},
{
anchors = (
{
name = bottom;
pos = (222,0);
},
{
name = top;
pos = (222,620);
}
);
layerId = "D96CDDDD-AAEE-4FD8-A377-74226937908C";
shapes = (
{
closed = 1;
nodes = (
(50,345,o),
(67,185,o),
(84,94,cs),
(96,26,o),
(118,-2,o),
(163,-2,cs),
(202,-2,o),
(224,23,o),
(224,90,cs),
(224,176,o),
(192,311,o),
(192,370,cs),
(192,442,o),
(215,500,o),
(247,500,cs),
(270,500,o),
(284,470,o),
(278,381,cs),
(272,296,o),
(288,267,o),
(322,267,cs),
(369,267,o),
(400,314,o),
(400,449,cs),
(400,551,o),
(369,628,o),
(303,628,cs),
(241,628,o),
(197,568,o),
(176,496,c),
(181,494,l),
(181,557,o),
(163,632,o),
(115,632,cs),
(74,632,o),
(50,579,o),
(50,451,cs)
);
}
);
width = 427;
},
{
anchors = (
{
name = bottom;
pos = (240,0);
},
{
name = top;
pos = (240,620);
}
);
layerId = "1C59D977-65E2-41C6-912A-276E7E987498";
shapes = (
{
closed = 1;
nodes = (
(61,345,o),
(78,185,o),
(95,94,cs),
(108,26,o),
(131,-2,o),
(178,-2,cs),
(219,-2,o),
(243,27,o),
(243,101,cs),
(243,183,o),
(211,310,o),
(211,366,cs),
(211,436,o),
(238,492,o),
(277,492,cs),
(309,492,o),
(325,464,o),
(319,377,cs),
(314,295,o),
(331,267,o),
(367,267,cs),
(416,267,o),
(448,314,o),
(448,449,cs),
(448,551,o),
(412,628,o),
(333,628,cs),
(266,628,o),
(218,568,o),
(195,496,c),
(200,494,l),
(200,557,o),
(181,632,o),
(130,632,cs),
(86,632,o),
(61,579,o),
(61,451,cs)
);
}
);
width = 475.75;
}
);
metricLeft = n;
unicode = 114;
},
{
glyphname = s;
lastChange = "2021-08-24 15:07:39 +0000";
layers = (
{
anchors = (
{
name = bottom;
pos = (205,0);
},
{
name = top;
pos = (205,620);
}
);
layerId = m004;
shapes = (
{
closed = 1;
nodes = (
(103,626,o),
(20,541,o),
(20,416,cs),
(20,311,o),
(81,275,o),
(179,251,cs),
(216,242,o),
(222,231,o),
(222,216,cs),
(222,200,o),
(213,193,o),
(197,193,cs),
(162,193,o),
(130,205,o),
(104,205,cs),
(56,205,o),
(15,173,o),
(15,120,cs),
(15,47,o),
(59,-4,o),
(180,-4,cs),
(314,-4,o),
(394,66,o),
(394,181,cs),
(394,297,o),
(336,341,o),
(229,364,cs),
(185,374,o),
(176,382,o),
(176,399,cs),
(176,416,o),
(186,428,o),
(206,428,cs),
(240,428,o),
(264,422,o),
(288,422,cs),
(347,422,o),
(381,457,o),
(381,507,cs),
(381,576,o),
(343,626,o),
(248,626,cs)
);
}
);
width = 409;
},
{
anchors = (
{
name = bottom;
pos = (265,0);
},
{
name = top;
pos = (265,620);
}
);
layerId = "4BA625B0-8927-4B2E-B2D8-0167ED5E0445";
shapes = (
{
closed = 1;
nodes = (
(124,626,o),
(20,541,o),
(20,416,cs),
(20,299,o),
(105,266,o),
(239,251,cs),
(290,245,o),
(297,231,o),
(297,216,cs),
(297,200,o),
(284,193,o),
(257,193,cs),
(200,193,o),
(147,220,o),
(104,220,cs),
(56,220,o),
(15,188,o),
(15,135,cs),
(15,53,o),
(76,-4,o),
(240,-4,cs),
(412,-4,o),
(514,51,o),
(514,181,cs),
(514,312,o),
(435,352,o),
(289,364,cs),
(232,370,o),
(221,382,o),
(221,399,cs),
(221,416,o),
(236,428,o),
(266,428,cs),
(324,428,o),
(368,407,o),
(408,407,cs),
(467,407,o),
(501,442,o),
(501,492,cs),
(501,570,o),
(445,626,o),
(308,626,cs)
);
}
);
width = 529;
},
{
anchors = (
{
name = bottom;
pos = (201,0);
},
{
name = top;
pos = (201,620);
}
);
layerId = "D96CDDDD-AAEE-4FD8-A377-74226937908C";
shapes = (
{
closed = 1;
nodes = (
(111,626,o),
(39,549,o),
(39,435,cs),
(39,334,o),
(91,293,o),
(175,262,cs),
(232,241,o),
(248,218,o),
(248,182,cs),
(248,143,o),
(227,126,o),
(186,126,cs),
(151,126,o),
(119,145,o),
(93,145,cs),
(61,145,o),
(34,124,o),
(34,90,cs),
(34,39,o),
(76,-4,o),
(176,-4,cs),
(296,-4,o),
(368,58,o),
(368,177,cs),
(368,278,o),
(320,325,o),
(218,360,cs),
(172,377,o),
(157,396,o),
(157,437,cs),
(157,472,o),
(175,496,o),
(210,496,cs),
(244,496,o),
(268,482,o),
(292,482,cs),
(332,482,o),
(355,505,o),
(355,537,cs),
(355,589,o),
(321,626,o),
(237,626,cs)
);
}
);
width = 401.5;
},
{
anchors = (
{
name = bottom;
pos = (267,0);
},
{
name = top;
pos = (267,620);
}
);
layerId = "1C59D977-65E2-41C6-912A-276E7E987498";
shapes = (
{
closed = 1;
nodes = (
(142,626,o),
(45,542,o),
(45,418,cs),
(45,299,o),
(121,268,o),
(241,257,cs),
(340,247,o),
(363,229,o),
(363,188,cs),
(363,145,o),
(329,126,o),
(263,126,cs),
(201,126,o),
(145,149,o),
(99,149,cs),
(67,149,o),
(40,128,o),
(40,94,cs),
(40,34,o),
(92,-4,o),
(242,-4,cs),
(399,-4,o),
(494,56,o),
(494,183,cs),
(494,303,o),
(425,339,o),
(284,355,cs),
(198,366,o),
(175,386,o),
(175,425,cs),
(175,466,o),
(208,496,o),
(276,496,cs),
(334,496,o),
(377,478,o),
(418,478,cs),
(458,478,o),
(481,501,o),
(481,533,cs),
(481,587,o),
(432,626,o),
(314,626,cs)
);
}
);
width = 532.75;
}
);
unicode = 115;
},
{
glyphname = germandbls;
lastChange = "2021-08-24 15:07:39 +0000";
layers = (
{
background = {
shapes = (
{
closed = 1;
nodes = (
(84,720,o),
(54,696,o),
(42,647,cs),
(31,595,o),
(23,507,o),
(23,412,cs),
(23,298,o),
(35,105,o),
(48,24,cs),
(61,-53,o),
(93,-101,o),
(160,-101,cs),
(231,-101,o),
(263,-47,o),
(263,21,cs),
(263,75,o),
(255,152,o),
(244,227,c),
(232,221,l),
(250,163,o),
(294,118,o),
(376,118,cs),
(493,118,o),
(567,214,o),
(567,424,cs),
(567,618,o),
(485,714,o),
(373,714,cs),
(291,714,o),
(227,663,o),
(205,570,c),
(226,581,l),
(211,677,o),
(178,720,o),
(127,720,cs)
);
},
{
closed = 1;
nodes = (
(329,546,o),
(359,505,o),
(359,414,cs),
(359,342,o),
(340,292,o),
(293,292,cs),
(254,292,o),
(228,332,o),
(228,413,cs),
(228,491,o),
(254,546,o),
(295,546,cs)
);
}
);
};
layerId = m004;
shapes = (
{
closed = 1;
nodes = (
(383,436,o),
(283,435,o),
(283,346,cs),
(283,305,o),
(303,288,o),
(338,270,cs),
(362,257,o),
(375,246,o),
(375,231,cs),
(375,216,o),
(365,205,o),
(341,201,cs),
(289,191,o),
(258,166,o),
(258,106,cs),
(258,43,o),
(297,-4,o),
(383,-4,cs),
(505,-4,o),
(587,75,o),
(587,189,cs),
(587,276,o),
(538,329,o),
(442,365,c),
(524,396,o),
(572,451,o),
(572,526,cs),
(572,652,o),
(473,720,o),
(337,720,cs),
(164,720,o),
(56,622,o),
(39,412,cs),
(29,298,o),
(20,125,o),
(20,34,cs),
(20,-53,o),
(65,-101,o),
(132,-101,cs),
(203,-101,o),
(238,-47,o),
(238,21,cs),
(238,75,o),
(224,352,o),
(224,427,cs),
(224,513,o),
(252,555,o),
(313,555,cs),
(356,555,o),
(383,535,o),
(383,504,cs)
);
}
);
width = 603;
},
{
layerId = "4BA625B0-8927-4B2E-B2D8-0167ED5E0445";
shapes = (
{
closed = 1;
nodes = (
(383,436,o),
(283,435,o),
(283,346,cs),
(283,305,o),
(303,288,o),
(338,270,cs),
(362,257,o),
(375,246,o),
(375,231,cs),
(375,216,o),
(365,205,o),
(341,201,cs),
(289,191,o),
(258,166,o),
(258,106,cs),
(258,43,o),
(297,-4,o),
(383,-4,cs),
(505,-4,o),
(587,75,o),
(587,189,cs),
(587,276,o),
(538,329,o),
(442,365,c),
(524,396,o),
(572,451,o),
(572,526,cs),
(572,652,o),
(473,720,o),
(337,720,cs),
(164,720,o),
(56,622,o),
(39,412,cs),
(29,298,o),
(20,125,o),
(20,34,cs),
(20,-53,o),
(65,-101,o),
(132,-101,cs),
(203,-101,o),
(238,-47,o),
(238,21,cs),
(238,75,o),
(224,352,o),
(224,427,cs),
(224,513,o),
(252,555,o),
(313,555,cs),
(356,555,o),
(383,535,o),
(383,504,cs)
);
}
);
width = 603;
},
{
layerId = "D96CDDDD-AAEE-4FD8-A377-74226937908C";
shapes = (
{
closed = 1;
nodes = (
(383,436,o),
(283,435,o),
(283,346,cs),
(283,305,o),
(303,288,o),
(338,270,cs),
(362,257,o),
(375,246,o),
(375,231,cs),
(375,216,o),
(365,205,o),
(341,201,cs),
(289,191,o),
(258,166,o),
(258,106,cs),
(258,43,o),
(297,-4,o),
(383,-4,cs),
(505,-4,o),
(587,75,o),
(587,189,cs),
(587,276,o),
(538,329,o),
(442,365,c),
(524,396,o),
(572,451,o),
(572,526,cs),
(572,652,o),
(473,720,o),
(337,720,cs),
(164,720,o),
(56,622,o),
(39,412,cs),
(29,298,o),
(20,125,o),
(20,34,cs),
(20,-53,o),
(65,-101,o),
(132,-101,cs),
(203,-101,o),
(238,-47,o),
(238,21,cs),
(238,75,o),
(224,352,o),
(224,427,cs),
(224,513,o),
(252,555,o),
(313,555,cs),
(356,555,o),
(383,535,o),
(383,504,cs)
);
}
);
width = 603;
},
{
layerId = "1C59D977-65E2-41C6-912A-276E7E987498";
shapes = (
{
closed = 1;
nodes = (
(383,436,o),
(283,435,o),
(283,346,cs),
(283,305,o),
(303,288,o),
(338,270,cs),
(362,257,o),
(375,246,o),
(375,231,cs),
(375,216,o),
(365,205,o),
(341,201,cs),
(289,191,o),
(258,166,o),
(258,106,cs),
(258,43,o),
(297,-4,o),
(383,-4,cs),
(505,-4,o),
(587,75,o),
(587,189,cs),
(587,276,o),
(538,329,o),
(442,365,c),
(524,396,o),
(572,451,o),
(572,526,cs),
(572,652,o),
(473,720,o),
(337,720,cs),
(164,720,o),
(56,622,o),
(39,412,cs),
(29,298,o),
(20,125,o),
(20,34,cs),
(20,-53,o),
(65,-101,o),
(132,-101,cs),
(203,-101,o),
(238,-47,o),
(238,21,cs),
(238,75,o),
(224,352,o),
(224,427,cs),
(224,513,o),
(252,555,o),
(313,555,cs),
(356,555,o),
(383,535,o),
(383,504,cs)
);
}
);
width = 603;
}
);
unicode = 223;
},
{
glyphname = t;
lastChange = "2021-08-24 15:29:45 +0000";
layers = (
{
anchors = (
{
name = bottom;
pos = (212,0);
},
{
name = center;
pos = (212,310);
},
{
name = top;
pos = (212,620);
},
{
name = topright;
pos = (434,800);
}
);
layerId = m004;
shapes = (
{
closed = 1;
nodes = (
(139,609,o),
(122,614,o),
(104,614,cs),
(43,614,o),
(5,575,o),
(5,506,cs),
(5,440,o),
(38,409,o),
(97,409,cs),
(123,409,o),
(145,417,o),
(163,435,c),
(143,430,l),
(112,345,o),
(95,245,o),
(95,177,cs),
(95,116,o),
(106,74,o),
(123,46,cs),
(146,9,o),
(175,-10,o),
(220,-10,cs),
(296,-10,o),
(333,42,o),
(333,128,cs),
(333,218,o),
(300,364,o),
(266,451,c),
(261,440,l),
(280,432,o),
(300,429,o),
(318,429,cs),
(375,429,o),
(419,462,o),
(419,526,cs),
(419,593,o),
(383,619,o),
(329,619,cs),
(307,619,o),
(284,612,o),
(267,600,c),
(285,598,l),
(300,621,o),
(309,653,o),
(309,687,cs),
(309,741,o),
(284,774,o),
(228,774,cs),
(143,774,o),
(121,690,o),
(131,602,c),
(151,602,l)
);
}
);
width = 424;
},
{
anchors = (
{
name = bottom;
pos = (257,0);
},
{
name = center;
pos = (257,310);
},
{
name = top;
pos = (257,620);
},
{
name = topright;
pos = (479,800);
}
);
layerId = "4BA625B0-8927-4B2E-B2D8-0167ED5E0445";
shapes = (
{
closed = 1;
nodes = (
(165,609,o),
(143,614,o),
(119,614,cs),
(49,614,o),
(5,569,o),
(5,491,cs),
(5,415,o),
(44,379,o),
(112,379,cs),
(144,379,o),
(171,387,o),
(193,405,c),
(173,430,l),
(142,345,o),
(125,245,o),
(125,177,cs),
(125,116,o),
(136,74,o),
(153,46,cs),
(178,8,o),
(213,-10,o),
(265,-10,cs),
(352,-10,o),
(393,42,o),
(393,128,cs),
(393,209,o),
(360,342,o),
(326,421,c),
(321,410,l),
(345,402,o),
(371,399,o),
(393,399,cs),
(459,399,o),
(509,437,o),
(509,511,cs),
(509,589,o),
(467,619,o),
(404,619,cs),
(376,619,o),
(349,612,o),
(327,600,c),
(345,598,l),
(360,621,o),
(369,653,o),
(369,687,cs),
(369,741,o),
(340,774,o),
(273,774,cs),
(175,774,o),
(150,690,o),
(161,602,c),
(181,602,l)
);
}
);
width = 514;
},
{
anchors = (
{
name = bottom;
pos = (197,0);
},
{
name = center;
pos = (197,310);
},
{
name = top;
pos = (197,620);
},
{
name = topright;
pos = (419,800);
}
);
layerId = "D96CDDDD-AAEE-4FD8-A377-74226937908C";
shapes = (
{
closed = 1;
nodes = (
(148,609,o),
(124,614,o),
(97,614,cs),
(49,614,o),
(20,586,o),
(20,536,cs),
(20,490,o),
(46,469,o),
(90,469,cs),
(125,469,o),
(153,477,o),
(178,495,c),
(158,505,l),
(137,395,o),
(125,265,o),
(125,177,cs),
(125,113,o),
(132,60,o),
(146,31,cs),
(158,5,o),
(177,-10,o),
(206,-10,cs),
(255,-10,o),
(281,42,o),
(281,128,cs),
(281,235,o),
(257,408,o),
(232,511,c),
(216,490,l),
(242,482,o),
(270,479,o),
(296,479,cs),
(341,479,o),
(374,504,o),
(374,551,cs),
(374,600,o),
(347,619,o),
(307,619,cs),
(276,619,o),
(246,612,o),
(222,600,c),
(240,598,l),
(255,626,o),
(264,664,o),
(264,706,cs),
(264,749,o),
(248,774,o),
(213,774,cs),
(154,774,o),
(139,690,o),
(146,602,c),
(166,602,l)
);
}
);
width = 394;
},
{
anchors = (
{
name = bottom;
pos = (265,0);
},
{
name = center;
pos = (265,310);
},
{
name = top;
pos = (265,620);
},
{
name = topright;
pos = (487,800);
}
);
layerId = "1C59D977-65E2-41C6-912A-276E7E987498";
shapes = (
{
closed = 1;
nodes = (
(202,609,o),
(164,614,o),
(123,614,cs),
(60,614,o),
(20,584,o),
(20,532,cs),
(20,484,o),
(55,462,o),
(116,462,cs),
(166,462,o),
(207,470,o),
(242,488,c),
(222,505,l),
(201,395,o),
(189,265,o),
(189,177,cs),
(189,113,o),
(196,60,o),
(209,31,cs),
(222,5,o),
(243,-10,o),
(273,-10,cs),
(325,-10,o),
(352,42,o),
(352,128,cs),
(352,232,o),
(328,402,o),
(304,504,c),
(287,483,l),
(326,475,o),
(368,472,o),
(404,472,cs),
(464,472,o),
(509,497,o),
(509,547,cs),
(509,599,o),
(472,619,o),
(415,619,cs),
(372,619,o),
(327,612,o),
(293,600,c),
(311,598,l),
(326,626,o),
(335,664,o),
(335,706,cs),
(335,749,o),
(318,774,o),
(281,774,cs),
(219,774,o),
(203,690,o),
(210,602,c),
(230,602,l)
);
}
);
width = 529;
}
);
metricLeft = f;
metricRight = "=|f";
unicode = 116;
},
{
glyphname = u;
lastChange = "2021-08-24 15:07:39 +0000";
layers = (
{
anchors = (
{
name = bottom;
pos = (251,0);
},
{
name = ogonek;
pos = (491,10);
},
{
name = top;
pos = (251,609);
},
{
name = topright;
pos = (531,620);
}
);
layerId = m004;
shapes = (
{
closed = 1;
nodes = (
(487,6,o),
(511,80,o),
(511,229,cs),
(511,368,o),
(492,494,o),
(465,553,cs),
(447,592,o),
(416,617,o),
(372,617,cs),
(317,617,o),
(286,581,o),
(286,491,cs),
(286,449,o),
(295,364,o),
(295,310,cs),
(295,243,o),
(284,203,o),
(265,203,cs),
(248,203,o),
(238,226,o),
(233,275,cs),
(228,328,o),
(226,423,o),
(220,483,cs),
(213,555,o),
(181,598,o),
(128,598,cs),
(82,598,o),
(50,574,o),
(34,524,cs),
(24,495,o),
(20,450,o),
(20,398,cs),
(20,284,o),
(38,170,o),
(69,99,cs),
(97,34,o),
(144,1,o),
(200,1,cs),
(262,1,o),
(321,52,o),
(337,139,c),
(332,135,l),
(332,68,o),
(346,6,o),
(417,6,cs)
);
}
);
width = 531;
},
{
anchors = (
{
name = bottom;
pos = (326,0);
},
{
name = ogonek;
pos = (566,10);
},
{
name = top;
pos = (326,609);
},
{
name = topright;
pos = (606,620);
}
);
layerId = "4BA625B0-8927-4B2E-B2D8-0167ED5E0445";
shapes = (
{
closed = 1;
nodes = (
(588,6,o),
(616,80,o),
(616,229,cs),
(616,368,o),
(597,494,o),
(570,553,cs),
(552,594,o),
(514,617,o),
(462,617,cs),
(398,617,o),
(361,581,o),
(361,491,cs),
(361,449,o),
(370,364,o),
(370,310,cs),
(370,243,o),
(349,203,o),
(310,203,cs),
(286,203,o),
(268,226,o),
(263,275,cs),
(258,328,o),
(256,423,o),
(250,483,cs),
(243,555,o),
(205,598,o),
(143,598,cs),
(90,598,o),
(50,574,o),
(34,524,cs),
(24,495,o),
(20,450,o),
(20,398,cs),
(20,284,o),
(38,170,o),
(69,99,cs),
(99,33,o),
(161,1,o),
(230,1,cs),
(304,1,o),
(392,52,o),
(412,139,c),
(407,135,l),
(407,68,o),
(424,6,o),
(507,6,cs)
);
}
);
width = 636;
},
{
anchors = (
{
name = bottom;
pos = (236,0);
},
{
name = ogonek;
pos = (476,10);
},
{
name = top;
pos = (236,609);
},
{
name = topright;
pos = (516,620);
}
);
layerId = "D96CDDDD-AAEE-4FD8-A377-74226937908C";
shapes = (
{
closed = 1;
nodes = (
(457,6,o),
(474,80,o),
(474,229,cs),
(474,375,o),
(455,507,o),
(428,568,cs),
(414,597,o),
(394,617,o),
(365,617,cs),
(329,617,o),
(309,592,o),
(309,529,cs),
(309,472,o),
(325,360,o),
(325,288,cs),
(325,192,o),
(301,136,o),
(258,136,cs),
(229,136,o),
(211,173,o),
(203,253,cs),
(197,319,o),
(197,446,o),
(190,513,cs),
(185,566,o),
(164,598,o),
(128,598,cs),
(97,598,o),
(77,582,o),
(66,547,cs),
(55,513,o),
(50,459,o),
(50,398,cs),
(50,284,o),
(68,170,o),
(99,99,cs),
(127,35,o),
(165,1,o),
(215,1,cs),
(273,1,o),
(336,52,o),
(352,139,c),
(347,135,l),
(347,68,o),
(357,6,o),
(410,6,cs)
);
}
);
width = 523.5;
},
{
anchors = (
{
name = bottom;
pos = (334,0);
},
{
name = ogonek;
pos = (574,10);
},
{
name = top;
pos = (334,609);
},
{
name = topright;
pos = (614,620);
}
);
layerId = "1C59D977-65E2-41C6-912A-276E7E987498";
shapes = (
{
closed = 1;
nodes = (
(561,6,o),
(579,80,o),
(579,229,cs),
(579,375,o),
(560,507,o),
(533,568,cs),
(519,598,o),
(498,617,o),
(466,617,cs),
(428,617,o),
(406,592,o),
(406,529,cs),
(406,472,o),
(423,360,o),
(423,288,cs),
(423,192,o),
(384,136,o),
(314,136,cs),
(266,136,o),
(230,173,o),
(222,253,cs),
(215,319,o),
(216,446,o),
(209,513,cs),
(203,566,o),
(181,598,o),
(143,598,cs),
(110,598,o),
(88,582,o),
(78,547,cs),
(66,513,o),
(61,459,o),
(61,398,cs),
(61,284,o),
(79,170,o),
(110,99,cs),
(140,32,o),
(200,1,o),
(268,1,cs),
(344,1,o),
(430,52,o),
(450,139,c),
(445,135,l),
(445,68,o),
(456,6,o),
(511,6,cs)
);
}
);
width = 639.75;
}
);
metricLeft = "=|n";
metricRight = "=|n";
unicode = 117;
},
{
glyphname = v;
lastChange = "2021-08-24 15:19:08 +0000";
layers = (
{
anchors = (
{
name = bottom;
pos = (247,0);
},
{
name = top;
pos = (247,620);
}
);
layerId = m004;
shapes = (
{
closed = 1;
nodes = (
(37,629,o),
(10,579,o),
(10,480,cs),
(10,382,o),
(39,239,o),
(88,134,cs),
(134,35,o),
(178,-7,o),
(243,-7,cs),
(329,-7,o),
(381,60,o),
(426,170,cs),
(460,253,o),
(483,373,o),
(483,467,cs),
(483,567,o),
(443,612,o),
(375,612,cs),
(319,612,o),
(296,576,o),
(287,484,cs),
(280,422,o),
(271,296,o),
(263,169,c),
(259,169,l),
(249,295,o),
(233,438,o),
(217,507,cs),
(198,591,o),
(170,629,o),
(106,629,cs)
);
}
);
width = 493;
},
{
anchors = (
{
name = bottom;
pos = (292,0);
},
{
name = top;
pos = (292,620);
}
);
layerId = "4BA625B0-8927-4B2E-B2D8-0167ED5E0445";
shapes = (
{
closed = 1;
nodes = (
(42,629,o),
(10,579,o),
(10,480,cs),
(10,382,o),
(38,244,o),
(96,134,cs),
(151,32,o),
(211,-7,o),
(288,-7,cs),
(388,-7,o),
(458,59,o),
(509,170,cs),
(547,256,o),
(573,373,o),
(573,467,cs),
(573,567,o),
(527,612,o),
(450,612,cs),
(385,612,o),
(356,576,o),
(347,484,cs),
(340,422,o),
(323,296,o),
(307,199,c),
(303,199,l),
(290,295,o),
(263,437,o),
(247,507,cs),
(228,591,o),
(194,629,o),
(121,629,cs)
);
}
);
width = 583;
},
{
anchors = (
{
name = bottom;
pos = (240,0);
},
{
name = top;
pos = (240,620);
}
);
layerId = "D96CDDDD-AAEE-4FD8-A377-74226937908C";
shapes = (
{
closed = 1;
nodes = (
(42,629,o),
(25,592,o),
(25,518,cs),
(25,409,o),
(52,249,o),
(99,134,cs),
(140,36,o),
(180,-7,o),
(236,-7,cs),
(311,-7,o),
(357,64,o),
(400,178,cs),
(433,267,o),
(453,396,o),
(453,497,cs),
(453,576,o),
(427,612,o),
(383,612,cs),
(341,612,o),
(325,578,o),
(317,492,cs),
(306,385,o),
(287,226,o),
(256,94,c),
(252,94,l),
(219,235,o),
(195,402,o),
(172,507,cs),
(155,590,o),
(136,629,o),
(87,629,cs)
);
}
);
width = 478;
},
{
anchors = (
{
name = bottom;
pos = (296,0);
},
{
name = top;
pos = (296,620);
}
);
layerId = "1C59D977-65E2-41C6-912A-276E7E987498";
shapes = (
{
closed = 1;
nodes = (
(44,629,o),
(25,592,o),
(25,518,cs),
(25,409,o),
(67,259,o),
(135,134,cs),
(189,37,o),
(228,-7,o),
(292,-7,cs),
(381,-7,o),
(435,66,o),
(488,178,cs),
(531,272,o),
(566,396,o),
(566,497,cs),
(566,576,o),
(538,612,o),
(491,612,cs),
(447,612,o),
(430,578,o),
(422,492,cs),
(411,385,o),
(370,226,o),
(313,102,c),
(309,102,l),
(254,235,o),
(202,400,o),
(180,507,cs),
(162,590,o),
(142,629,o),
(90,629,cs)
);
}
);
width = 590.5;
}
);
metricRight = "=|";
unicode = 118;
},
{
glyphname = w;
lastChange = "2021-08-24 15:52:09 +0000";
layers = (
{
anchors = (
{
name = bottom;
pos = (309,0);
},
{
name = top;
pos = (309,620);
}
);
layerId = m004;
shapes = (
{
closed = 1;
nodes = (
(10,339,o),
(19,237,o),
(36,159,cs),
(60,55,o),
(101,8,o),
(161,8,cs),
(234,8,o),
(280,71,o),
(305,274,c),
(309,274,l),
(334,58,o),
(373,-8,o),
(446,-8,cs),
(502,-8,o),
(535,37,o),
(563,122,cs),
(591,207,o),
(608,350,o),
(608,461,cs),
(608,561,o),
(575,625,o),
(500,625,cs),
(437,625,o),
(401,578,o),
(401,476,cs),
(401,412,o),
(405,330,o),
(411,260,c),
(407,260,l),
(372,464,o),
(351,529,o),
(302,529,cs),
(257,529,o),
(235,465,o),
(204,250,c),
(200,250,l),
(205,310,o),
(209,392,o),
(209,442,cs),
(209,531,o),
(190,602,o),
(125,602,cs),
(55,602,o),
(10,545,o),
(10,406,cs)
);
}
);
width = 618;
},
{
anchors = (
{
name = bottom;
pos = (384,0);
},
{
name = top;
pos = (384,620);
}
);
background = {
shapes = (
{
closed = 1;
nodes = (
(10,339,o),
(19,237,o),
(36,159,cs),
(60,55,o),
(109,8,o),
(176,8,cs),
(247,8,o),
(330,61,o),
(380,229,c),
(384,229,l),
(436,48,o),
(511,-8,o),
(581,-8,cs),
(645,-8,o),
(685,36,o),
(713,122,cs),
(741,207,o),
(758,350,o),
(758,461,cs),
(758,561,o),
(721,625,o),
(635,625,cs),
(563,625,o),
(521,578,o),
(521,476,cs),
(521,426,o),
(525,360,o),
(531,305,c),
(527,305,l),
(477,475,o),
(428,529,o),
(377,529,cs),
(331,529,o),
(279,476,o),
(234,295,c),
(230,295,l),
(235,342,o),
(239,404,o),
(239,442,cs),
(239,531,o),
(217,602,o),
(140,602,cs),
(61,602,o),
(10,545,o),
(10,406,cs)
);
}
);
};
layerId = "4BA625B0-8927-4B2E-B2D8-0167ED5E0445";
shapes = (
{
closed = 1;
nodes = (
(10,339,o),
(19,237,o),
(36,159,cs),
(60,55,o),
(109,8,o),
(176,8,cs),
(247,8,o),
(340,61,o),
(380,269,c),
(384,269,l),
(426,48,o),
(511,-8,o),
(581,-8,cs),
(645,-8,o),
(685,36,o),
(713,122,cs),
(741,207,o),
(758,350,o),
(758,461,cs),
(758,561,o),
(721,625,o),
(635,625,cs),
(563,625,o),
(521,578,o),
(521,476,cs),
(521,414,o),
(529,333,o),
(541,265,c),
(537,265,l),
(484,465,o),
(431,529,o),
(377,529,cs),
(328,529,o),
(272,467,o),
(224,255,c),
(220,255,l),
(231,315,o),
(239,394,o),
(239,442,cs),
(239,531,o),
(217,602,o),
(140,602,cs),
(61,602,o),
(10,545,o),
(10,406,cs)
);
}
);
width = 768;
},
{
anchors = (
{
name = bottom;
pos = (309,0);
},
{
name = top;
pos = (309,620);
}
);
layerId = "D96CDDDD-AAEE-4FD8-A377-74226937908C";
shapes = (
{
closed = 1;
nodes = (
(25,339,o),
(34,237,o),
(51,159,cs),
(75,56,o),
(108,8,o),
(161,8,cs),
(217,8,o),
(270,137,o),
(305,394,c),
(309,394,l),
(343,124,o),
(386,-8,o),
(439,-8,cs),
(491,-8,o),
(520,37,o),
(548,122,cs),
(576,207,o),
(593,350,o),
(593,461,cs),
(593,561,o),
(569,625,o),
(515,625,cs),
(472,625,o),
(446,590,o),
(446,514,cs),
(446,405,o),
(445,266,o),
(441,148,c),
(437,148,l),
(392,405,o),
(355,529,o),
(302,529,cs),
(253,529,o),
(214,407,o),
(174,138,c),
(170,138,l),
(166,245,o),
(164,391,o),
(164,480,cs),
(164,548,o),
(152,602,o),
(110,602,cs),
(58,602,o),
(25,545,o),
(25,406,cs)
);
}
);
width = 618;
},
{
anchors = (
{
name = bottom;
pos = (384,0);
},
{
name = top;
pos = (384,620);
}
);
layerId = "1C59D977-65E2-41C6-912A-276E7E987498";
shapes = (
{
closed = 1;
nodes = (
(25,339,o),
(34,237,o),
(51,159,cs),
(75,56,o),
(110,8,o),
(165,8,cs),
(243,8,o),
(328,135,o),
(380,383,c),
(384,383,l),
(437,122,o),
(510,-8,o),
(585,-8,cs),
(639,-8,o),
(670,37,o),
(698,122,cs),
(726,207,o),
(743,350,o),
(743,461,cs),
(743,561,o),
(718,625,o),
(661,625,cs),
(616,625,o),
(589,590,o),
(589,514,cs),
(589,409,o),
(588,273,o),
(584,159,c),
(580,159,l),
(512,408,o),
(451,529,o),
(377,529,cs),
(308,529,o),
(243,410,o),
(182,149,c),
(178,149,l),
(174,253,o),
(172,394,o),
(172,480,cs),
(172,548,o),
(159,602,o),
(114,602,cs),
(60,602,o),
(25,545,o),
(25,406,cs)
);
}
);
width = 768;
}
);
metricLeft = v;
metricRight = v;
unicode = 119;
},
{
glyphname = x;
lastChange = "2021-08-24 17:29:28 +0000";
layers = (
{
anchors = (
{
name = bottom;
pos = (245,0);
},
{
name = top;
pos = (245,620);
}
);
background = {
shapes = (
{
closed = 1;
nodes = (
(196,282,l),
(37,328,o),
(-34,411,o),
(-34,501,cs),
(-34,572,o),
(23,618,o),
(85,618,cs),
(170,618,o),
(232,533,o),
(254,405,c),
(256,405,l),
(288,560,o),
(349,627,o),
(420,627,cs),
(488,627,o),
(525,578,o),
(525,511,cs),
(525,422,o),
(450,332,o),
(303,290,c),
(315,328,l),
(451,284,o),
(507,212,o),
(507,126,cs),
(507,55,o),
(459,9,o),
(404,9,cs),
(326,9,o),
(279,90,o),
(257,214,c),
(255,214,l),
(223,58,o),
(149,-9,o),
(78,-9,cs),
(14,-9,o),
(-34,44,o),
(-34,114,cs),
(-34,212,o),
(64,289,o),
(227,320,c)
);
}
);
};
layerId = m004;
shapes = (
{
closed = 1;
nodes = (
(167,-9,o),
(228,48,o),
(254,214,c),
(258,214,l),
(272,70,o),
(312,9,o),
(374,9,cs),
(424,9,o),
(467,51,o),
(467,116,cs),
(467,185,o),
(434,253,o),
(354,309,c),
(354,313,l),
(441,371,o),
(485,452,o),
(485,521,cs),
(485,582,o),
(452,627,o),
(390,627,cs),
(332,627,o),
(282,570,o),
(257,405,c),
(253,405,l),
(236,543,o),
(185,618,o),
(115,618,cs),
(58,618,o),
(6,576,o),
(6,511,cs),
(6,438,o),
(52,360,o),
(153,301,c),
(153,297,l),
(60,248,o),
(6,178,o),
(6,104,cs),
(6,40,o),
(50,-9,o),
(108,-9,cs)
);
}
);
width = 490;
},
{
anchors = (
{
name = bottom;
pos = (305,0);
},
{
name = top;
pos = (305,620);
}
);
layerId = "4BA625B0-8927-4B2E-B2D8-0167ED5E0445";
shapes = (
{
closed = 1;
nodes = (
(200,-9,o),
(281,63,o),
(314,214,c),
(318,214,l),
(343,100,o),
(393,9,o),
(479,9,cs),
(537,9,o),
(587,57,o),
(587,131,cs),
(587,209,o),
(541,271,o),
(429,309,c),
(429,313,l),
(546,353,o),
(605,427,o),
(605,506,cs),
(605,576,o),
(566,627,o),
(495,627,cs),
(418,627,o),
(351,555,o),
(317,405,c),
(313,405,l),
(290,528,o),
(223,618,o),
(130,618,cs),
(66,618,o),
(6,570,o),
(6,496,cs),
(6,414,o),
(66,342,o),
(198,301,c),
(198,297,l),
(77,266,o),
(6,202,o),
(6,119,cs),
(6,46,o),
(56,-9,o),
(123,-9,cs)
);
}
);
width = 610;
},
{
anchors = (
{
name = bottom;
pos = (215,0);
},
{
name = top;
pos = (215,620);
}
);
layerId = "D96CDDDD-AAEE-4FD8-A377-74226937908C";
shapes = (
{
closed = 1;
nodes = (
(133,-9,o),
(182,68,o),
(224,254,c),
(228,254,l),
(255,78,o),
(290,9,o),
(337,9,cs),
(366,9,o),
(392,33,o),
(392,71,cs),
(392,133,o),
(354,225,o),
(277,309,c),
(277,313,l),
(365,414,o),
(410,503,o),
(410,566,cs),
(410,601,o),
(390,627,o),
(353,627,cs),
(307,627,o),
(264,551,o),
(227,365,c),
(223,365,l),
(184,551,o),
(141,618,o),
(93,618,cs),
(55,618,o),
(21,591,o),
(21,549,cs),
(21,476,o),
(68,400,o),
(171,301,c),
(171,297,l),
(76,208,o),
(21,129,o),
(21,59,cs),
(21,21,o),
(49,-9,o),
(86,-9,cs)
);
}
);
width = 430;
},
{
anchors = (
{
name = bottom;
pos = (320,0);
},
{
name = top;
pos = (320,620);
}
);
layerId = "1C59D977-65E2-41C6-912A-276E7E987498";
shapes = (
{
closed = 1;
nodes = (
(169,-9,o),
(253,71,o),
(329,254,c),
(333,254,l),
(390,109,o),
(457,9,o),
(543,9,cs),
(575,9,o),
(602,35,o),
(602,75,cs),
(602,139,o),
(531,230,o),
(385,309,c),
(385,314,l),
(542,388,o),
(620,474,o),
(620,562,cs),
(620,599,o),
(598,627,o),
(559,627,cs),
(477,627,o),
(402,547,o),
(332,365,c),
(328,365,l),
(256,523,o),
(179,618,o),
(96,618,cs),
(57,618,o),
(21,590,o),
(21,545,cs),
(21,470,o),
(100,373,o),
(272,301,c),
(272,297,l),
(114,235,o),
(21,135,o),
(21,63,cs),
(21,22,o),
(51,-9,o),
(89,-9,cs)
);
}
);
width = 640;
}
);
unicode = 120;
},
{
glyphname = y;
lastChange = "2021-08-24 17:32:37 +0000";
layers = (
{
anchors = (
{
name = bottom;
pos = (242,0);
},
{
name = top;
pos = (242,612);
}
);
layerId = m004;
shapes = (
{
closed = 1;
nodes = (
(184,-199,o),
(257,-111,o),
(361,103,cs),
(434,253,o),
(473,427,o),
(473,514,cs),
(473,580,o),
(449,618,o),
(403,618,cs),
(340,618,o),
(295,517,o),
(268,286,c),
(264,286,l),
(237,488,o),
(177,607,o),
(89,607,cs),
(40,607,o),
(10,575,o),
(10,520,cs),
(10,392,o),
(74,269,o),
(197,128,c),
(198,144,l),
(112,67,o),
(46,-46,o),
(46,-122,cs),
(46,-174,o),
(69,-199,o),
(111,-199,cs)
);
}
);
width = 483;
},
{
anchors = (
{
name = bottom;
pos = (302,0);
},
{
name = top;
pos = (302,612);
}
);
background = {
shapes = (
{
closed = 1;
nodes = (
(253,-199,o),
(338,-110,o),
(451,103,cs),
(535,261,o),
(593,427,o),
(593,514,cs),
(593,580,o),
(563,618,o),
(508,618,cs),
(424,618,o),
(364,513,o),
(328,316,c),
(324,316,l),
(296,499,o),
(230,607,o),
(134,607,cs),
(58,607,o),
(10,559,o),
(10,475,cs),
(10,362,o),
(89,253,o),
(242,128,c),
(243,144,l),
(157,72,o),
(91,-36,o),
(91,-107,cs),
(91,-170,o),
(119,-199,o),
(171,-199,cs)
);
}
);
};
layerId = "4BA625B0-8927-4B2E-B2D8-0167ED5E0445";
shapes = (
{
closed = 1;
nodes = (
(253,-199,o),
(338,-110,o),
(451,103,cs),
(535,261,o),
(593,427,o),
(593,514,cs),
(593,580,o),
(563,618,o),
(508,618,cs),
(424,618,o),
(359,513,o),
(328,286,c),
(324,286,l),
(302,499,o),
(230,607,o),
(134,607,cs),
(58,607,o),
(10,559,o),
(10,475,cs),
(10,362,o),
(89,253,o),
(242,128,c),
(243,144,l),
(157,72,o),
(91,-36,o),
(91,-107,cs),
(91,-170,o),
(119,-199,o),
(171,-199,cs)
);
}
);
width = 603;
},
{
anchors = (
{
name = bottom;
pos = (220,0);
},
{
name = top;
pos = (220,612);
}
);
background = {
shapes = (
{
closed = 1;
nodes = (
(165,-199,o),
(234,-95,o),
(324,111,cs),
(393,270,o),
(436,466,o),
(436,544,cs),
(436,591,o),
(418,618,o),
(384,618,cs),
(329,618,o),
(294,495,o),
(258,241,c),
(254,241,l),
(198,478,o),
(143,607,o),
(82,607,cs),
(47,607,o),
(25,583,o),
(25,543,cs),
(25,454,o),
(86,312,o),
(205,136,c),
(206,144,l),
(114,33,o),
(61,-78,o),
(61,-145,cs),
(61,-182,o),
(79,-199,o),
(111,-199,cs)
);
}
);
};
layerId = "D96CDDDD-AAEE-4FD8-A377-74226937908C";
shapes = (
{
closed = 1;
nodes = (
(165,-199,o),
(234,-95,o),
(324,111,cs),
(393,270,o),
(436,466,o),
(436,544,cs),
(436,591,o),
(418,618,o),
(384,618,cs),
(329,618,o),
(291,495,o),
(260,221,c),
(256,221,l),
(200,478,o),
(143,607,o),
(82,607,cs),
(47,607,o),
(25,583,o),
(25,543,cs),
(25,451,o),
(88,303,o),
(212,121,c),
(213,129,l),
(117,24,o),
(61,-81,o),
(61,-145,cs),
(61,-182,o),
(79,-199,o),
(111,-199,cs)
);
}
);
width = 460.5;
},
{
anchors = (
{
name = bottom;
pos = (313,0);
},
{
name = top;
pos = (313,612);
}
);
background = {
shapes = (
{
closed = 1;
nodes = (
(226,-199,o),
(306,-104,o),
(425,111,cs),
(517,277,o),
(589,466,o),
(589,544,cs),
(589,591,o),
(571,618,o),
(534,618,cs),
(455,618,o),
(405,494,o),
(351,249,c),
(347,249,l),
(261,481,o),
(181,607,o),
(93,607,cs),
(51,607,o),
(25,579,o),
(25,531,cs),
(25,436,o),
(117,308,o),
(295,136,c),
(296,144,l),
(174,34,o),
(106,-75,o),
(106,-141,cs),
(106,-181,o),
(125,-199,o),
(160,-199,cs)
);
}
);
};
layerId = "1C59D977-65E2-41C6-912A-276E7E987498";
shapes = (
{
closed = 1;
nodes = (
(226,-199,o),
(306,-104,o),
(425,111,cs),
(517,277,o),
(589,466,o),
(589,544,cs),
(589,591,o),
(571,618,o),
(534,618,cs),
(455,618,o),
(401,494,o),
(351,219,c),
(347,219,l),
(269,480,o),
(181,607,o),
(93,607,cs),
(51,607,o),
(25,579,o),
(25,531,cs),
(25,434,o),
(117,302,o),
(295,126,c),
(296,134,l),
(174,28,o),
(106,-77,o),
(106,-141,cs),
(106,-181,o),
(125,-199,o),
(160,-199,cs)
);
}
);
width = 614.25;
}
);
metricLeft = v;
metricRight = v;
unicode = 121;
},
{
glyphname = z;
lastChange = "2021-08-24 15:23:02 +0000";
layers = (
{
anchors = (
{
name = bottom;
pos = (246,0);
},
{
name = center;
pos = (246,310);
},
{
name = top;
pos = (246,620);
}
);
layerId = m004;
shapes = (
{
closed = 1;
nodes = (
(20,42,o),
(85,-7,o),
(223,-7,cs),
(354,-7,o),
(424,51,o),
(424,129,cs),
(424,184,o),
(397,206,o),
(332,206,cs),
(279,206,o),
(214,192,o),
(174,173,c),
(174,177,l),
(385,337,o),
(432,413,o),
(432,503,cs),
(432,593,o),
(379,627,o),
(275,627,cs),
(208,627,o),
(132,611,o),
(86,591,cs),
(46,573,o),
(21,544,o),
(21,504,cs),
(21,447,o),
(52,416,o),
(124,416,cs),
(156,416,o),
(220,428,o),
(264,445,c),
(264,441,l),
(85,319,o),
(20,227,o),
(20,125,cs)
);
}
);
width = 452;
},
{
anchors = (
{
name = bottom;
pos = (276,0);
},
{
name = center;
pos = (276,310);
},
{
name = top;
pos = (276,620);
}
);
layerId = "4BA625B0-8927-4B2E-B2D8-0167ED5E0445";
shapes = (
{
closed = 1;
nodes = (
(20,48,o),
(105,-7,o),
(283,-7,cs),
(453,-7,o),
(544,51,o),
(544,129,cs),
(544,195,o),
(504,221,o),
(407,221,cs),
(339,221,o),
(255,207,o),
(204,188,c),
(204,192,l),
(489,337,o),
(552,407,o),
(552,488,cs),
(552,604,o),
(480,627,o),
(335,627,cs),
(252,627,o),
(156,613,o),
(101,591,cs),
(51,573,o),
(21,537,o),
(21,489,cs),
(21,432,o),
(57,401,o),
(139,401,cs),
(182,401,o),
(265,413,o),
(324,430,c),
(324,426,l),
(102,316,o),
(20,233,o),
(20,140,cs)
);
}
);
width = 572;
},
{
anchors = (
{
name = bottom;
pos = (216,0);
},
{
name = center;
pos = (216,310);
},
{
name = top;
pos = (216,620);
}
);
layerId = "D96CDDDD-AAEE-4FD8-A377-74226937908C";
shapes = (
{
closed = 1;
nodes = (
(35,34,o),
(90,-7,o),
(208,-7,cs),
(320,-7,o),
(379,38,o),
(379,99,cs),
(379,144,o),
(357,161,o),
(302,161,cs),
(244,161,o),
(173,143,o),
(129,121,c),
(129,125,l),
(314,321,o),
(387,448,o),
(387,526,cs),
(387,604,o),
(345,627,o),
(260,627,cs),
(201,627,o),
(134,615,o),
(94,599,cs),
(58,584,o),
(36,562,o),
(36,533,cs),
(36,490,o),
(65,469,o),
(132,469,cs),
(167,469,o),
(237,484,o),
(287,505,c),
(287,501,l),
(130,347,o),
(35,199,o),
(35,103,cs)
);
}
);
width = 422;
},
{
anchors = (
{
name = bottom;
pos = (291,0);
},
{
name = center;
pos = (291,310);
},
{
name = top;
pos = (291,620);
}
);
layerId = "1C59D977-65E2-41C6-912A-276E7E987498";
shapes = (
{
closed = 1;
nodes = (
(35,35,o),
(118,-7,o),
(291,-7,cs),
(456,-7,o),
(544,38,o),
(544,99,cs),
(544,146,o),
(509,165,o),
(422,165,cs),
(326,165,o),
(208,147,o),
(137,124,c),
(137,128,l),
(432,321,o),
(552,446,o),
(552,522,cs),
(552,607,o),
(482,627,o),
(343,627,cs),
(256,627,o),
(155,611,o),
(97,587,cs),
(59,573,o),
(36,549,o),
(36,518,cs),
(36,475,o),
(66,454,o),
(135,454,cs),
(205,454,o),
(341,475,o),
(437,501,c),
(437,497,l),
(191,346,o),
(35,201,o),
(35,106,cs)
);
}
);
width = 587;
}
);
unicode = 122;
},
{
glyphname = zero;
lastChange = "2021-08-24 15:07:39 +0000";
layers = (
{
layerId = m004;
shapes = (
{
closed = 1;
nodes = (
(453,7,o),
(566,142,o),
(566,360,cs),
(566,561,o),
(458,698,o),
(291,698,cs),
(123,698,o),
(15,553,o),
(15,339,cs),
(15,134,o),
(118,7,o),
(277,7,cs)
);
},
{
closed = 1;
nodes = (
(254,211,o),
(228,258,o),
(228,356,cs),
(228,448,o),
(254,491,o),
(294,491,cs),
(334,491,o),
(360,448,o),
(360,356,cs),
(360,258,o),
(334,211,o),
(294,211,cs)
);
}
);
width = 581;
},
{
layerId = "4BA625B0-8927-4B2E-B2D8-0167ED5E0445";
shapes = (
{
closed = 1;
nodes = (
(453,7,o),
(566,142,o),
(566,360,cs),
(566,561,o),
(458,698,o),
(291,698,cs),
(123,698,o),
(15,553,o),
(15,339,cs),
(15,134,o),
(118,7,o),
(277,7,cs)
);
},
{
closed = 1;
nodes = (
(254,211,o),
(228,258,o),
(228,356,cs),
(228,448,o),
(254,491,o),
(294,491,cs),
(334,491,o),
(360,448,o),
(360,356,cs),
(360,258,o),
(334,211,o),
(294,211,cs)
);
}
);
width = 581;
},
{
layerId = "D96CDDDD-AAEE-4FD8-A377-74226937908C";
shapes = (
{
closed = 1;
nodes = (
(453,7,o),
(566,142,o),
(566,360,cs),
(566,561,o),
(458,698,o),
(291,698,cs),
(123,698,o),
(15,553,o),
(15,339,cs),
(15,134,o),
(118,7,o),
(277,7,cs)
);
},
{
closed = 1;
nodes = (
(254,211,o),
(228,258,o),
(228,356,cs),
(228,448,o),
(254,491,o),
(294,491,cs),
(334,491,o),
(360,448,o),
(360,356,cs),
(360,258,o),
(334,211,o),
(294,211,cs)
);
}
);
width = 581;
},
{
layerId = "1C59D977-65E2-41C6-912A-276E7E987498";
shapes = (
{
closed = 1;
nodes = (
(453,7,o),
(566,142,o),
(566,360,cs),
(566,561,o),
(458,698,o),
(291,698,cs),
(123,698,o),
(15,553,o),
(15,339,cs),
(15,134,o),
(118,7,o),
(277,7,cs)
);
},
{
closed = 1;
nodes = (
(254,211,o),
(228,258,o),
(228,356,cs),
(228,448,o),
(254,491,o),
(294,491,cs),
(334,491,o),
(360,448,o),
(360,356,cs),
(360,258,o),
(334,211,o),
(294,211,cs)
);
}
);
width = 581;
}
);
metricLeft = O;
metricRight = O;
unicode = 48;
},
